<?xml version="1.0" encoding="UTF-8" standalone="no"?>
<!-- Created with Inkscape (http://www.inkscape.org/) -->

<svg
   xmlns:dc="http://purl.org/dc/elements/1.1/"
   xmlns:cc="http://creativecommons.org/ns#"
   xmlns:rdf="http://www.w3.org/1999/02/22-rdf-syntax-ns#"
   xmlns:svg="http://www.w3.org/2000/svg"
   xmlns="http://www.w3.org/2000/svg"
   xmlns:sodipodi="http://sodipodi.sourceforge.net/DTD/sodipodi-0.dtd"
   xmlns:inkscape="http://www.inkscape.org/namespaces/inkscape"
   width="1488.189"
   height="2104.7244"
   id="svg2"
   version="1.1"
   inkscape:version="0.91 r13725"
   sodipodi:docname="poster_motto_4_2_path.svg"
   inkscape:export-filename="/home/svet/Dropbox/falanster/design/postcards/for_print/brand_experiment/postcard_motto_4_2_path.png"
   inkscape:export-xdpi="300"
   inkscape:export-ydpi="300">
  <defs
     id="defs4" />
  <sodipodi:namedview
     id="base"
     pagecolor="#ffffff"
     bordercolor="#666666"
     borderopacity="1.0"
     inkscape:pageopacity="0.0"
     inkscape:pageshadow="2"
     inkscape:zoom="0.24748737"
     inkscape:cx="1059.3898"
     inkscape:cy="269.40367"
     inkscape:document-units="px"
     inkscape:current-layer="layer1"
     showgrid="false"
     inkscape:window-width="1855"
     inkscape:window-height="1056"
     inkscape:window-x="65"
     inkscape:window-y="24"
     inkscape:window-maximized="1"
     showguides="true"
     inkscape:guide-bbox="true"
     fit-margin-top="0"
     fit-margin-left="0"
     fit-margin-right="0"
     fit-margin-bottom="0"
     units="mm">
    <sodipodi:guide
       orientation="0,1"
       position="233.85714,25.14279"
       id="guide2999" />
    <sodipodi:guide
       orientation="1,0"
       position="-43.917125,521.57705"
       id="guide3001" />
    <sodipodi:guide
       orientation="1,0"
       position="425.80381,388.23692"
       id="guide3003" />
    <sodipodi:guide
       position="1615.7143,142.85709"
       orientation="0,1"
       id="guide4218" />
  </sodipodi:namedview>
  <metadata
     id="metadata7">
    <rdf:RDF>
      <cc:Work
         rdf:about="">
        <dc:format>image/svg+xml</dc:format>
        <dc:type
           rdf:resource="http://purl.org/dc/dcmitype/StillImage" />
        <dc:title></dc:title>
      </cc:Work>
    </rdf:RDF>
  </metadata>
  <g
     inkscape:label="Layer 1"
     inkscape:groupmode="layer"
     id="layer1"
     transform="translate(-70.181091,968.18121)">
    <path
       style="fill:#1a1a1a;fill-opacity:1;fill-rule:nonzero;stroke:none"
       d="m 1558.3701,-968.18121 0,2104.72441 -1488.189009,0 0,-2104.72441 z"
       id="rect2985"
       inkscape:connector-curvature="0" />
    <g
       style="font-style:normal;font-variant:normal;font-weight:normal;font-stretch:normal;font-size:67.30172729px;line-height:80.00000119%;font-family:'Ubuntu Mono';-inkscape-font-specification:'Ubuntu Mono';letter-spacing:0px;word-spacing:0px;fill:#ff00ff;fill-opacity:1;stroke:none"
       id="text2988"
       transform="matrix(3.853211,0,0,3.853211,-200.24146,-3264.7976)">
      <path
         d="m 97.491455,1014.6494 2.422863,0 c 1.346032,-1.9294 2.400422,-3.9035 3.163182,-5.9226 0.76274,-2.019 1.32359,-4.1054 1.68254,-6.2591 0.4038,-2.1985 0.67301,-4.46429 0.80762,-6.79743 0.1346,-2.37797 0.22433,-4.89057 0.26921,-7.5378 l 18.44067,0 0,26.51693 2.62477,0 0,13.393 -5.24953,0 0,-8.6819 -18.91179,0 0,8.6819 -5.249535,0 0,-13.393 m 21.267345,0 0,-21.87311 -7.60509,0 c -2e-5,1.79474 -0.0898,3.70162 -0.26921,5.72065 -0.17949,1.97416 -0.49356,3.92596 -0.94223,5.85526 -0.40382,1.9293 -0.96467,3.7913 -1.68254,5.586 -0.7179,1.7499 -1.59282,3.3203 -2.62477,4.7112 l 13.12384,0"
         style="line-height:80.00000119%;fill:#ff00ff"
         id="path3021"
         inkscape:connector-curvature="0" />
      <path
         d="m 135.11312,988.94009 c 1.48063,-0.49351 3.09587,-0.87489 4.84573,-1.14413 1.7947,-0.31404 3.56697,-0.47108 5.31683,-0.47111 1.70496,3e-5 3.34263,0.15707 4.91303,0.47111 1.57035,0.26924 2.96125,0.76279 4.1727,1.48064 1.21141,0.71792 2.17607,1.66014 2.89398,2.82667 0.71786,1.12173 1.0768,2.53506 1.07683,4.24001 -3e-5,0.80765 -0.15707,1.5704 -0.47112,2.28826 -0.3141,0.71791 -0.71791,1.36846 -1.21143,1.95176 -0.49357,0.5833 -1.03198,1.0768 -1.61524,1.4806 -0.53844,0.4039 -1.07685,0.6955 -1.61524,0.875 1.70495,0.6281 3.11829,1.5479 4.24001,2.7593 1.16653,1.1666 1.74981,2.8267 1.74984,4.9804 -3e-5,3.0061 -1.27876,5.3392 -3.83619,6.9993 -2.51263,1.6153 -5.94501,2.4229 -10.29717,2.4229 -2.69208,0 -5.0252,-0.2019 -6.99938,-0.6057 -1.92932,-0.4038 -3.29779,-0.7852 -4.1054,-1.1442 l 1.14413,-4.7111 c 0.67301,0.2244 1.88444,0.5609 3.63429,1.0096 1.74983,0.4038 3.85862,0.6057 6.32636,0.6057 2.96126,0 5.11491,-0.4263 6.46097,-1.2788 1.34601,-0.8524 2.01903,-1.9966 2.01905,-3.4324 -2e-5,-1.6152 -0.67304,-2.8939 -2.01905,-3.8362 -1.34606,-0.9422 -3.1632,-1.4133 -5.45144,-1.4133 l -6.59557,0 0,-4.4419 6.19176,0 c 2.28824,0 3.99321,-0.3814 5.11493,-1.14413 1.12167,-0.76273 1.68252,-1.79469 1.68254,-3.09588 -2e-5,-1.39088 -0.62817,-2.49014 -1.88445,-3.29778 -1.25632,-0.8076 -3.2305,-1.21141 -5.92255,-1.21144 -1.25631,3e-5 -2.71451,0.15707 -4.37461,0.47112 -1.61525,0.3141 -3.00615,0.74034 -4.17271,1.27873 l -1.21143,-4.91303"
         style="line-height:80.00000119%;fill:#ff00ff"
         id="path3023"
         inkscape:connector-curvature="0" />
      <path
         d="m 181.55131,1007.2462 c -0.62816,0 -1.23388,0 -1.81714,0 -0.53843,-0.045 -1.05441,-0.09 -1.54794,-0.1346 -1.30118,1.9293 -2.53505,3.9932 -3.7016,6.1917 -1.16657,2.1537 -2.22096,4.1727 -3.16318,6.0572 l -5.65334,0 c 0.49354,-1.1666 1.05439,-2.3556 1.68254,-3.567 0.62814,-1.2563 1.27873,-2.4453 1.95175,-3.567 0.67301,-1.1666 1.34603,-2.2658 2.01905,-3.2978 0.67301,-1.0768 1.32359,-2.019 1.95175,-2.8267 -2.2434,-0.8076 -3.7689,-1.9517 -4.57652,-3.4324 -0.76275,-1.5254 -1.14413,-3.14068 -1.14413,-4.84568 0,-1.74982 0.31407,-3.27533 0.94223,-4.57652 0.67301,-1.30114 1.5928,-2.37796 2.75937,-3.23048 1.16655,-0.89733 2.53502,-1.57034 4.1054,-2.01905 1.61523,-0.44865 3.36507,-0.67299 5.24954,-0.67302 2.64718,3e-5 4.86813,0.1122 6.66287,0.33651 1.79469,0.22437 3.32019,0.51601 4.57652,0.87492 l 0,30.82422 -5.58605,0 0,-12.1143 -4.71112,0 m 4.71112,-15.00832 c -0.4487,-0.0897 -1.16658,-0.15701 -2.15365,-0.20191 -0.94225,-0.0897 -2.08637,-0.13457 -3.43239,-0.1346 -2.28827,3e-5 -4.12785,0.47114 -5.51874,1.41334 -1.39091,0.94224 -2.08636,2.42288 -2.08635,4.44191 -1e-5,2.01907 0.71787,3.40998 2.15365,4.17268 1.43576,0.7628 3.29777,1.1442 5.58604,1.1442 l 5.45144,0 0,-10.83562"
         style="line-height:80.00000119%;fill:#ff00ff"
         id="path3025"
         inkscape:connector-curvature="0" />
      <path
         d="m 212.44281,992.77629 c -2e-5,1.34606 -0.0449,2.78183 -0.13461,4.30731 -0.0449,1.48066 -0.15705,2.9837 -0.33651,4.5092 -0.13462,1.4807 -0.33652,2.9613 -0.60571,4.4419 -0.26922,1.4358 -0.62817,2.7818 -1.07683,4.0381 -0.89737,2.5575 -2.26584,4.756 -4.10541,6.5956 -1.83958,1.8396 -4.46435,2.9388 -7.8743,3.2978 l -0.80762,-4.7111 c 1.97418,-0.359 3.52212,-1.0769 4.64382,-2.1537 1.16656,-1.1217 2.08635,-2.4677 2.75937,-4.0381 0.58327,-1.346 1.00952,-2.8715 1.27873,-4.5765 0.31407,-1.705 0.53841,-3.4997 0.67302,-5.38415 0.1346,-1.88442 0.2019,-3.76887 0.20191,-5.65334 -1e-5,-1.88442 -1e-5,-3.6567 0,-5.31684 l 18.44067,0 0,31.22803 -5.58604,0 0,-26.58421 -7.47049,0"
         style="line-height:80.00000119%;fill:#ff00ff"
         id="path3027"
         inkscape:connector-curvature="0" />
      <path
         d="m 244.34382,983.28675 c -1.16657,3e-5 -2.1761,-0.40378 -3.02857,-1.21143 -0.8525,-0.80759 -1.27875,-1.90685 -1.27874,-3.29779 -1e-5,-1.39086 0.42624,-2.49012 1.27874,-3.29778 0.85247,-0.80758 1.862,-1.21139 3.02857,-1.21143 1.21142,4e-5 2.22095,0.40385 3.02858,1.21143 0.85247,0.80766 1.27872,1.90692 1.27873,3.29778 -1e-5,1.39094 -0.42626,2.4902 -1.27873,3.29779 -0.80763,0.80765 -1.81716,1.21146 -3.02858,1.21143 m -1.41333,9.48954 -9.01843,0 0,-4.64382 14.53717,0 0,19.18103 c -2e-5,3.0959 0.42623,5.1822 1.27873,6.259 0.85247,1.032 2.1312,1.548 3.8362,1.548 1.30114,0 2.49014,-0.1571 3.56699,-0.4711 1.12167,-0.3141 1.99659,-0.6506 2.62477,-1.0096 l 0.80762,4.7111 c -0.26924,0.1347 -0.65061,0.3141 -1.14413,0.5385 -0.49357,0.1794 -1.07685,0.3589 -1.74984,0.5384 -0.62818,0.1794 -1.34606,0.3365 -2.15366,0.4711 -0.76278,0.1346 -1.5704,0.2019 -2.42286,0.2019 -1.97421,0 -3.61188,-0.2692 -4.91303,-0.8076 -1.30118,-0.5384 -2.35557,-1.3461 -3.16318,-2.4229 -0.76277,-1.0768 -1.30118,-2.4004 -1.61524,-3.9708 -0.31409,-1.6152 -0.47112,-3.4772 -0.47111,-5.586 l 0,-14.53721"
         style="line-height:80.00000119%;fill:#ff00ff"
         id="path3029"
         inkscape:connector-curvature="0" />
      <path
         d="m 292.53186,1014.6494 2.62477,0 0,13.393 -5.24954,0 0,-8.6819 -21.20004,0 0,-31.22803 5.58604,0 0,26.51693 12.72003,0 0,-26.51693 5.51874,0 0,26.51693"
         style="line-height:80.00000119%;fill:#ff00ff"
         id="path3031"
         inkscape:connector-curvature="0" />
      <path
         d="m 326.18272,1014.6494 2.62477,0 0,13.393 -5.24953,0 0,-8.6819 -21.20005,0 0,-31.22803 5.58605,0 0,26.51693 12.72002,0 0,-26.51693 5.51874,0 0,26.51693"
         style="line-height:80.00000119%;fill:#ff00ff"
         id="path3033"
         inkscape:connector-curvature="0" />
      <path
         d="m 348.39229,1015.3897 c 1.39089,0 2.62475,-0.045 3.7016,-0.1346 1.12167,-0.09 2.04146,-0.2019 2.75937,-0.3365 l 0,-9.2877 c -0.71791,-0.2243 -1.59283,-0.4038 -2.62477,-0.5384 -0.98711,-0.1346 -2.0415,-0.2019 -3.16318,-0.2019 -1.03197,0 -2.0415,0.09 -3.02858,0.2692 -0.9871,0.1346 -1.86202,0.4038 -2.62476,0.8076 -0.76277,0.4039 -1.39092,0.9423 -1.88445,1.6153 -0.49356,0.6281 -0.74033,1.4358 -0.74032,2.4228 -10e-6,2.0191 0.67301,3.4324 2.01905,4.24 1.39089,0.7628 3.2529,1.1442 5.58604,1.1442 m -0.53841,-27.99755 c 2.33311,4e-5 4.28486,0.29168 5.85525,0.87493 1.61522,0.58331 2.91638,1.39093 3.9035,2.42286 0.98707,1.03199 1.68252,2.28828 2.08635,3.76889 0.40379,1.48067 0.60569,3.09591 0.60572,4.84573 l 0,19.51754 c -1.30119,0.2243 -3.0286,0.4935 -5.18223,0.8076 -2.10881,0.3141 -4.2849,0.4711 -6.52827,0.4711 -1.70499,0 -3.3651,-0.157 -4.98033,-0.4711 -1.61525,-0.2692 -3.05102,-0.7628 -4.30731,-1.4807 -1.2563,-0.7627 -2.26583,-1.7947 -3.02858,-3.0958 -0.76275,-1.3012 -1.14413,-2.9613 -1.14413,-4.9804 0,-1.7947 0.38138,-3.2977 1.14413,-4.5092 0.80762,-1.2563 1.81714,-2.2658 3.02858,-3.0286 1.25629,-0.7627 2.66963,-1.3011 4.24001,-1.6152 1.61523,-0.3589 3.23047,-0.5384 4.84572,-0.5384 2.19851,0 4.35216,0.2468 6.46097,0.7403 l 0,-1.54793 c -2e-5,-0.94221 -0.11219,-1.83956 -0.33651,-2.69207 -0.17949,-0.89734 -0.56087,-1.70496 -1.14413,-2.42287 -0.53843,-0.71785 -1.30118,-1.2787 -2.28826,-1.68254 -0.94224,-0.44865 -2.1761,-0.67299 -3.70159,-0.67302 -1.92933,3e-5 -3.61187,0.13463 -5.04763,0.40381 -1.43578,0.26924 -2.53504,0.53844 -3.29779,0.80763 l -0.67301,-4.57652 c 0.76274,-0.35891 2.01904,-0.67299 3.76889,-0.94223 1.7947,-0.26917 3.70158,-0.40377 5.72065,-0.40381"
         style="line-height:80.00000119%;fill:#ff00ff"
         id="path3035"
         inkscape:connector-curvature="0" />
      <path
         d="m 394.55846,998.76615 33.65087,0 0,4.71115 -33.65087,0 0,-4.71115"
         style="line-height:80.00000119%;letter-spacing:0px;fill:#ff00ff"
         id="path3037"
         inkscape:connector-curvature="0" />
      <path
         d="m 111.69212,1056.0399 c 1.21141,0.8974 2.57988,2.0415 4.10541,3.4324 1.52548,1.3461 3.02855,2.8043 4.50921,4.3746 1.52548,1.5704 2.96125,3.1856 4.30731,4.8457 1.34601,1.6153 2.42283,3.1184 3.23048,4.5093 l -6.59556,0 c -0.85252,-1.3909 -1.90691,-2.8043 -3.16319,-4.2401 -1.25632,-1.4806 -2.60235,-2.8939 -4.0381,-4.24 -1.39092,-1.346 -2.80425,-2.5798 -4.24001,-3.7016 -1.39091,-1.1216 -2.64721,-2.0639 -3.7689,-2.8266 l 0,15.0083 -5.58604,0 0,-31.228 5.58604,0 0,13.0565 c 2.46772,-2.1536 4.93545,-4.2849 7.40319,-6.3937 2.46771,-2.1536 4.68867,-4.3746 6.66288,-6.6628 l 6.52826,0 c -1.92934,2.2882 -4.26247,4.6438 -6.99938,7.0666 -2.69209,2.4229 -5.33929,4.756 -7.9416,6.9994"
         style="line-height:80.00000119%;fill:#00ffff"
         id="path3039"
         inkscape:connector-curvature="0" />
      <path
         d="m 145.14108,1046.6177 c -2e-5,1.346 -0.0449,2.7818 -0.13461,4.3073 -0.0449,1.4806 -0.15705,2.9837 -0.3365,4.5092 -0.13462,1.4807 -0.33653,2.9613 -0.60572,4.4419 -0.26922,1.4358 -0.62816,2.7818 -1.07683,4.0381 -0.89737,2.5575 -2.26583,4.756 -4.1054,6.5956 -1.83959,1.8396 -4.46436,2.9388 -7.8743,3.2978 l -0.80763,-4.7111 c 1.97419,-0.359 3.52212,-1.0769 4.64382,-2.1537 1.16656,-1.1217 2.08635,-2.4677 2.75937,-4.0381 0.58328,-1.346 1.00952,-2.8715 1.27874,-4.5765 0.31406,-1.705 0.5384,-3.4997 0.67301,-5.3842 0.1346,-1.8844 0.2019,-3.7688 0.20191,-5.6533 -10e-6,-1.8844 -10e-6,-3.6567 0,-5.3168 l 18.44067,0 0,31.228 -5.58604,0 0,-26.5842 -7.47049,0"
         style="line-height:80.00000119%;fill:#00ffff"
         id="path3041"
         inkscape:connector-curvature="0" />
      <path
         d="m 180.13798,1069.2311 c 1.39088,0 2.62474,-0.045 3.70159,-0.1346 1.12168,-0.09 2.04146,-0.2019 2.75937,-0.3366 l 0,-9.2876 c -0.71791,-0.2243 -1.59283,-0.4038 -2.62477,-0.5384 -0.98711,-0.1346 -2.0415,-0.2019 -3.16318,-0.2019 -1.03197,0 -2.0415,0.09 -3.02857,0.2692 -0.98711,0.1346 -1.86203,0.4038 -2.62477,0.8076 -0.76277,0.4038 -1.39091,0.9422 -1.88445,1.6153 -0.49356,0.6281 -0.74033,1.4357 -0.74032,2.4228 -1e-5,2.0191 0.67301,3.4324 2.01905,4.24 1.39089,0.7628 3.25291,1.1442 5.58605,1.1442 m -0.53842,-27.9976 c 2.33311,10e-5 4.28486,0.2917 5.85525,0.875 1.61522,0.5833 2.91639,1.3909 3.9035,2.4228 0.98707,1.032 1.68252,2.2883 2.08636,3.7689 0.40378,1.4807 0.60568,3.0959 0.60571,4.8457 l 0,19.5175 c -1.30119,0.2244 -3.0286,0.4936 -5.18223,0.8077 -2.10881,0.314 -4.2849,0.4711 -6.52827,0.4711 -1.70499,0 -3.3651,-0.1571 -4.98033,-0.4711 -1.61525,-0.2692 -3.05102,-0.7628 -4.30731,-1.4807 -1.2563,-0.7627 -2.26583,-1.7947 -3.02857,-3.0959 -0.76276,-1.3011 -1.14414,-2.9612 -1.14413,-4.9803 -1e-5,-1.7947 0.38137,-3.2978 1.14413,-4.5092 0.80761,-1.2563 1.81714,-2.2658 3.02857,-3.0286 1.25629,-0.7627 2.66963,-1.3011 4.24001,-1.6152 1.61523,-0.3589 3.23047,-0.5384 4.84573,-0.5384 2.1985,0 4.35215,0.2468 6.46096,0.7403 l 0,-1.548 c -2e-5,-0.9422 -0.11219,-1.8395 -0.33651,-2.692 -0.17949,-0.8974 -0.56087,-1.705 -1.14413,-2.4229 -0.53843,-0.7178 -1.30118,-1.2787 -2.28825,-1.6825 -0.94225,-0.4487 -2.17611,-0.673 -3.7016,-0.673 -1.92933,0 -3.61187,0.1346 -5.04763,0.4038 -1.43578,0.2692 -2.53504,0.5384 -3.29778,0.8076 l -0.67302,-4.5765 c 0.76274,-0.3589 2.01904,-0.673 3.7689,-0.9423 1.7947,-0.2691 3.70158,-0.4037 5.72064,-0.4038"
         style="line-height:80.00000119%;fill:#00ffff"
         id="path3043"
         inkscape:connector-curvature="0" />
      <path
         d="m 225.49934,1073.2019 -5.58604,0 0,-26.5842 -12.92193,0 0,26.5842 -5.58605,0 0,-31.228 24.09402,0 0,31.228"
         style="line-height:80.00000119%;fill:#00ffff"
         id="path3045"
         inkscape:connector-curvature="0" />
      <path
         d="m 247.4397,1069.2311 c 1.39089,0 2.62475,-0.045 3.7016,-0.1346 1.12167,-0.09 2.04146,-0.2019 2.75937,-0.3366 l 0,-9.2876 c -0.71791,-0.2243 -1.59283,-0.4038 -2.62477,-0.5384 -0.98711,-0.1346 -2.0415,-0.2019 -3.16318,-0.2019 -1.03198,0 -2.0415,0.09 -3.02858,0.2692 -0.9871,0.1346 -1.86202,0.4038 -2.62476,0.8076 -0.76277,0.4038 -1.39092,0.9422 -1.88445,1.6153 -0.49356,0.6281 -0.74033,1.4357 -0.74032,2.4228 -1e-5,2.0191 0.67301,3.4324 2.01905,4.24 1.39089,0.7628 3.2529,1.1442 5.58604,1.1442 m -0.53841,-27.9976 c 2.33311,10e-5 4.28486,0.2917 5.85525,0.875 1.61522,0.5833 2.91638,1.3909 3.9035,2.4228 0.98707,1.032 1.68252,2.2883 2.08635,3.7689 0.40379,1.4807 0.60569,3.0959 0.60572,4.8457 l 0,19.5175 c -1.30119,0.2244 -3.0286,0.4936 -5.18223,0.8077 -2.10881,0.314 -4.2849,0.4711 -6.52827,0.4711 -1.70499,0 -3.3651,-0.1571 -4.98033,-0.4711 -1.61525,-0.2692 -3.05102,-0.7628 -4.30731,-1.4807 -1.25631,-0.7627 -2.26583,-1.7947 -3.02858,-3.0959 -0.76275,-1.3011 -1.14413,-2.9612 -1.14413,-4.9803 0,-1.7947 0.38138,-3.2978 1.14413,-4.5092 0.80762,-1.2563 1.81714,-2.2658 3.02858,-3.0286 1.25629,-0.7627 2.66963,-1.3011 4.24001,-1.6152 1.61523,-0.3589 3.23047,-0.5384 4.84572,-0.5384 2.19851,0 4.35216,0.2468 6.46097,0.7403 l 0,-1.548 c -2e-5,-0.9422 -0.11219,-1.8395 -0.33651,-2.692 -0.17949,-0.8974 -0.56087,-1.705 -1.14413,-2.4229 -0.53843,-0.7178 -1.30119,-1.2787 -2.28826,-1.6825 -0.94224,-0.4487 -2.1761,-0.673 -3.70159,-0.673 -1.92933,0 -3.61187,0.1346 -5.04763,0.4038 -1.43578,0.2692 -2.53504,0.5384 -3.29779,0.8076 l -0.67301,-4.5765 c 0.76274,-0.3589 2.01904,-0.673 3.76889,-0.9423 1.7947,-0.2691 3.70158,-0.4037 5.72065,-0.4038"
         style="line-height:80.00000119%;fill:#00ffff"
         id="path3047"
         inkscape:connector-curvature="0" />
      <path
         d="m 292.53186,1068.4907 2.62477,0 0,13.3931 -5.24954,0 0,-8.6819 -21.20004,0 0,-31.228 5.58604,0 0,26.5168 12.72003,0 0,-26.5168 5.51874,0 0,26.5168"
         style="line-height:80.00000119%;fill:#00ffff"
         id="path3049"
         inkscape:connector-curvature="0" />
      <path
         d="m 311.64555,1037.1281 c -1.16657,1e-4 -2.1761,-0.4037 -3.02858,-1.2114 -0.85249,-0.8076 -1.27874,-1.9068 -1.27873,-3.2978 -10e-6,-1.3908 0.42624,-2.4901 1.27873,-3.2978 0.85248,-0.8075 1.86201,-1.2114 3.02858,-1.2114 1.21142,0 2.22094,0.4039 3.02858,1.2114 0.85247,0.8077 1.27871,1.907 1.27873,3.2978 -2e-5,1.391 -0.42626,2.4902 -1.27873,3.2978 -0.80764,0.8077 -1.81716,1.2115 -3.02858,1.2114 m -1.41333,9.4896 -9.01844,0 0,-4.6438 14.53718,0 0,19.1809 c -2e-5,3.0959 0.42622,5.1823 1.27873,6.2591 0.85247,1.032 2.1312,1.548 3.8362,1.5479 1.30114,10e-5 2.49014,-0.157 3.56699,-0.4711 1.12167,-0.314 1.99659,-0.6505 2.62477,-1.0095 l 0.80762,4.7111 c -0.26924,0.1346 -0.65062,0.3141 -1.14413,0.5384 -0.49358,0.1795 -1.07686,0.359 -1.74985,0.5385 -0.62817,0.1794 -1.34606,0.3365 -2.15365,0.4711 -0.76278,0.1346 -1.5704,0.2019 -2.42286,0.2019 -1.97421,0 -3.61188,-0.2692 -4.91303,-0.8076 -1.30118,-0.5385 -2.35558,-1.3461 -3.16318,-2.4229 -0.76277,-1.0768 -1.30118,-2.4004 -1.61524,-3.9708 -0.31409,-1.6152 -0.47113,-3.4773 -0.47111,-5.5861 l 0,-14.5371"
         style="line-height:80.00000119%;fill:#00ffff"
         id="path3051"
         inkscape:connector-curvature="0" />
      <path
         d="m 359.83359,1068.4907 2.62477,0 0,13.3931 -5.24954,0 0,-8.6819 -21.20004,0 0,-31.228 5.58604,0 0,26.5168 12.72003,0 0,-26.5168 5.51874,0 0,26.5168"
         style="line-height:80.00000119%;fill:#00ffff"
         id="path3053"
         inkscape:connector-curvature="0" />
      <path
         d="m 393.48445,1068.4907 2.62477,0 0,13.3931 -5.24954,0 0,-8.6819 -21.20004,0 0,-31.228 5.58604,0 0,26.5168 12.72003,0 0,-26.5168 5.51874,0 0,26.5168"
         style="line-height:80.00000119%;fill:#00ffff"
         id="path3055"
         inkscape:connector-curvature="0" />
      <path
         d="m 415.69404,1069.2311 c 1.39088,0 2.62474,-0.045 3.70159,-0.1346 1.12168,-0.09 2.04147,-0.2019 2.75937,-0.3366 l 0,-9.2876 c -0.7179,-0.2243 -1.59283,-0.4038 -2.62476,-0.5384 -0.98712,-0.1346 -2.04151,-0.2019 -3.16319,-0.2019 -1.03197,0 -2.0415,0.09 -3.02857,0.2692 -0.98711,0.1346 -1.86203,0.4038 -2.62477,0.8076 -0.76276,0.4038 -1.39091,0.9422 -1.88445,1.6153 -0.49355,0.6281 -0.74033,1.4357 -0.74032,2.4228 -10e-6,2.0191 0.67301,3.4324 2.01905,4.24 1.39089,0.7628 3.25291,1.1442 5.58605,1.1442 m -0.53842,-27.9976 c 2.33311,10e-5 4.28486,0.2917 5.85525,0.875 1.61522,0.5833 2.91639,1.3909 3.9035,2.4228 0.98707,1.032 1.68252,2.2883 2.08636,3.7689 0.40378,1.4807 0.60568,3.0959 0.60571,4.8457 l 0,19.5175 c -1.30119,0.2244 -3.0286,0.4936 -5.18223,0.8077 -2.10881,0.314 -4.2849,0.4711 -6.52827,0.4711 -1.70499,0 -3.3651,-0.1571 -4.98033,-0.4711 -1.61525,-0.2692 -3.05102,-0.7628 -4.30731,-1.4807 -1.2563,-0.7627 -2.26583,-1.7947 -3.02857,-3.0959 -0.76276,-1.3011 -1.14414,-2.9612 -1.14413,-4.9803 -1e-5,-1.7947 0.38137,-3.2978 1.14413,-4.5092 0.80761,-1.2563 1.81714,-2.2658 3.02857,-3.0286 1.25629,-0.7627 2.66963,-1.3011 4.24001,-1.6152 1.61523,-0.3589 3.23047,-0.5384 4.84573,-0.5384 2.1985,0 4.35215,0.2468 6.46096,0.7403 l 0,-1.548 c -2e-5,-0.9422 -0.11219,-1.8395 -0.33651,-2.692 -0.17949,-0.8974 -0.56087,-1.705 -1.14412,-2.4229 -0.53844,-0.7178 -1.30119,-1.2787 -2.28826,-1.6825 -0.94225,-0.4487 -2.17611,-0.673 -3.7016,-0.673 -1.92933,0 -3.61187,0.1346 -5.04763,0.4038 -1.43578,0.2692 -2.53504,0.5384 -3.29778,0.8076 l -0.67302,-4.5765 c 0.76274,-0.3589 2.01904,-0.673 3.7689,-0.9423 1.7947,-0.2691 3.70158,-0.4037 5.72064,-0.4038"
         style="line-height:80.00000119%;fill:#00ffff"
         id="path3057"
         inkscape:connector-curvature="0" />
    </g>
    <g
       style="font-style:normal;font-variant:normal;font-weight:normal;font-stretch:normal;font-size:14.02019882px;line-height:125%;font-family:Ubuntu;-inkscape-font-specification:Ubuntu;letter-spacing:0px;word-spacing:0px;fill:#666666;fill-opacity:1;stroke:none"
       id="text2995-3"
       transform="matrix(3.3530487,0,0,3.3530487,13.647365,-2710.8159)">
      <path
         d="m 342.53476,1091.2742 c 0.46299,0 0.85824,0.034 1.18573,0.1017 0.33878,0.068 0.57592,0.1298 0.71144,0.1863 l -0.28796,1.3551 c -0.13552,-0.068 -0.3275,-0.1298 -0.57593,-0.1863 -0.24845,-0.068 -0.55335,-0.1016 -0.91471,-0.1017 -0.73403,10e-5 -1.24785,0.2033 -1.54146,0.6099 -0.29361,0.3952 -0.44042,0.9316 -0.44041,1.6092 l 0,0.7622 3.38781,0 0,1.3213 -3.38781,0 0,7.487 -1.57534,0 0,-9.6044 c 0,-1.1293 0.27667,-1.9988 0.83002,-2.6086 0.55334,-0.6211 1.42288,-0.9317 2.60862,-0.9317"
         style="font-size:16.93907738px;fill:#666666"
         id="path3060"
         inkscape:connector-curvature="0" />
      <path
         d="m 348.62806,1103.284 c 0.37265,0 0.70014,-0.01 0.98247,-0.017 0.2936,-0.023 0.53639,-0.056 0.72838,-0.1016 l 0,-2.6256 c -0.11294,-0.056 -0.29927,-0.1016 -0.55899,-0.1355 -0.24845,-0.045 -0.55335,-0.068 -0.91471,-0.068 -0.23715,0 -0.49124,0.017 -0.76226,0.051 -0.25974,0.034 -0.50253,0.1073 -0.72838,0.2203 -0.21457,0.1016 -0.39525,0.2484 -0.54205,0.4404 -0.14681,0.1807 -0.22021,0.4234 -0.22021,0.7283 0,0.5647 0.18068,0.9599 0.54205,1.1858 0.36136,0.2145 0.8526,0.3218 1.4737,0.3218 m -0.13551,-7.8936 c 0.63238,0 1.16314,0.085 1.59227,0.2541 0.44041,0.1581 0.79048,0.3896 1.05022,0.6945 0.27102,0.2936 0.463,0.6493 0.57593,1.0672 0.11292,0.4065 0.16939,0.8582 0.16939,1.3551 l 0,5.5052 c -0.13552,0.023 -0.32749,0.057 -0.57593,0.1016 -0.23715,0.034 -0.50817,0.068 -0.81307,0.1017 -0.30491,0.034 -0.63805,0.062 -0.99941,0.085 -0.35008,0.034 -0.70015,0.051 -1.05022,0.051 -0.49688,0 -0.95424,-0.051 -1.37207,-0.1525 -0.41783,-0.1016 -0.77919,-0.2597 -1.0841,-0.4743 -0.3049,-0.2258 -0.54205,-0.5194 -0.71144,-0.8808 -0.16939,-0.3614 -0.25408,-0.7961 -0.25408,-1.3043 0,-0.4856 0.096,-0.9034 0.28796,-1.2535 0.20327,-0.3501 0.47429,-0.6324 0.81308,-0.847 0.33878,-0.2145 0.73402,-0.3726 1.18573,-0.4743 0.45171,-0.1016 0.926,-0.1524 1.42288,-0.1524 0.1581,0 0.32184,0.011 0.49124,0.034 0.16938,0.011 0.32748,0.034 0.47429,0.068 0.15809,0.023 0.29361,0.045 0.40654,0.068 0.11292,0.023 0.19197,0.04 0.23715,0.051 l 0,-0.4404 c -10e-6,-0.2597 -0.0282,-0.5138 -0.0847,-0.7623 -0.0565,-0.2597 -0.1581,-0.4855 -0.3049,-0.6775 -0.14681,-0.2033 -0.35008,-0.3614 -0.60981,-0.4743 -0.24844,-0.1242 -0.57593,-0.1863 -0.98247,-0.1864 -0.51946,10e-5 -0.97682,0.04 -1.37206,0.1186 -0.38396,0.068 -0.67192,0.1412 -0.86389,0.2202 l -0.18633,-1.3043 c 0.20326,-0.09 0.54204,-0.175 1.01634,-0.2541 0.47429,-0.09 0.98811,-0.1355 1.54146,-0.1355"
         style="font-size:16.93907738px;fill:#666666"
         id="path3062"
         inkscape:connector-curvature="0" />
      <path
         d="m 357.12274,1104.5883 c -0.97117,-0.022 -1.66003,-0.2315 -2.06657,-0.6267 -0.40653,-0.3953 -0.6098,-1.0107 -0.6098,-1.8464 l 0,-10.57 1.57533,-0.271 0,10.5869 c 0,0.2598 0.0226,0.4743 0.0678,0.6437 0.0452,0.1694 0.11857,0.3049 0.22021,0.4066 0.10163,0.1016 0.23714,0.1807 0.40653,0.2371 0.16939,0.045 0.37831,0.085 0.62675,0.1186 l -0.22021,1.3212"
         style="font-size:16.93907738px;fill:#666666"
         id="path3064"
         inkscape:connector-curvature="0" />
      <path
         d="m 362.0933,1103.284 c 0.37266,0 0.70015,-0.01 0.98247,-0.017 0.29361,-0.023 0.5364,-0.056 0.72838,-0.1016 l 0,-2.6256 c -0.11293,-0.056 -0.29926,-0.1016 -0.55899,-0.1355 -0.24844,-0.045 -0.55335,-0.068 -0.91471,-0.068 -0.23715,0 -0.49124,0.017 -0.76226,0.051 -0.25973,0.034 -0.50253,0.1073 -0.72838,0.2203 -0.21456,0.1016 -0.39524,0.2484 -0.54205,0.4404 -0.14681,0.1807 -0.22021,0.4234 -0.22021,0.7283 0,0.5647 0.18069,0.9599 0.54205,1.1858 0.36137,0.2145 0.8526,0.3218 1.4737,0.3218 m -0.13551,-7.8936 c 0.63239,0 1.16315,0.085 1.59228,0.2541 0.44041,0.1581 0.79048,0.3896 1.05022,0.6945 0.27102,0.2936 0.46299,0.6493 0.57593,1.0672 0.11292,0.4065 0.16938,0.8582 0.16939,1.3551 l 0,5.5052 c -0.13552,0.023 -0.3275,0.057 -0.57593,0.1016 -0.23716,0.034 -0.50818,0.068 -0.81308,0.1017 -0.30491,0.034 -0.63804,0.062 -0.9994,0.085 -0.35008,0.034 -0.70016,0.051 -1.05023,0.051 -0.49688,0 -0.95423,-0.051 -1.37206,-0.1525 -0.41783,-0.1016 -0.7792,-0.2597 -1.0841,-0.4743 -0.30491,-0.2258 -0.54205,-0.5194 -0.71144,-0.8808 -0.16939,-0.3614 -0.25409,-0.7961 -0.25409,-1.3043 0,-0.4856 0.096,-0.9034 0.28797,-1.2535 0.20326,-0.3501 0.47429,-0.6324 0.81307,-0.847 0.33878,-0.2145 0.73403,-0.3726 1.18574,-0.4743 0.4517,-0.1016 0.926,-0.1524 1.42288,-0.1524 0.15809,0 0.32184,0.011 0.49123,0.034 0.16939,0.011 0.32749,0.034 0.4743,0.068 0.15809,0.023 0.2936,0.045 0.40653,0.068 0.11293,0.023 0.19197,0.04 0.23715,0.051 l 0,-0.4404 c 0,-0.2597 -0.0282,-0.5138 -0.0847,-0.7623 -0.0565,-0.2597 -0.15811,-0.4855 -0.30491,-0.6775 -0.14681,-0.2033 -0.35008,-0.3614 -0.6098,-0.4743 -0.24845,-0.1242 -0.57594,-0.1863 -0.98247,-0.1864 -0.51947,10e-5 -0.97682,0.04 -1.37207,0.1186 -0.38395,0.068 -0.67191,0.1412 -0.86389,0.2202 l -0.18633,-1.3043 c 0.20327,-0.09 0.54205,-0.175 1.01635,-0.2541 0.47429,-0.09 0.98811,-0.1355 1.54145,-0.1355"
         style="font-size:16.93907738px;fill:#666666"
         id="path3066"
         inkscape:connector-curvature="0" />
      <path
         d="m 367.94549,1095.8647 c 0.36137,-0.09 0.84131,-0.1863 1.43982,-0.288 0.59851,-0.1016 1.28737,-0.1524 2.06657,-0.1524 0.70014,0 1.28172,0.1016 1.74472,0.3049 0.463,0.192 0.83001,0.4687 1.10104,0.83 0.28231,0.3501 0.47994,0.7736 0.59287,1.2704 0.11292,0.4969 0.16938,1.0446 0.16939,1.6431 l 0,4.9462 -1.57533,0 0,-4.6074 c -1e-5,-0.542 -0.0395,-1.005 -0.11857,-1.389 -0.0678,-0.3839 -0.18634,-0.6945 -0.35573,-0.9316 -0.16939,-0.2372 -0.39525,-0.4066 -0.67756,-0.5082 -0.28232,-0.1129 -0.6324,-0.1694 -1.05022,-0.1694 -0.1694,0 -0.34443,0.01 -0.52511,0.017 -0.18069,0.011 -0.35573,0.028 -0.52511,0.051 -0.15811,0.011 -0.30491,0.028 -0.44042,0.051 -0.12422,0.023 -0.21456,0.039 -0.27103,0.051 l 0,7.4362 -1.57533,0 0,-8.5542"
         style="font-size:16.93907738px;fill:#666666"
         id="path3068"
         inkscape:connector-curvature="0" />
      <path
         d="m 379.72186,1103.284 c 0.64368,0 1.11797,-0.085 1.42288,-0.2541 0.31619,-0.1693 0.47429,-0.4404 0.47429,-0.813 0,-0.384 -0.15246,-0.6889 -0.45735,-0.9147 -0.30491,-0.2259 -0.80744,-0.48 -1.50758,-0.7623 -0.33879,-0.1355 -0.66627,-0.271 -0.98247,-0.4065 -0.3049,-0.1468 -0.57028,-0.3162 -0.79613,-0.5082 -0.22586,-0.192 -0.40654,-0.4235 -0.54205,-0.6945 -0.13552,-0.271 -0.20327,-0.6042 -0.20327,-0.9994 0,-0.7792 0.28796,-1.3947 0.86389,-1.8464 0.57593,-0.463 1.36077,-0.6945 2.35453,-0.6945 0.24844,0 0.49688,0.017 0.74532,0.051 0.24844,0.023 0.47994,0.056 0.6945,0.1017 0.21456,0.034 0.40089,0.073 0.55899,0.1185 0.16939,0.045 0.29925,0.085 0.3896,0.1186 l -0.28796,1.3551 c -0.1694,-0.09 -0.43478,-0.1806 -0.79614,-0.271 -0.36137,-0.1016 -0.79614,-0.1524 -1.30431,-0.1524 -0.44042,0 -0.82437,0.09 -1.15186,0.271 -0.32749,0.1694 -0.49123,0.4404 -0.49123,0.8131 0,0.1919 0.0339,0.3613 0.10163,0.5081 0.079,0.1468 0.19198,0.2824 0.33879,0.4066 0.15809,0.1129 0.35007,0.2202 0.57593,0.3218 0.22585,0.1017 0.49687,0.2089 0.81307,0.3219 0.41783,0.1581 0.79049,0.3162 1.11798,0.4743 0.32748,0.1468 0.60415,0.3218 0.83001,0.5251 0.23715,0.2032 0.41783,0.4517 0.54206,0.7453 0.12421,0.2823 0.18632,0.6324 0.18633,1.0502 -1e-5,0.8131 -0.30491,1.4285 -0.91472,1.8464 -0.59851,0.4178 -1.45676,0.6267 -2.57473,0.6267 -0.77921,0 -1.38901,-0.068 -1.82943,-0.2033 -0.44041,-0.1242 -0.73967,-0.2202 -0.89777,-0.2879 l 0.28797,-1.3551 c 0.18068,0.068 0.46864,0.1693 0.86389,0.3049 0.39524,0.1355 0.92035,0.2032 1.57534,0.2032"
         style="font-size:16.93907738px;fill:#666666"
         id="path3070"
         inkscape:connector-curvature="0" />
      <path
         d="m 386.68911,1095.6106 3.337,0 0,1.3213 -3.337,0 0,4.0654 c 0,0.4404 0.0339,0.8074 0.10163,1.101 0.0678,0.2823 0.16939,0.5082 0.30491,0.6776 0.13551,0.1581 0.3049,0.271 0.50817,0.3387 0.20326,0.068 0.44041,0.1017 0.71144,0.1017 0.47429,0 0.8526,-0.051 1.13492,-0.1525 0.2936,-0.1129 0.49687,-0.192 0.60981,-0.2371 l 0.3049,1.3043 c -0.15811,0.079 -0.43478,0.175 -0.83002,0.2879 -0.39525,0.1243 -0.84695,0.1864 -1.35512,0.1864 -0.59852,0 -1.0954,-0.073 -1.49064,-0.2202 -0.38396,-0.1581 -0.69451,-0.3896 -0.93165,-0.6945 -0.23715,-0.3049 -0.40654,-0.6776 -0.50817,-1.118 -0.0904,-0.4517 -0.13552,-0.9712 -0.13552,-1.5584 l 0,-7.8597 1.57534,-0.2711 0,2.7272"
         style="font-size:16.93907738px;fill:#666666"
         id="path3072"
         inkscape:connector-curvature="0" />
      <path
         d="m 391.37409,1100.0317 c -1e-5,-0.7792 0.11292,-1.4567 0.33878,-2.0327 0.22585,-0.5872 0.52511,-1.0728 0.89777,-1.4567 0.37266,-0.384 0.80178,-0.6719 1.28737,-0.8639 0.48558,-0.192 0.98246,-0.288 1.49064,-0.288 1.18573,0 2.09479,0.3727 2.72719,1.118 0.63238,0.734 0.94858,1.8577 0.94859,3.3709 -1e-5,0.068 -1e-5,0.1581 0,0.271 -1e-5,0.1016 -0.006,0.1976 -0.0169,0.288 l -6.03031,0 c 0.0677,0.9147 0.33313,1.6092 0.79613,2.0835 0.463,0.4743 1.18573,0.7114 2.1682,0.7114 0.55334,0 1.01634,-0.045 1.38901,-0.1355 0.38394,-0.1016 0.67191,-0.1976 0.86389,-0.288 l 0.22021,1.3213 c -0.19198,0.1016 -0.53077,0.2089 -1.01634,0.3218 -0.47431,0.113 -1.01636,0.1694 -1.62616,0.1694 -0.76791,0 -1.43417,-0.1129 -1.99881,-0.3388 -0.55334,-0.2371 -1.0107,-0.559 -1.37206,-0.9655 -0.36137,-0.4065 -0.6324,-0.8865 -0.81308,-1.4398 -0.16939,-0.5646 -0.25409,-1.1801 -0.25408,-1.8464 m 6.04725,-0.8639 c 0.0113,-0.7114 -0.1694,-1.293 -0.54205,-1.7447 -0.36138,-0.463 -0.8639,-0.6945 -1.50758,-0.6945 -0.36137,0 -0.68322,0.073 -0.96553,0.2202 -0.27103,0.1355 -0.50253,0.3162 -0.6945,0.5421 -0.19198,0.2258 -0.34443,0.4856 -0.45736,0.7792 -0.10163,0.2936 -0.16939,0.5928 -0.20327,0.8977 l 4.37029,0"
         style="font-size:16.93907738px;fill:#666666"
         id="path3074"
         inkscape:connector-curvature="0" />
      <path
         d="m 404.57969,1095.4243 c 0.13551,0 0.28796,0.011 0.45735,0.034 0.18068,0.011 0.35572,0.034 0.52512,0.068 0.16938,0.023 0.32183,0.051 0.45735,0.085 0.1468,0.023 0.25408,0.045 0.32184,0.068 l -0.27102,1.372 c -0.12423,-0.045 -0.33314,-0.096 -0.62675,-0.1524 -0.28232,-0.068 -0.64933,-0.1016 -1.10104,-0.1016 -0.29361,0 -0.58722,0.034 -0.88083,0.1016 -0.28232,0.057 -0.46865,0.096 -0.55899,0.1186 l 0,7.4023 -1.57533,0 0,-8.4356 c 0.37265,-0.1355 0.83565,-0.2597 1.389,-0.3727 0.55334,-0.1242 1.17444,-0.1863 1.8633,-0.1863"
         style="font-size:16.93907738px;fill:#666666"
         id="path3076"
         inkscape:connector-curvature="0" />
      <path
         d="m 408.81498,1103.5042 c 0,0.3049 -0.10164,0.5703 -0.3049,0.7962 -0.20327,0.2258 -0.47994,0.3388 -0.83002,0.3388 -0.35007,0 -0.62674,-0.113 -0.83001,-0.3388 -0.20327,-0.2259 -0.3049,-0.4913 -0.3049,-0.7962 0,-0.3049 0.10163,-0.5702 0.3049,-0.7961 0.20327,-0.2259 0.47994,-0.3388 0.83001,-0.3388 0.35008,0 0.62675,0.1129 0.83002,0.3388 0.20326,0.2259 0.3049,0.4912 0.3049,0.7961"
         style="font-size:16.93907738px;fill:#666666"
         id="path3078"
         inkscape:connector-curvature="0" />
      <path
         d="m 412.69562,1096.0002 c 0.19197,-0.1242 0.47994,-0.2541 0.86389,-0.3896 0.39524,-0.1355 0.84695,-0.2032 1.35513,-0.2032 0.63239,0 1.19137,0.1129 1.67697,0.3387 0.49687,0.2259 0.9147,0.5421 1.25349,0.9486 0.33877,0.4066 0.59286,0.8922 0.76226,1.4568 0.18067,0.5646 0.27101,1.1857 0.27102,1.8633 -10e-6,0.7114 -0.10729,1.3551 -0.32184,1.931 -0.20328,0.5647 -0.49689,1.0446 -0.88083,1.4399 -0.38396,0.3952 -0.84696,0.7001 -1.38901,0.9147 -0.54205,0.2145 -1.15186,0.3218 -1.82942,0.3218 -0.73403,0 -1.38336,-0.051 -1.94799,-0.1524 -0.56464,-0.1017 -1.02764,-0.2033 -1.389,-0.3049 l 0,-12.6197 1.57533,-0.271 0,4.726 m 0,7.0467 c 0.15809,0.045 0.3783,0.09 0.66062,0.1355 0.29361,0.034 0.65498,0.051 1.0841,0.051 0.84695,0 1.52452,-0.2767 2.03269,-0.83 0.50817,-0.5646 0.76226,-1.3608 0.76226,-2.3884 0,-0.4517 -0.0452,-0.8752 -0.13551,-1.2704 -0.0904,-0.3953 -0.23715,-0.7341 -0.44042,-1.0164 -0.20327,-0.2936 -0.46865,-0.5194 -0.79613,-0.6776 -0.3162,-0.1693 -0.70016,-0.254 -1.15186,-0.254 -0.42913,0 -0.82437,0.073 -1.18574,0.2202 -0.36137,0.1468 -0.63804,0.2992 -0.83001,0.4573 l 0,5.573"
         style="font-size:16.93907738px;fill:#666666"
         id="path3080"
         inkscape:connector-curvature="0" />
      <path
         d="m 419.84682,1106.062 c 0.12422,0.057 0.28232,0.1073 0.4743,0.1525 0.20326,0.056 0.40089,0.085 0.59286,0.085 0.6211,0 1.10669,-0.1412 1.45676,-0.4235 0.35007,-0.271 0.66627,-0.7171 0.94859,-1.3382 -0.71144,-1.3551 -1.37771,-2.7893 -1.99881,-4.3025 -0.60981,-1.5245 -1.11798,-3.066 -1.52452,-4.6244 l 1.69391,0 c 0.12422,0.5082 0.27102,1.0559 0.44042,1.6431 0.18068,0.5872 0.3783,1.1914 0.59287,1.8125 0.21455,0.6211 0.44605,1.2422 0.6945,1.8633 0.24843,0.6211 0.50817,1.2196 0.7792,1.7955 0.42911,-1.1857 0.80177,-2.3601 1.11797,-3.5233 0.31619,-1.1631 0.61545,-2.3602 0.89778,-3.5911 l 1.62615,0 c -0.40655,1.6601 -0.85826,3.258 -1.35513,4.7938 -0.49689,1.5245 -1.03329,2.953 -1.60921,4.2856 -0.22586,0.5081 -0.46301,0.9429 -0.71144,1.3043 -0.23715,0.3726 -0.50253,0.6775 -0.79614,0.9147 -0.29361,0.2371 -0.62675,0.4122 -0.99941,0.5251 -0.36136,0.1129 -0.77355,0.1694 -1.23655,0.1694 -0.12422,0 -0.25409,-0.011 -0.3896,-0.034 -0.13551,-0.011 -0.27102,-0.034 -0.40653,-0.068 -0.12422,-0.023 -0.2428,-0.051 -0.35573,-0.085 -0.10163,-0.034 -0.17503,-0.062 -0.2202,-0.085 l 0.28796,-1.2705"
         style="font-size:16.93907738px;fill:#666666"
         id="path3082"
         inkscape:connector-curvature="0" />
    </g>
    <g
       style="font-style:normal;font-variant:normal;font-weight:normal;font-stretch:normal;font-size:28.23179626px;line-height:125%;font-family:'Ubuntu Mono';-inkscape-font-specification:'Ubuntu Mono';letter-spacing:0px;word-spacing:0px;fill:#e6e6e6;fill-opacity:1;stroke:none"
       id="text3044"
       transform="matrix(3.853211,0,0,3.853211,-200.24146,-3260.7976)">
      <path
         d="m 104.02245,1102.2274 c 0,-0.3294 -0.13834,-0.5995 -0.41501,-0.8103 -0.2635,-0.2108 -0.59946,-0.3952 -1.00787,-0.5533 -0.39525,-0.1581 -0.83002,-0.3096 -1.30431,-0.4546 -0.4743,-0.1581 -0.91565,-0.3491 -1.324071,-0.5731 -0.395248,-0.2239 -0.731206,-0.5006 -1.007875,-0.83 -0.263498,-0.3294 -0.395247,-0.7575 -0.395245,-1.2845 -2e-6,-0.7378 0.296432,-1.3505 0.889301,-1.8379 0.60604,-0.5007 1.54804,-0.751 2.826,-0.751 0.50064,0 1.01446,0.039 1.54146,0.1186 0.54016,0.066 1.00128,0.1581 1.38336,0.2766 l -0.29644,1.4625 c -0.1054,-0.053 -0.25033,-0.1054 -0.43477,-0.1581 -0.18445,-0.066 -0.39525,-0.1186 -0.63239,-0.1581 -0.23715,-0.053 -0.49406,-0.092 -0.77073,-0.1186 -0.2635,-0.026 -0.52041,-0.039 -0.77072,-0.039 -1.42289,0 -2.13433,0.3886 -2.13433,1.1659 0,0.2767 0.13175,0.5139 0.39525,0.7115 0.27666,0.1844 0.61921,0.3557 1.02763,0.5138 0.40842,0.1581 0.84978,0.3228 1.32408,0.4941 0.47428,0.1581 0.91564,0.3557 1.32407,0.5928 0.40841,0.2372 0.74437,0.527 1.00787,0.8696 0.27667,0.3293 0.415,0.7509 0.41501,1.2647 -10e-6,0.8301 -0.32279,1.4756 -0.96835,1.9367 -0.64558,0.448 -1.66662,0.672 -3.06315,0.672 -0.6324,0 -1.21209,-0.053 -1.73908,-0.1581 -0.526996,-0.1054 -1.027639,-0.2635 -1.501932,-0.4743 l 0.316197,-1.4822 c 0.461117,0.2108 0.941998,0.3887 1.442645,0.5336 0.51381,0.1317 1.06057,0.1976 1.64027,0.1976 1.48875,0 2.23313,-0.3755 2.23313,-1.1264"
         style="font-size:19.76225853px;fill:#e6e6e6"
         id="path3085"
         inkscape:connector-curvature="0" />
      <path
         d="m 108.37015,1104.5198 0,-13.4186 1.64027,-0.2767 0,4.6639 c 0.26349,-0.1054 0.55992,-0.1844 0.8893,-0.2371 0.32936,-0.066 0.65215,-0.099 0.96835,-0.099 0.69826,0 1.27795,0.1054 1.73908,0.3162 0.47428,0.1976 0.84977,0.4809 1.12645,0.8497 0.27666,0.3689 0.47428,0.8103 0.59286,1.3241 0.11857,0.5138 0.17786,1.0804 0.17786,1.6996 l 0,5.1777 -1.6205,0 0,-4.822 c -1e-5,-1.133 -0.15811,-1.9301 -0.4743,-2.3912 -0.3162,-0.4743 -0.88271,-0.7115 -1.69955,-0.7115 -0.34255,0 -0.67851,0.04 -1.00787,0.1186 -0.3162,0.066 -0.54676,0.1317 -0.69168,0.1976 l 0,7.6085 -1.64027,0"
         style="font-size:19.76225853px;fill:#e6e6e6"
         id="path3087"
         inkscape:connector-curvature="0" />
      <path
         d="m 121.88753,1103.3538 c 0.40842,0 0.77073,-0.013 1.08693,-0.04 0.32936,-0.026 0.59945,-0.059 0.81025,-0.099 l 0,-2.7272 c -0.2108,-0.066 -0.46771,-0.1186 -0.77073,-0.1581 -0.28985,-0.04 -0.59946,-0.059 -0.92882,-0.059 -0.30303,0 -0.59946,0.026 -0.88931,0.079 -0.28985,0.04 -0.54675,0.1186 -0.77072,0.2372 -0.22398,0.1186 -0.40843,0.2767 -0.55335,0.4743 -0.14492,0.1844 -0.21738,0.4216 -0.21738,0.7114 0,0.5929 0.19762,1.0079 0.59287,1.245 0.40841,0.224 0.95517,0.336 1.64026,0.336 m -0.15809,-8.2211 c 0.68508,0 1.25819,0.086 1.71931,0.2569 0.47429,0.1713 0.85636,0.4084 1.14621,0.7115 0.28984,0.303 0.49405,0.6719 0.61263,1.1066 0.11857,0.4348 0.17786,0.9091 0.17786,1.4229 l 0,5.7311 c -0.38207,0.066 -0.88931,0.1449 -1.52169,0.2371 -0.61922,0.092 -1.2582,0.1384 -1.91694,0.1384 -0.50065,0 -0.98812,-0.046 -1.46241,-0.1384 -0.47429,-0.079 -0.89589,-0.2239 -1.26478,-0.4347 -0.3689,-0.224 -0.66533,-0.527 -0.8893,-0.9091 -0.22398,-0.3821 -0.33596,-0.8695 -0.33596,-1.4624 0,-0.527 0.11198,-0.9684 0.33596,-1.3241 0.23714,-0.3689 0.53358,-0.6653 0.8893,-0.8893 0.36889,-0.224 0.7839,-0.3821 1.24502,-0.4743 0.47429,-0.1054 0.94859,-0.1581 1.42288,-0.1581 0.64557,0 1.27796,0.072 1.89718,0.2174 l 0,-0.4545 c -1e-5,-0.2767 -0.0329,-0.5402 -0.0988,-0.7905 -0.0527,-0.2635 -0.16469,-0.5007 -0.33596,-0.7115 -0.1581,-0.2108 -0.38208,-0.3754 -0.67192,-0.494 -0.27667,-0.1318 -0.63898,-0.1976 -1.08692,-0.1976 -0.56652,0 -1.06058,0.039 -1.48217,0.1185 -0.4216,0.079 -0.74438,0.1581 -0.96835,0.2372 l -0.19762,-1.3439 c 0.22397,-0.1053 0.59286,-0.1976 1.10668,-0.2766 0.52699,-0.079 1.08692,-0.1186 1.6798,-0.1186"
         style="font-size:19.76225853px;fill:#e6e6e6"
         id="path3089"
         inkscape:connector-curvature="0" />
      <path
         d="m 128.84385,1104.5198 0,-8.6757 c 1.34383,-0.4611 2.70084,-0.6916 4.07102,-0.6916 0.42159,0 0.82342,0.02 1.2055,0.059 0.38206,0.026 0.80366,0.092 1.26479,0.1976 l -0.29644,1.4426 c -0.4216,-0.1185 -0.79708,-0.191 -1.12645,-0.2174 -0.3162,-0.04 -0.66533,-0.059 -1.0474,-0.059 -0.80367,10e-5 -1.62051,0.112 -2.45052,0.336 l 0,7.6085 -1.6205,0"
         style="font-size:19.76225853px;fill:#e6e6e6"
         id="path3091"
         inkscape:connector-curvature="0" />
      <path
         d="m 140.74073,1093.9272 c -0.34255,0 -0.63898,-0.1186 -0.8893,-0.3557 -0.25033,-0.2372 -0.37549,-0.5599 -0.37549,-0.9684 0,-0.4084 0.12516,-0.7312 0.37549,-0.9683 0.25032,-0.2372 0.54675,-0.3557 0.8893,-0.3557 0.35571,0 0.65215,0.1185 0.8893,0.3557 0.25032,0.2371 0.37548,0.5599 0.37548,0.9683 0,0.4085 -0.12516,0.7312 -0.37548,0.9684 -0.23715,0.2371 -0.53359,0.3557 -0.8893,0.3557 m -0.41501,2.7865 -2.64814,0 0,-1.3636 4.26865,0 0,5.6322 c -1e-5,0.9091 0.12515,1.5217 0.37548,1.8379 0.25032,0.303 0.6258,0.4546 1.12645,0.4546 0.38206,0 0.73119,-0.046 1.0474,-0.1384 0.32936,-0.092 0.58627,-0.191 0.77073,-0.2964 l 0.23714,1.3833 c -0.0791,0.04 -0.19104,0.092 -0.33596,0.1581 -0.14493,0.053 -0.3162,0.1054 -0.51381,0.1581 -0.18446,0.053 -0.39526,0.099 -0.6324,0.1384 -0.22398,0.04 -0.46112,0.059 -0.71144,0.059 -0.5797,0 -1.06058,-0.079 -1.44264,-0.2372 -0.38208,-0.1581 -0.69169,-0.3952 -0.92883,-0.7114 -0.22398,-0.3162 -0.38207,-0.7049 -0.47429,-1.166 -0.0922,-0.4743 -0.13834,-1.021 -0.13834,-1.6403 l 0,-4.2686"
         style="font-size:19.76225853px;fill:#e6e6e6"
         id="path3093"
         inkscape:connector-curvature="0" />
      <path
         d="m 147.89467,1095.607 c 0.59286,-0.1449 1.17914,-0.2569 1.75884,-0.336 0.59286,-0.079 1.1462,-0.1185 1.66003,-0.1185 1.22525,0 2.14749,0.3162 2.76671,0.9486 0.63239,0.6324 0.94858,1.6468 0.94859,3.0433 l 0,5.3754 -1.6205,0 0,-5.0789 c -1e-5,-0.5929 -0.0527,-1.0738 -0.1581,-1.4427 -0.10541,-0.3689 -0.25692,-0.6521 -0.45453,-0.8497 -0.18446,-0.2108 -0.41502,-0.3558 -0.69168,-0.4348 -0.2635,-0.079 -0.55335,-0.1186 -0.86954,-0.1186 -0.2635,0 -0.54676,0.02 -0.84978,0.059 -0.28985,0.026 -0.57311,0.066 -0.84978,0.1186 l 0,7.7468 -1.64026,0 0,-8.9128"
         style="font-size:19.76225853px;fill:#e6e6e6"
         id="path3095"
         inkscape:connector-curvature="0" />
      <path
         d="m 163.21041,1103.67 c -0.18445,0.1054 -0.46771,0.2174 -0.84977,0.336 -0.38208,0.1185 -0.82344,0.1778 -1.32407,0.1778 -0.54018,0 -1.04741,-0.086 -1.5217,-0.2569 -0.46112,-0.1844 -0.86954,-0.4545 -1.22526,-0.8102 -0.34255,-0.3689 -0.61922,-0.8301 -0.83001,-1.3834 -0.19763,-0.5665 -0.29644,-1.2318 -0.29644,-1.996 0,-0.6719 0.0922,-1.2845 0.27667,-1.8379 0.19763,-0.5665 0.4743,-1.054 0.83002,-1.4624 0.36889,-0.4084 0.81684,-0.7246 1.34383,-0.9486 0.52699,-0.2371 1.12645,-0.3557 1.79837,-0.3557 0.79048,0 1.4624,0.059 2.01575,0.1779 0.56651,0.1054 1.0408,0.2108 1.42288,0.3162 l 0,8.1815 c -1e-5,1.4229 -0.36231,2.4506 -1.08692,3.0829 -0.71145,0.6324 -1.79179,0.9486 -3.24101,0.9486 -0.59287,0 -1.13304,-0.046 -1.62051,-0.1383 -0.47429,-0.092 -0.89589,-0.2042 -1.26478,-0.336 l 0.29643,-1.4426 c 0.34255,0.1449 0.7312,0.2635 1.16597,0.3557 0.44795,0.092 0.93541,0.1384 1.46241,0.1384 0.94859,0 1.62709,-0.1911 2.03551,-0.5732 0.40842,-0.382 0.61263,-1.0012 0.61263,-1.8576 l 0,-0.3162 m 0,-6.8773 c -0.1581,-0.053 -0.37548,-0.099 -0.65215,-0.1383 -0.27668,-0.053 -0.65216,-0.079 -1.12645,-0.079 -0.84319,10e-5 -1.48876,0.2899 -1.9367,0.8696 -0.43477,0.5797 -0.65216,1.3504 -0.65215,2.3122 -1e-5,0.527 0.0593,0.9815 0.17786,1.3636 0.13174,0.3689 0.30301,0.6785 0.51381,0.9288 0.22397,0.2371 0.47429,0.415 0.75097,0.5336 0.27667,0.1054 0.5731,0.1581 0.8893,0.1581 0.40842,0 0.79049,-0.059 1.14621,-0.1779 0.36889,-0.1186 0.66533,-0.2569 0.8893,-0.415 l 0,-5.3556"
         style="font-size:19.76225853px;fill:#e6e6e6"
         id="path3097"
         inkscape:connector-curvature="0" />
      <path
         d="m 180.26525,1093.9272 c -0.34255,0 -0.63899,-0.1186 -0.88931,-0.3557 -0.25032,-0.2372 -0.37548,-0.5599 -0.37548,-0.9684 0,-0.4084 0.12516,-0.7312 0.37548,-0.9683 0.25032,-0.2372 0.54676,-0.3557 0.88931,-0.3557 0.35571,0 0.65215,0.1185 0.8893,0.3557 0.25031,0.2371 0.37547,0.5599 0.37548,0.9683 -1e-5,0.4085 -0.12517,0.7312 -0.37548,0.9684 -0.23715,0.2371 -0.53359,0.3557 -0.8893,0.3557 m -0.41501,2.7865 -2.64814,0 0,-1.3636 4.26864,0 0,5.6322 c 0,0.9091 0.12516,1.5217 0.37549,1.8379 0.25031,0.303 0.62579,0.4546 1.12644,0.4546 0.38207,0 0.7312,-0.046 1.0474,-0.1384 0.32937,-0.092 0.58628,-0.191 0.77073,-0.2964 l 0.23715,1.3833 c -0.0791,0.04 -0.19104,0.092 -0.33596,0.1581 -0.14493,0.053 -0.3162,0.1054 -0.51382,0.1581 -0.18445,0.053 -0.39525,0.099 -0.63239,0.1384 -0.22398,0.04 -0.46113,0.059 -0.71144,0.059 -0.5797,0 -1.06058,-0.079 -1.44265,-0.2372 -0.38207,-0.1581 -0.69168,-0.3952 -0.92882,-0.7114 -0.22398,-0.3162 -0.38208,-0.7049 -0.4743,-1.166 -0.0922,-0.4743 -0.13834,-1.021 -0.13833,-1.6403 l 0,-4.2686"
         style="font-size:19.76225853px;fill:#e6e6e6"
         id="path3099"
         inkscape:connector-curvature="0" />
      <path
         d="m 192.95261,1102.2274 c 0,-0.3294 -0.13834,-0.5995 -0.415,-0.8103 -0.26351,-0.2108 -0.59947,-0.3952 -1.00788,-0.5533 -0.39525,-0.1581 -0.83002,-0.3096 -1.30431,-0.4546 -0.4743,-0.1581 -0.91565,-0.3491 -1.32407,-0.5731 -0.39525,-0.2239 -0.73121,-0.5006 -1.00788,-0.83 -0.26349,-0.3294 -0.39524,-0.7575 -0.39524,-1.2845 0,-0.7378 0.29643,-1.3505 0.8893,-1.8379 0.60604,-0.5007 1.54804,-0.751 2.826,-0.751 0.50064,0 1.01446,0.039 1.54146,0.1186 0.54016,0.066 1.00128,0.1581 1.38336,0.2766 l -0.29644,1.4625 c -0.1054,-0.053 -0.25033,-0.1054 -0.43477,-0.1581 -0.18445,-0.066 -0.39525,-0.1186 -0.63239,-0.1581 -0.23715,-0.053 -0.49406,-0.092 -0.77073,-0.1186 -0.2635,-0.026 -0.52041,-0.039 -0.77072,-0.039 -1.42289,0 -2.13433,0.3886 -2.13433,1.1659 0,0.2767 0.13175,0.5139 0.39525,0.7115 0.27667,0.1844 0.61921,0.3557 1.02763,0.5138 0.40842,0.1581 0.84978,0.3228 1.32408,0.4941 0.47428,0.1581 0.91564,0.3557 1.32407,0.5928 0.40841,0.2372 0.74437,0.527 1.00787,0.8696 0.27667,0.3293 0.415,0.7509 0.41501,1.2647 -1e-5,0.8301 -0.32279,1.4756 -0.96835,1.9367 -0.64557,0.448 -1.66662,0.672 -3.06315,0.672 -0.6324,0 -1.21209,-0.053 -1.73908,-0.1581 -0.527,-0.1054 -1.02764,-0.2635 -1.50193,-0.4743 l 0.3162,-1.4822 c 0.46111,0.2108 0.94199,0.3887 1.44264,0.5336 0.51382,0.1317 1.06057,0.1976 1.64027,0.1976 1.48875,0 2.23313,-0.3755 2.23313,-1.1264"
         style="font-size:19.76225853px;fill:#e6e6e6"
         id="path3101"
         inkscape:connector-curvature="0" />
      <path
         d="m 206.74667,1099.9547 c 0,-0.83 0.13175,-1.548 0.39525,-2.1541 0.26349,-0.606 0.6258,-1.1067 1.08692,-1.5019 0.46112,-0.3953 0.9947,-0.6851 1.60074,-0.8696 0.61922,-0.1976 1.27796,-0.2964 1.97623,-0.2964 0.44794,0 0.88929,0.033 1.32407,0.099 0.44794,0.053 0.92223,0.1581 1.42288,0.3162 l -0.37548,1.4031 c -0.43478,-0.1581 -0.83661,-0.2569 -1.2055,-0.2964 -0.35573,-0.053 -0.71803,-0.079 -1.08692,-0.079 -0.4743,1e-4 -0.92225,0.066 -1.34384,0.1977 -0.42159,0.1186 -0.79049,0.3162 -1.10668,0.5928 -0.30303,0.2635 -0.54676,0.6127 -0.73121,1.0474 -0.18445,0.4216 -0.27667,0.9355 -0.27667,1.5415 0,0.5797 0.0856,1.0803 0.25691,1.5019 0.17127,0.4084 0.40842,0.751 0.71144,1.0277 0.3162,0.2635 0.69168,0.4611 1.12645,0.5928 0.43477,0.1318 0.91565,0.1977 1.44265,0.1977 0.42159,0 0.82342,-0.02 1.2055,-0.059 0.39523,-0.053 0.82341,-0.1581 1.28454,-0.3162 l 0.23715,1.3636 c -0.46113,0.1712 -0.92884,0.2898 -1.40312,0.3557 -0.4743,0.079 -0.98812,0.1186 -1.54146,0.1186 -0.73779,0 -1.4163,-0.099 -2.03551,-0.2965 -0.60605,-0.2108 -1.13304,-0.5138 -1.58098,-0.909 -0.43477,-0.3953 -0.77732,-0.8893 -1.02764,-1.4822 -0.23715,-0.606 -0.35572,-1.3043 -0.35572,-2.0948"
         style="font-size:19.76225853px;fill:#e6e6e6"
         id="path3103"
         inkscape:connector-curvature="0" />
      <path
         d="m 220.69882,1103.3538 c 0.40842,0 0.77072,-0.013 1.08693,-0.04 0.32936,-0.026 0.59945,-0.059 0.81025,-0.099 l 0,-2.7272 c -0.2108,-0.066 -0.46771,-0.1186 -0.77073,-0.1581 -0.28985,-0.04 -0.59946,-0.059 -0.92882,-0.059 -0.30303,0 -0.59946,0.026 -0.88931,0.079 -0.28985,0.04 -0.54676,0.1186 -0.77072,0.2372 -0.22398,0.1186 -0.40843,0.2767 -0.55335,0.4743 -0.14492,0.1844 -0.21739,0.4216 -0.21738,0.7114 -1e-5,0.5929 0.19762,1.0079 0.59287,1.245 0.40841,0.224 0.95517,0.336 1.64026,0.336 m -0.1581,-8.2211 c 0.68509,0 1.2582,0.086 1.71932,0.2569 0.47429,0.1713 0.85636,0.4084 1.14621,0.7115 0.28984,0.303 0.49405,0.6719 0.61263,1.1066 0.11857,0.4348 0.17785,0.9091 0.17786,1.4229 l 0,5.7311 c -0.38208,0.066 -0.88931,0.1449 -1.52169,0.2371 -0.61923,0.092 -1.2582,0.1384 -1.91694,0.1384 -0.50065,0 -0.98812,-0.046 -1.46241,-0.1384 -0.4743,-0.079 -0.89589,-0.2239 -1.26478,-0.4347 -0.3689,-0.224 -0.66533,-0.527 -0.8893,-0.9091 -0.22398,-0.3821 -0.33596,-0.8695 -0.33596,-1.4624 0,-0.527 0.11198,-0.9684 0.33596,-1.3241 0.23714,-0.3689 0.53358,-0.6653 0.8893,-0.8893 0.36889,-0.224 0.7839,-0.3821 1.24502,-0.4743 0.47429,-0.1054 0.94858,-0.1581 1.42288,-0.1581 0.64556,0 1.27796,0.072 1.89718,0.2174 l 0,-0.4545 c -1e-5,-0.2767 -0.0329,-0.5402 -0.0988,-0.7905 -0.0527,-0.2635 -0.16469,-0.5007 -0.33596,-0.7115 -0.1581,-0.2108 -0.38208,-0.3754 -0.67192,-0.494 -0.27667,-0.1318 -0.63898,-0.1976 -1.08692,-0.1976 -0.56652,0 -1.06058,0.039 -1.48217,0.1185 -0.4216,0.079 -0.74438,0.1581 -0.96835,0.2372 l -0.19762,-1.3439 c 0.22397,-0.1053 0.59286,-0.1976 1.10668,-0.2766 0.52699,-0.079 1.08692,-0.1186 1.67979,-0.1186"
         style="font-size:19.76225853px;fill:#e6e6e6"
         id="path3105"
         inkscape:connector-curvature="0" />
      <path
         d="m 227.65514,1104.5198 0,-8.6757 c 1.34383,-0.4611 2.70084,-0.6916 4.07103,-0.6916 0.42159,0 0.82342,0.02 1.2055,0.059 0.38206,0.026 0.80365,0.092 1.26478,0.1976 l -0.29643,1.4426 c -0.42161,-0.1185 -0.79709,-0.191 -1.12645,-0.2174 -0.31621,-0.04 -0.66534,-0.059 -1.0474,-0.059 -0.80367,10e-5 -1.62051,0.112 -2.45052,0.336 l 0,7.6085 -1.62051,0"
         style="font-size:19.76225853px;fill:#e6e6e6"
         id="path3107"
         inkscape:connector-curvature="0" />
      <path
         d="m 239.55203,1093.9272 c -0.34255,0 -0.63899,-0.1186 -0.8893,-0.3557 -0.25033,-0.2372 -0.37549,-0.5599 -0.37549,-0.9684 0,-0.4084 0.12516,-0.7312 0.37549,-0.9683 0.25031,-0.2372 0.54675,-0.3557 0.8893,-0.3557 0.35571,0 0.65215,0.1185 0.8893,0.3557 0.25032,0.2371 0.37548,0.5599 0.37548,0.9683 0,0.4085 -0.12516,0.7312 -0.37548,0.9684 -0.23715,0.2371 -0.53359,0.3557 -0.8893,0.3557 m -0.41501,2.7865 -2.64814,0 0,-1.3636 4.26864,0 0,5.6322 c 0,0.9091 0.12516,1.5217 0.37549,1.8379 0.25031,0.303 0.6258,0.4546 1.12645,0.4546 0.38206,0 0.73119,-0.046 1.0474,-0.1384 0.32936,-0.092 0.58627,-0.191 0.77072,-0.2964 l 0.23715,1.3833 c -0.0791,0.04 -0.19104,0.092 -0.33596,0.1581 -0.14493,0.053 -0.3162,0.1054 -0.51382,0.1581 -0.18445,0.053 -0.39525,0.099 -0.63239,0.1384 -0.22398,0.04 -0.46112,0.059 -0.71144,0.059 -0.5797,0 -1.06058,-0.079 -1.44264,-0.2372 -0.38208,-0.1581 -0.69169,-0.3952 -0.92883,-0.7114 -0.22398,-0.3162 -0.38207,-0.7049 -0.47429,-1.166 -0.0922,-0.4743 -0.13834,-1.021 -0.13834,-1.6403 l 0,-4.2686"
         style="font-size:19.76225853px;fill:#e6e6e6"
         id="path3109"
         inkscape:connector-curvature="0" />
      <path
         d="m 246.70595,1095.607 c 0.59287,-0.1449 1.17915,-0.2569 1.75884,-0.336 0.59287,-0.079 1.14621,-0.1185 1.66003,-0.1185 1.22526,0 2.1475,0.3162 2.76672,0.9486 0.63238,0.6324 0.94858,1.6468 0.94859,3.0433 l 0,5.3754 -1.62051,0 0,-5.0789 c 0,-0.5929 -0.0527,-1.0738 -0.15809,-1.4427 -0.10541,-0.3689 -0.25692,-0.6521 -0.45454,-0.8497 -0.18445,-0.2108 -0.41501,-0.3558 -0.69168,-0.4348 -0.2635,-0.079 -0.55334,-0.1186 -0.86953,-0.1186 -0.26351,0 -0.54676,0.02 -0.84978,0.059 -0.28985,0.026 -0.57311,0.066 -0.84978,0.1186 l 0,7.7468 -1.64027,0 0,-8.9128"
         style="font-size:19.76225853px;fill:#e6e6e6"
         id="path3111"
         inkscape:connector-curvature="0" />
      <path
         d="m 262.02171,1103.67 c -0.18446,0.1054 -0.46771,0.2174 -0.84978,0.336 -0.38207,0.1185 -0.82343,0.1778 -1.32407,0.1778 -0.54017,0 -1.0474,-0.086 -1.52169,-0.2569 -0.46113,-0.1844 -0.86954,-0.4545 -1.22526,-0.8102 -0.34255,-0.3689 -0.61922,-0.8301 -0.83002,-1.3834 -0.19762,-0.5665 -0.29643,-1.2318 -0.29643,-1.996 0,-0.6719 0.0922,-1.2845 0.27667,-1.8379 0.19762,-0.5665 0.47429,-1.054 0.83001,-1.4624 0.3689,-0.4084 0.81684,-0.7246 1.34384,-0.9486 0.52699,-0.2371 1.12644,-0.3557 1.79836,-0.3557 0.79049,0 1.4624,0.059 2.01575,0.1779 0.56651,0.1054 1.04081,0.2108 1.42289,0.3162 l 0,8.1815 c -1e-5,1.4229 -0.36232,2.4506 -1.08693,3.0829 -0.71145,0.6324 -1.79178,0.9486 -3.24101,0.9486 -0.59287,0 -1.13304,-0.046 -1.6205,-0.1383 -0.4743,-0.092 -0.89589,-0.2042 -1.26479,-0.336 l 0.29644,-1.4426 c 0.34254,0.1449 0.7312,0.2635 1.16597,0.3557 0.44794,0.092 0.93541,0.1384 1.46241,0.1384 0.94858,0 1.62708,-0.1911 2.03551,-0.5732 0.40841,-0.382 0.61262,-1.0012 0.61263,-1.8576 l 0,-0.3162 m 0,-6.8773 c -0.15811,-0.053 -0.37549,-0.099 -0.65216,-0.1383 -0.27667,-0.053 -0.65216,-0.079 -1.12644,-0.079 -0.8432,10e-5 -1.48876,0.2899 -1.93671,0.8696 -0.43477,0.5797 -0.65215,1.3504 -0.65215,2.3122 0,0.527 0.0593,0.9815 0.17786,1.3636 0.13175,0.3689 0.30302,0.6785 0.51382,0.9288 0.22397,0.2371 0.47429,0.415 0.75096,0.5336 0.27667,0.1054 0.57311,0.1581 0.88931,0.1581 0.40841,0 0.79048,-0.059 1.14621,-0.1779 0.36889,-0.1186 0.66532,-0.2569 0.8893,-0.415 l 0,-5.3556"
         style="font-size:19.76225853px;fill:#e6e6e6"
         id="path3113"
         inkscape:connector-curvature="0" />
    </g>
    <path
       style="opacity:0.8;fill:none;stroke:#ff00ff;stroke-width:36.96495819;stroke-linecap:round;stroke-linejoin:miter;stroke-miterlimit:4;stroke-dasharray:73.92990476, 73.92990476;stroke-dashoffset:0;stroke-opacity:1"
       d="m 1052.2065,-583.01654 c 0,129.64333 -196.14815,217.1733 -400.18719,217.1733 -24.87965,0 -279.26756,111.81275 -302.7686,108.83352 -27.33445,-3.46508 110.13425,-112.57511 85.33752,-119.64321 -128.72379,-36.69197 -231.65531,-50.60788 -231.65531,-220.71466 0,-129.64329 187.52888,-221.87752 391.568,-221.87752 204.03901,0 457.70558,36.31863 457.70558,236.22857 z"
       id="path3100"
       inkscape:connector-curvature="0"
       sodipodi:nodetypes="sssssss" />
    <g
       style="font-style:normal;font-variant:normal;font-weight:normal;font-stretch:normal;font-size:57.56656647px;line-height:125%;font-family:'Ubuntu Mono';-inkscape-font-specification:'Ubuntu Mono';letter-spacing:0px;word-spacing:0px;fill:#00ffff;fill-opacity:1;stroke:none"
       id="text3871"
       transform="matrix(3.853211,0,0,3.853211,-200.24146,-3276.7976)">
      <path
         d="m 128.14156,699.82712 c 0,-2.41778 0.38378,-4.50936 1.15133,-6.27475 0.76755,-1.76536 1.82294,-3.22371 3.16617,-4.37506 1.34321,-1.15131 2.8975,-1.99562 4.66289,-2.53293 1.80374,-0.57564 3.72262,-0.86347 5.75665,-0.8635 1.30483,3e-5 2.59048,0.096 3.85696,0.28783 1.30482,0.15354 2.68642,0.46056 4.1448,0.92107 l -1.09377,4.08723 c -1.26649,-0.46051 -2.43701,-0.74835 -3.51156,-0.8635 -1.03622,-0.15349 -2.0916,-0.23025 -3.16616,-0.23027 -1.38161,2e-5 -2.68646,0.19191 -3.91453,0.57567 -1.2281,0.34542 -2.30267,0.92108 -3.22372,1.72699 -0.8827,0.76758 -1.59269,1.78459 -2.12997,3.05103 -0.53729,1.2281 -0.80594,2.72483 -0.80593,4.49019 -1e-5,1.68863 0.24945,3.14699 0.74837,4.37506 0.4989,1.18972 1.1897,2.18754 2.07239,2.99346 0.92106,0.76756 2.01482,1.34323 3.2813,1.727 1.26645,0.38378 2.66723,0.57567 4.20236,0.57567 1.22806,0 2.39858,-0.0576 3.51156,-0.1727 1.15131,-0.15351 2.39858,-0.46053 3.74182,-0.92107 l 0.6908,3.97209 c -1.34324,0.49892 -2.70565,0.84431 -4.08722,1.0362 -1.38162,0.23027 -2.87835,0.3454 -4.4902,0.3454 -2.14916,0 -4.12561,-0.28783 -5.92935,-0.8635 -1.76539,-0.61404 -3.30049,-1.49673 -4.60533,-2.64806 -1.26647,-1.15133 -2.26429,-2.59049 -2.99346,-4.31749 -0.6908,-1.76537 -1.0362,-3.79938 -1.0362,-6.10206"
         id="path3116"
         inkscape:connector-curvature="0" />
      <path
         d="m 168.09276,686.41411 11.28305,0 0,3.9721 -11.28305,0 0,12.43437 c -1e-5,1.34323 0.0959,2.437 0.28783,3.2813 0.19188,0.84431 0.4989,1.53511 0.92107,2.0724 0.46051,0.49891 1.03618,0.84431 1.72699,1.03619 0.69079,0.1919 1.53509,0.28784 2.53293,0.28784 1.38158,0 2.49453,-0.11513 3.33886,-0.3454 0.84429,-0.23027 1.65022,-0.53729 2.4178,-0.92107 l 0.6908,4.02966 c -0.53731,0.23027 -1.40081,0.53729 -2.5905,0.92107 -1.15135,0.38377 -2.59051,0.57566 -4.31749,0.57566 -1.99566,0 -3.62671,-0.23026 -4.89316,-0.6908 -1.26647,-0.46053 -2.26429,-1.15133 -2.99346,-2.07239 -0.69081,-0.92106 -1.17053,-2.05321 -1.43916,-3.39643 -0.26866,-1.38159 -0.40298,-2.97426 -0.40297,-4.77803 l 0,-12.43437 -5.64152,0 0,-3.9721 5.64152,0 0,-7.48365 4.72046,-0.80593 0,8.28958"
         id="path3118"
         inkscape:connector-curvature="0" />
      <path
         d="m 189.04699,713.125 0,-25.27172 c 3.91452,-1.3432 7.86742,-2.01481 11.85871,-2.01483 1.22807,2e-5 2.39859,0.0576 3.51156,0.1727 1.11293,0.0768 2.34102,0.26867 3.68426,0.57566 l -0.8635,4.20236 c -1.22811,-0.34537 -2.32187,-0.55645 -3.28129,-0.63323 -0.92108,-0.11511 -1.93809,-0.17268 -3.05103,-0.1727 -2.34105,2e-5 -4.72047,0.32623 -7.13825,0.97863 l 0,22.16313 -4.72046,0"
         id="path3120"
         inkscape:connector-curvature="0" />
      <path
         d="m 231.12815,713.75823 c -1.68863,0 -3.08942,-0.23026 -4.20236,-0.6908 -1.11296,-0.46053 -1.99565,-1.15133 -2.64806,-2.07239 -0.65243,-0.92106 -1.11296,-2.05321 -1.3816,-3.39643 -0.26865,-1.38159 -0.40297,-2.97426 -0.40296,-4.77803 l 0,-25.27172 -7.71392,0 0,-4.02966 12.43438,0 0,29.30138 c -2e-5,1.34323 0.0767,2.437 0.23026,3.2813 0.19188,0.84431 0.46052,1.53511 0.80594,2.0724 0.38376,0.49891 0.84429,0.84431 1.38159,1.03619 0.53727,0.1919 1.1705,0.28784 1.8997,0.28784 1.11293,0 2.14913,-0.13432 3.10859,-0.40297 0.95942,-0.26864 1.70779,-0.55647 2.2451,-0.8635 l 0.6908,4.02966 c -0.23029,0.11514 -0.5565,0.26865 -0.97863,0.46053 -0.42218,0.15352 -0.92109,0.30703 -1.49673,0.46054 -0.57569,0.15351 -1.20892,0.28783 -1.8997,0.40296 -0.65244,0.11514 -1.34324,0.1727 -2.0724,0.1727"
         id="path3122"
         inkscape:connector-curvature="0" />
      <path
         d="m 243.102,695.97016 9.67118,0 0,-10.59225 4.14479,0 0,10.59225 9.72875,0 0,4.02966 -9.72875,0 0,10.64982 -4.14479,0 0,-10.64982 -9.67118,0 0,-4.02966"
         id="path3124"
         inkscape:connector-curvature="0" />
      <path
         d="m 272.05797,699.82712 c 0,-2.41778 0.38378,-4.50936 1.15134,-6.27475 0.76755,-1.76536 1.82293,-3.22371 3.16616,-4.37506 1.34321,-1.15131 2.8975,-1.99562 4.66289,-2.53293 1.80374,-0.57564 3.72262,-0.86347 5.75666,-0.8635 1.30482,3e-5 2.59047,0.096 3.85696,0.28783 1.30482,0.15354 2.68641,0.46056 4.14479,0.92107 l -1.09377,4.08723 c -1.26648,-0.46051 -2.437,-0.74835 -3.51156,-0.8635 -1.03621,-0.15349 -2.0916,-0.23025 -3.16616,-0.23027 -1.38161,2e-5 -2.68645,0.19191 -3.91452,0.57567 -1.2281,0.34542 -2.30268,0.92108 -3.22373,1.72699 -0.8827,0.76758 -1.59269,1.78459 -2.12997,3.05103 -0.53729,1.2281 -0.80593,2.72483 -0.80593,4.49019 0,1.68863 0.24945,3.14699 0.74837,4.37506 0.4989,1.18972 1.1897,2.18754 2.07239,2.99346 0.92106,0.76756 2.01482,1.34323 3.2813,1.727 1.26645,0.38378 2.66723,0.57567 4.20236,0.57567 1.22807,0 2.39858,-0.0576 3.51156,-0.1727 1.15131,-0.15351 2.39858,-0.46053 3.74183,-0.92107 l 0.69079,3.97209 c -1.34324,0.49892 -2.70565,0.84431 -4.08722,1.0362 -1.38162,0.23027 -2.87835,0.3454 -4.49019,0.3454 -2.14917,0 -4.12562,-0.28783 -5.92936,-0.8635 -1.76538,-0.61404 -3.30049,-1.49673 -4.60533,-2.64806 -1.26647,-1.15133 -2.26428,-2.59049 -2.99346,-4.31749 -0.6908,-1.76537 -1.0362,-3.79938 -1.0362,-6.10206"
         id="path3126"
         inkscape:connector-curvature="0" />
    </g>
    <path
       style="opacity:0.8;fill:none;stroke:#00ffff;stroke-width:36.96495056;stroke-linecap:round;stroke-linejoin:miter;stroke-miterlimit:4;stroke-dasharray:73.92989551, 73.92989551;stroke-dashoffset:0;stroke-opacity:1"
       d="m 571.34151,49.568475 c 0,129.643325 196.14809,217.173295 400.18717,217.173295 24.87969,0 279.26752,111.81271 302.76852,108.83348 27.3346,-3.46507 -110.1342,-112.57506 -85.3374,-119.6432 128.7237,-36.69194 231.6553,-50.60788 231.6553,-220.714628 0,-129.643252 -187.5289,-221.877482 -391.5681,-221.877482 -204.03894,0 -457.70549,36.31859 -457.70549,236.228535 z"
       id="path3100-3"
       inkscape:connector-curvature="0"
       sodipodi:nodetypes="sssssss" />
    <g
       style="font-style:normal;font-variant:normal;font-weight:normal;font-stretch:normal;font-size:57.56655502px;line-height:125%;font-family:'Ubuntu Mono';-inkscape-font-specification:'Ubuntu Mono';letter-spacing:0px;word-spacing:0px;fill:#ff00ff;fill-opacity:1;stroke:none"
       id="text3871-6"
       transform="matrix(3.853211,0,0,3.853211,-200.24146,-3268.7976)">
      <path
         d="m 226.96827,861.92179 c 0,-2.41778 0.38377,-4.50936 1.15133,-6.27475 0.76755,-1.76536 1.82293,-3.22371 3.16616,-4.37506 1.34321,-1.15131 2.89751,-1.99562 4.66289,-2.53293 1.80374,-0.57564 3.72262,-0.86347 5.75666,-0.8635 1.30482,3e-5 2.59047,0.096 3.85696,0.28783 1.30481,0.15354 2.68641,0.46056 4.14479,0.92107 l -1.09377,4.08722 c -1.26648,-0.4605 -2.437,-0.74834 -3.51156,-0.86349 -1.03622,-0.15349 -2.0916,-0.23025 -3.16616,-0.23027 -1.38161,2e-5 -2.68645,0.19191 -3.91452,0.57567 -1.2281,0.34542 -2.30268,0.92108 -3.22373,1.72699 -0.8827,0.76758 -1.59268,1.78458 -2.12996,3.05103 -0.5373,1.2281 -0.80594,2.72483 -0.80593,4.49019 -1e-5,1.68863 0.24944,3.14698 0.74836,4.37506 0.4989,1.18972 1.1897,2.18754 2.0724,2.99346 0.92105,0.76756 2.01481,1.34322 3.28129,1.727 1.26645,0.38378 2.66723,0.57567 4.20236,0.57566 1.22807,10e-6 2.39858,-0.0576 3.51156,-0.1727 1.15131,-0.1535 2.39858,-0.46053 3.74182,-0.92106 l 0.6908,3.97209 c -1.34324,0.49891 -2.70565,0.84431 -4.08722,1.0362 -1.38162,0.23026 -2.87835,0.3454 -4.49019,0.3454 -2.14917,0 -4.12562,-0.28784 -5.92936,-0.8635 -1.76538,-0.61404 -3.30049,-1.49673 -4.60532,-2.64806 -1.26647,-1.15133 -2.26429,-2.59049 -2.99346,-4.31749 -0.69081,-1.76537 -1.0362,-3.79939 -1.0362,-6.10206"
         id="path3129"
         inkscape:connector-curvature="0" />
      <path
         d="m 266.91946,848.50878 11.28304,0 0,3.9721 -11.28304,0 0,12.43437 c -2e-5,1.34323 0.0959,2.43699 0.28783,3.2813 0.19187,0.84431 0.4989,1.53511 0.92106,2.07239 0.46052,0.49892 1.03619,0.84432 1.727,1.0362 0.69078,0.19189 1.53509,0.28784 2.53293,0.28783 1.38158,10e-6 2.49453,-0.11513 3.33886,-0.3454 0.84429,-0.23026 1.65022,-0.53728 2.4178,-0.92106 l 0.69079,4.02966 c -0.53731,0.23026 -1.40081,0.53729 -2.59049,0.92106 -1.15135,0.38378 -2.59052,0.57567 -4.31749,0.57567 -1.99566,0 -3.62671,-0.23027 -4.89316,-0.6908 -1.26648,-0.46053 -2.2643,-1.15133 -2.99346,-2.0724 -0.69081,-0.92106 -1.17053,-2.0532 -1.43916,-3.39642 -0.26866,-1.38159 -0.40298,-2.97427 -0.40297,-4.77803 l 0,-12.43437 -5.64152,0 0,-3.9721 5.64152,0 0,-7.48365 4.72046,-0.80593 0,8.28958"
         id="path3131"
         inkscape:connector-curvature="0" />
      <path
         d="m 287.87368,875.21967 0,-25.27172 c 3.91452,-1.3432 7.86742,-2.0148 11.85871,-2.01483 1.22807,3e-5 2.39859,0.0576 3.51156,0.1727 1.11293,0.0768 2.34102,0.26867 3.68426,0.57566 l -0.8635,4.20236 c -1.22811,-0.34537 -2.32187,-0.55645 -3.28129,-0.63323 -0.92108,-0.11511 -1.93809,-0.17268 -3.05103,-0.1727 -2.34105,2e-5 -4.72047,0.32623 -7.13825,0.97863 l 0,22.16313 -4.72046,0"
         id="path3133"
         inkscape:connector-curvature="0" />
      <path
         d="m 329.95483,875.8529 c -1.68863,0 -3.08942,-0.23027 -4.20236,-0.6908 -1.11296,-0.46053 -1.99565,-1.15133 -2.64806,-2.0724 -0.65243,-0.92106 -1.11296,-2.0532 -1.38159,-3.39642 -0.26866,-1.38159 -0.40298,-2.97427 -0.40297,-4.77803 l 0,-25.27172 -7.71392,0 0,-4.02965 12.43438,0 0,29.30137 c -2e-5,1.34323 0.0767,2.43699 0.23026,3.2813 0.19188,0.84431 0.46052,1.53511 0.80594,2.07239 0.38376,0.49892 0.84429,0.84432 1.38159,1.0362 0.53727,0.19189 1.1705,0.28784 1.8997,0.28783 1.11293,10e-6 2.14913,-0.13432 3.10859,-0.40296 0.95942,-0.26864 1.70779,-0.55648 2.2451,-0.8635 l 0.6908,4.02966 c -0.23029,0.11513 -0.5565,0.26864 -0.97863,0.46053 -0.42218,0.15351 -0.92109,0.30702 -1.49673,0.46053 -0.57569,0.15351 -1.20892,0.28783 -1.8997,0.40297 -0.65244,0.11513 -1.34324,0.1727 -2.0724,0.1727"
         id="path3135"
         inkscape:connector-curvature="0" />
      <path
         d="m 341.92868,858.06483 9.67118,0 0,-10.59224 4.14479,0 0,10.59224 9.72875,0 0,4.02966 -9.72875,0 0,10.64981 -4.14479,0 0,-10.64981 -9.67118,0 0,-4.02966"
         id="path3137"
         inkscape:connector-curvature="0" />
      <path
         d="m 395.12017,848.50878 c -0.69083,2.49458 -1.47757,4.95075 -2.36023,7.36852 -0.88271,2.37944 -1.78459,4.72048 -2.70563,7.02312 -0.92108,2.2643 -1.86134,4.43264 -2.82076,6.50502 -0.95946,2.0724 -1.88052,4.01048 -2.76319,5.81423 l -4.31749,0 c -1.80377,-3.6075 -3.62671,-7.71392 -5.46883,-12.31925 -1.84213,-4.6053 -3.47318,-9.40251 -4.89315,-14.39164 l 5.18099,0 c 0.46052,1.68865 0.97862,3.47321 1.55429,5.35369 0.61404,1.88053 1.24727,3.76104 1.8997,5.64153 0.65241,1.88052 1.30483,3.70346 1.95726,5.46882 0.69079,1.727 1.3624,3.2813 2.01483,4.66289 0.65241,-1.38159 1.32402,-2.93589 2.01483,-4.66289 0.72916,-1.76536 1.43915,-3.5883 2.12996,-5.46882 0.69078,-1.88049 1.3432,-3.761 1.95727,-5.64153 0.6524,-1.88048 1.20887,-3.66504 1.66943,-5.35369 l 4.95072,0"
         id="path3139"
         inkscape:connector-curvature="0" />
    </g>
    <g
       id="g4451"
       transform="matrix(0.7624388,0,0,0.7624388,1527.1519,816.88596)"
       style="fill:#666666">
      <path
         id="path4394"
         d="m -708.87791,172.5442 c 8.951,0 16.572,3.125 22.857,9.372 3.008,3.009 5.295,6.448 6.857,10.314 1.561,3.867 2.344,7.971 2.344,12.314 0,4.381 -0.773,8.486 -2.314,12.313 -1.543,3.828 -3.82,7.21 -6.828,10.143 -3.123,3.085 -6.666,5.448 -10.629,7.086 -3.961,1.638 -8.057,2.457 -12.285,2.457 -4.228,0 -8.276,-0.808 -12.143,-2.429 -3.866,-1.618 -7.333,-3.961 -10.4,-7.027 -3.067,-3.066 -5.4,-6.524 -7,-10.372 -1.6,-3.848 -2.4,-7.904 -2.4,-12.171 0,-4.229 0.809,-8.295 2.428,-12.2 1.619,-3.905 3.972,-7.4 7.057,-10.486 6.095,-6.208 13.58,-9.314 22.456,-9.314 z m 0.116,5.772 c -7.314,0 -13.467,2.553 -18.458,7.657 -2.515,2.553 -4.448,5.419 -5.8,8.6 -1.354,3.181 -2.029,6.505 -2.029,9.972 0,3.429 0.675,6.734 2.029,9.913 1.353,3.183 3.285,6.021 5.8,8.516 2.514,2.496 5.351,4.399 8.515,5.715 3.161,1.314 6.476,1.971 9.943,1.971 3.428,0 6.75,-0.665 9.973,-1.999 3.219,-1.335 6.121,-3.257 8.713,-5.771 4.99,-4.876 7.484,-10.99 7.484,-18.344 0,-3.543 -0.648,-6.895 -1.943,-10.057 -1.293,-3.162 -3.18,-5.98 -5.654,-8.458 -5.146,-5.143 -11.335,-7.715 -18.573,-7.715 z m -0.401,20.915 -4.287,2.229 c -0.458,-0.951 -1.019,-1.619 -1.685,-2 -0.667,-0.38 -1.286,-0.571 -1.858,-0.571 -2.856,0 -4.286,1.885 -4.286,5.657 0,1.714 0.362,3.084 1.085,4.113 0.724,1.029 1.791,1.544 3.201,1.544 1.867,0 3.181,-0.915 3.944,-2.743 l 3.942,2 c -0.838,1.563 -2,2.791 -3.486,3.686 -1.484,0.896 -3.123,1.343 -4.914,1.343 -2.857,0 -5.163,-0.875 -6.915,-2.629 -1.752,-1.752 -2.628,-4.19 -2.628,-7.313 0,-3.048 0.886,-5.466 2.657,-7.257 1.771,-1.79 4.009,-2.686 6.715,-2.686 3.963,-0.002 6.8,1.541 8.515,4.627 z m 18.457,0 -4.229,2.229 c -0.457,-0.951 -1.02,-1.619 -1.686,-2 -0.668,-0.38 -1.307,-0.571 -1.914,-0.571 -2.857,0 -4.287,1.885 -4.287,5.657 0,1.714 0.363,3.084 1.086,4.113 0.723,1.029 1.789,1.544 3.201,1.544 1.865,0 3.18,-0.915 3.941,-2.743 l 4,2 c -0.875,1.563 -2.057,2.791 -3.541,3.686 -1.486,0.896 -3.105,1.343 -4.857,1.343 -2.896,0 -5.209,-0.875 -6.941,-2.629 -1.736,-1.752 -2.602,-4.19 -2.602,-7.313 0,-3.048 0.885,-5.466 2.658,-7.257 1.77,-1.79 4.008,-2.686 6.713,-2.686 3.962,-0.002 6.783,1.541 8.458,4.627 z"
         inkscape:connector-curvature="0"
         style="fill:#666666;stroke:none" />
      <g
         transform="translate(-673.74791,176.0432)"
         id="g4410"
         style="fill:#666666;stroke:none">
        <path
           id="path4412"
           d="m 37.443,-3.5 c 8.988,0 16.57,3.085 22.742,9.257 6.208,6.21 9.315,13.791 9.315,22.743 0,8.991 -3.049,16.476 -9.145,22.456 C 53.879,57.319 46.242,60.5 37.443,60.5 28.794,60.5 21.29,57.356 14.929,51.07 8.644,44.784 5.5,37.262 5.5,28.5 5.5,19.739 8.644,12.158 14.929,5.758 21.101,-0.415 28.604,-3.5 37.443,-3.5 Z m 0.114,5.772 c -7.276,0 -13.428,2.553 -18.457,7.657 -5.22,5.334 -7.829,11.525 -7.829,18.572 0,7.086 2.59,13.22 7.77,18.398 5.181,5.182 11.352,7.771 18.514,7.771 7.123,0 13.334,-2.607 18.629,-7.828 5.029,-4.838 7.543,-10.952 7.543,-18.343 0,-7.276 -2.553,-13.465 -7.656,-18.571 C 50.967,4.824 44.795,2.272 37.557,2.272 Z m 8.572,18.285 0,13.085 -3.656,0 0,15.542 -9.944,0 0,-15.541 -3.656,0 0,-13.086 c 0,-0.572 0.2,-1.057 0.599,-1.457 0.401,-0.399 0.887,-0.6 1.457,-0.6 l 13.144,0 c 0.533,0 1.01,0.2 1.428,0.6 0.417,0.4 0.628,0.886 0.628,1.457 z M 33.042,12.329 c 0,-3.008 1.485,-4.514 4.458,-4.514 2.973,0 4.457,1.504 4.457,4.514 0,2.971 -1.486,4.457 -4.457,4.457 -2.971,0 -4.458,-1.486 -4.458,-4.457 z"
           inkscape:connector-curvature="0"
           style="fill:#666666;stroke:none" />
      </g>
      <g
         transform="translate(-602.46177,176.0432)"
         id="g4429"
         style="fill:#666666;stroke:none">
        <path
           id="path4431"
           d="m 37.443,-3.5 c 8.951,0 16.531,3.105 22.742,9.315 6.208,6.172 9.315,13.733 9.315,22.685 0,8.954 -3.049,16.457 -9.145,22.514 C 53.918,57.338 46.279,60.5 37.443,60.5 28.794,60.5 21.29,57.357 14.929,51.071 8.644,44.786 5.5,37.264 5.5,28.501 5.5,19.778 8.644,12.216 14.929,5.816 21.138,-0.395 28.643,-3.5 37.443,-3.5 Z m 0.114,5.772 c -7.276,0 -13.428,2.572 -18.457,7.715 -5.22,5.296 -7.829,11.467 -7.829,18.513 0,7.125 2.59,13.257 7.77,18.4 5.181,5.182 11.352,7.771 18.514,7.771 7.123,0 13.334,-2.609 18.629,-7.828 5.029,-4.876 7.543,-10.99 7.543,-18.343 0,-7.313 -2.553,-13.485 -7.656,-18.513 C 51.004,4.842 44.832,2.272 37.557,2.272 Z M 23.271,23.985 c 0.609,-3.924 2.189,-6.962 4.742,-9.114 2.552,-2.152 5.656,-3.228 9.314,-3.228 5.027,0 9.029,1.62 12,4.856 2.971,3.238 4.457,7.391 4.457,12.457 0,4.915 -1.543,9 -4.627,12.256 -3.088,3.256 -7.086,4.886 -12.002,4.886 -3.619,0 -6.743,-1.085 -9.371,-3.257 -2.629,-2.172 -4.209,-5.257 -4.743,-9.257 l 8.059,0 c 0.19,3.886 2.533,5.829 7.029,5.829 2.246,0 4.057,-0.972 5.428,-2.914 1.373,-1.942 2.059,-4.534 2.059,-7.771 0,-3.391 -0.629,-5.971 -1.885,-7.743 -1.258,-1.771 -3.066,-2.657 -5.43,-2.657 -4.268,0 -6.667,1.885 -7.2,5.656 l 2.343,0 -6.342,6.343 -6.343,-6.343 2.512,10e-4 0,0 z"
           inkscape:connector-curvature="0"
           style="fill:#666666;stroke:none" />
      </g>
    </g>
  </g>
</svg>
