<?xml version="1.0" encoding="UTF-8" standalone="no"?>
<svg
   xmlns:dc="http://purl.org/dc/elements/1.1/"
   xmlns:cc="http://creativecommons.org/ns#"
   xmlns:rdf="http://www.w3.org/1999/02/22-rdf-syntax-ns#"
   xmlns:svg="http://www.w3.org/2000/svg"
   xmlns="http://www.w3.org/2000/svg"
   version="1.1"
   id="svg2"
   height="2104.7244"
   width="1488.189">
  <defs
     id="defs4" />
  <metadata
     id="metadata7">
    <rdf:RDF>
      <cc:Work
         rdf:about="">
        <dc:format>image/svg+xml</dc:format>
        <dc:type
           rdf:resource="http://purl.org/dc/dcmitype/StillImage" />
        <dc:title></dc:title>
      </cc:Work>
    </rdf:RDF>
  </metadata>
  <g
     transform="translate(-76.181152,976.18121)"
     id="layer1">
    <rect
       transform="matrix(0,1,-1,0,0,0)"
       y="-1564.3701"
       x="-976.18121"
       height="1488.189"
       width="2104.7244"
       id="rect2985"
       style="fill:#1a1a1a;fill-opacity:1;fill-rule:nonzero;stroke:none" />
    <text
       id="text2995-3"
       y="1018.1683"
       x="1194.8101"
       style="font-style:normal;font-variant:normal;font-weight:normal;font-stretch:normal;font-size:48.78020477px;line-height:125%;font-family:Ubuntu;-inkscape-font-specification:Ubuntu;letter-spacing:0px;word-spacing:0px;fill:#666666;fill-opacity:1;stroke:none"
       xml:space="preserve"><tspan
         style="font-size:49.11317444px;fill:#666666"
         y="1018.1683"
         x="1194.8101"
         id="tspan2997-6">falanster.by</tspan></text>
    <text
       id="text3044"
       y="-613.91919"
       x="190.19772"
       style="font-style:normal;font-variant:normal;font-weight:normal;font-stretch:normal;font-size:442.64041138px;line-height:100%;font-family:'Ubuntu Mono';-inkscape-font-specification:'Ubuntu Mono';letter-spacing:0px;word-spacing:0px;fill:#ccff00;fill-opacity:1;stroke:none"
       xml:space="preserve"><tspan
         id="tspan3148"
         style="font-size:365.86624146px;line-height:100%;fill:#d4ff2a"
         y="-613.91919"
         x="190.19772">Уступай </tspan></text>
    <g
       transform="matrix(4.03642,0,0,4.03642,-244.6034,-3107.2083)"
       id="g3105">
      <path
         id="path3091"
         style="font-style:italic;font-variant:normal;font-weight:normal;font-stretch:normal;font-size:77.4107132px;line-height:125%;font-family:'Ubuntu Mono';-inkscape-font-specification:'Ubuntu Mono Italic';letter-spacing:0px;word-spacing:0px;fill:#f9f9f9;fill-opacity:1;stroke:none"
         d="m 131.97691,935.6615 -6.43528,29.95185 c -0.58263,2.64827 -1.27119,4.89929 -2.06564,6.75307 -0.74153,1.90674 -1.69491,3.44274 -2.86012,4.60798 -1.16525,1.21819 -2.59531,2.09211 -4.29019,2.62178 -1.64193,0.52963 -3.60164,0.79446 -5.87914,0.79447 -0.79448,-1e-5 -1.69489,-0.10593 -2.70124,-0.31779 -1.00633,-0.21187 -1.80081,-0.52966 -2.38343,-0.95337 l 1.50952,-5.48191 c 1.11226,0.68855 2.64825,1.03282 4.60797,1.03283 2.1186,-10e-6 3.76052,-0.82097 4.92577,-2.46288 1.16522,-1.64194 2.03914,-3.81351 2.62178,-6.51473 l 6.35582,-30.0313 -7.94478,0 1.35061,-5.4819 7.78589,0 0.71504,-3.33681 c 1.00631,-4.76683 2.78065,-8.42143 5.32301,-10.96381 2.59526,-2.59524 6.43524,-3.89289 11.51994,-3.89294 1.64188,5e-5 3.20435,0.15894 4.68742,0.47668 1.48298,0.31785 2.59525,0.68861 3.33681,1.11227 l -2.62178,5.24356 c -0.42376,-0.21181 -1.08583,-0.45015 -1.9862,-0.71503 -0.84748,-0.31774 -2.19809,-0.47663 -4.05183,-0.47668 -1.53604,5e-5 -2.86017,0.23839 -3.9724,0.71503 -1.05934,0.42377 -1.98623,1.05934 -2.78068,1.90674 -0.74155,0.79452 -1.35064,1.77439 -1.8273,2.93958 -0.42375,1.11231 -0.79451,2.35699 -1.11227,3.73404 l -0.71503,3.25737 14.93621,0 -1.35063,5.4819 -14.69785,0" />
      <path
         id="path3093"
         style="font-style:normal;font-variant:normal;font-weight:normal;font-stretch:normal;font-size:77.4107132px;line-height:125%;font-family:'Ubuntu Mono';-inkscape-font-specification:'Ubuntu Mono';letter-spacing:0px;word-spacing:0px;fill:#f9f9f9;fill-opacity:1;stroke:none"
         d="m 173.74932,950.9155 32.49418,0 0,5.64079 -32.49418,0 0,-5.64079 m 0,-15.0951 32.49418,0 0,5.64079 -32.49418,0 0,-5.64079" />
      <path
         id="path3095"
         style="font-style:normal;font-variant:normal;font-weight:normal;font-stretch:normal;font-size:77.4107132px;line-height:125%;font-family:'Ubuntu Mono';-inkscape-font-specification:'Ubuntu Mono';letter-spacing:0px;word-spacing:0px;fill:#f9f9f9;fill-opacity:1;stroke:none"
         d="m 293.15947,948.69096 c 0,-3.33679 0.52965,-6.2234 1.58896,-8.65983 1.0593,-2.43637 2.51585,-4.44905 4.36963,-6.03803 1.85377,-1.58892 3.99887,-2.75416 6.43528,-3.49571 2.48935,-0.79445 5.13761,-1.19168 7.94479,-1.19172 1.80079,4e-5 3.57513,0.13245 5.32301,0.39724 1.80078,0.2119 3.70753,0.63562 5.72024,1.27117 l -1.5095,5.6408 c -1.74789,-0.63556 -3.36332,-1.0328 -4.84632,-1.19172 -1.43009,-0.21183 -2.88664,-0.31776 -4.36964,-0.31779 -1.90677,3e-5 -3.70758,0.26485 -5.40245,0.79447 -1.69491,0.47673 -3.17794,1.2712 -4.44908,2.38344 -1.21822,1.05933 -2.19808,2.46291 -2.93958,4.21074 -0.74152,1.69491 -1.11228,3.76055 -1.11227,6.19694 -10e-6,2.33048 0.34427,4.34316 1.03282,6.03803 0.68854,1.64193 1.64192,3.01903 2.86013,4.13129 1.27115,1.05931 2.78065,1.8538 4.52853,2.38344 1.74783,0.52966 3.68106,0.79448 5.79969,0.79448 1.69486,0 3.3103,-0.0794 4.84632,-0.23834 1.58893,-0.21186 3.3103,-0.63558 5.16412,-1.27118 l 0.95337,5.48191 c -1.85382,0.68855 -3.73409,1.16524 -5.6408,1.43007 -1.90678,0.31778 -3.97242,0.47668 -6.19694,0.47668 -2.96607,0 -5.69377,-0.39724 -8.18312,-1.19172 -2.43642,-0.84744 -4.55503,-2.06564 -6.35584,-3.6546 -1.74785,-1.58895 -3.12495,-3.57515 -4.13129,-5.9586 -0.95337,-2.43638 -1.43006,-5.24354 -1.43006,-8.42146" />
      <path
         id="path3097"
         style="font-style:normal;font-variant:normal;font-weight:normal;font-stretch:normal;font-size:77.4107132px;line-height:125%;font-family:'Ubuntu Mono';-inkscape-font-specification:'Ubuntu Mono';letter-spacing:0px;word-spacing:0px;fill:#f9f9f9;fill-opacity:1;stroke:none"
         d="m 373.29478,948.61151 c 0,4.1313 0.79447,7.3357 2.38343,9.61319 1.64191,2.22455 3.62811,3.38978 5.9586,3.4957 l 0,-26.21779 c -2.33049,0.10595 -4.31669,1.29767 -5.9586,3.57515 -1.58896,2.22457 -2.38343,5.40248 -2.38343,9.53375 m 14.14172,13.10889 c 2.33045,-0.10592 4.31665,-1.27115 5.95859,-3.4957 1.6419,-2.27749 2.46286,-5.48189 2.46289,-9.61319 -3e-5,-4.13127 -0.82099,-7.30918 -2.46289,-9.53375 -1.64194,-2.27748 -3.62814,-3.4692 -5.95859,-3.57515 l 0,26.21779 m 0,18.43191 -5.79969,0 0,-12.87056 c -2.0127,-0.053 -3.91944,-0.50316 -5.72025,-1.35061 -1.74786,-0.84744 -3.31034,-2.06564 -4.68743,-3.6546 -1.3771,-1.58895 -2.46288,-3.52218 -3.25735,-5.79969 -0.79448,-2.33046 -1.19173,-4.95223 -1.19173,-7.86534 0,-3.1779 0.4502,-5.95857 1.35062,-8.34203 0.95337,-2.38341 2.22453,-4.36961 3.8135,-5.95859 1.64191,-1.58892 3.54866,-2.78064 5.72024,-3.57515 2.17156,-0.79444 4.50203,-1.19169 6.99142,-1.19172 2.43637,3e-5 4.71388,0.39728 6.83252,1.19172 2.17154,0.79451 4.0518,1.98623 5.6408,3.57515 1.64189,1.58898 2.91305,3.57518 3.81349,5.95859 0.95334,2.38346 1.43003,5.16413 1.43006,8.34203 -3e-5,2.91311 -0.39728,5.53488 -1.19172,7.86534 -0.79451,2.27751 -1.88029,4.21074 -3.25736,5.79969 -1.37712,1.58896 -2.96608,2.80716 -4.76687,3.6546 -1.80085,0.84745 -3.70759,1.29765 -5.72025,1.35061 l 0,12.87056" />
      <g
         style="font-style:normal;font-variant:normal;font-weight:normal;font-stretch:normal;font-size:79.98180389px;line-height:125%;font-family:'Ubuntu Mono';-inkscape-font-specification:'Ubuntu Mono';letter-spacing:0px;word-spacing:0px;fill:#f9f9f9;fill-opacity:1;stroke:none"
         id="text3067"
         transform="matrix(1.8218826,0,0,1.8218826,-78.09519,-617.89421)">
        <path
           d="m 184.77682,857.91255 c -2.61277,3.41258 -5.33214,6.82513 -8.15815,10.23767 -2.82604,3.41257 -5.03992,7.89778 -7.2794,11.09704 l 27.1354,0 0.0599,4.41943 -32.5526,0 0.003,-4.31493 c 1.81292,-2.93266 4.12919,-7.04248 6.95522,-10.56169 2.82601,-3.51918 5.67869,-7.11836 8.55805,-10.79754 -2.77272,-3.67914 -5.49209,-7.22499 -8.15814,-10.63758 -2.61275,-3.46584 -4.71894,-7.09298 -6.31857,-9.49248 l 0.0201,-3.70452 31.43284,0 -1e-5,3.67305 -26.44805,0 c 0.69316,1.01314 2.61959,4.13855 3.63271,5.52486 1.01308,1.38639 2.13283,2.87938 3.35923,4.47898 1.22637,1.59967 2.50608,3.27929 3.83913,5.03885 1.333,1.70631 2.63937,3.38593 3.91911,5.03886"
           id="path3112"
           style="fill:#f9f9f9" />
      </g>
      <g
         transform="matrix(0,-1.0861978,1.0861978,0,69.587326,805.27234)"
         style="font-style:normal;font-variant:normal;font-weight:normal;font-stretch:normal;font-size:40px;line-height:125%;font-family:'Ubuntu Mono';-inkscape-font-specification:'Ubuntu Mono';letter-spacing:0px;word-spacing:0px;fill:#cccccc;fill-opacity:1;stroke:none"
         id="text3071">
        <path
           d="m -60.611426,173.46437 c -1.8e-5,2.08001 -0.666684,3.76001 -2,5.04 -1.306682,1.28 -3.30668,1.92 -6,1.92 -1.546675,0 -2.826674,-0.2 -3.84,-0.6 -1.013339,-0.42666 -1.826671,-0.96 -2.44,-1.6 -0.58667,-0.66666 -1.013336,-1.39999 -1.28,-2.2 -0.240003,-0.79999 -0.360002,-1.58666 -0.36,-2.36 -2e-6,-1.41332 0.386664,-2.66665 1.16,-3.76 0.773329,-1.09332 1.693328,-1.97332 2.76,-2.64 -2.266671,-1.27998 -3.400003,-3.23998 -3.4,-5.88 -3e-6,-0.90664 0.17333,-1.77331 0.52,-2.6 0.346663,-0.82664 0.839996,-1.54664 1.48,-2.16 0.639994,-0.61331 1.413327,-1.10664 2.32,-1.48 0.933325,-0.37331 1.973324,-0.55997 3.12,-0.56 1.333322,3e-5 2.466654,0.20003 3.4,0.6 0.959985,0.40003 1.733318,0.92003 2.32,1.56 0.58665,0.61336 1.013316,1.30669 1.28,2.08 0.266649,0.74669 0.399982,1.48002 0.4,2.2 -1.8e-5,1.41335 -0.360017,2.64002 -1.08,3.68 -0.720016,1.01335 -1.546682,1.82668 -2.48,2.44 2.74665,1.30668 4.119982,3.41335 4.12,6.32 m -12.72,0.24 c -6e-6,0.42668 0.07999,0.88001 0.24,1.36 0.159994,0.45334 0.42666,0.88001 0.8,1.28 0.373326,0.40001 0.866659,0.73334 1.48,1 0.613325,0.24001 1.35999,0.36001 2.24,0.36 0.826655,10e-6 1.533321,-0.10666 2.12,-0.32 0.61332,-0.23999 1.106653,-0.54666 1.48,-0.92 0.399986,-0.39999 0.693319,-0.83999 0.88,-1.32 0.186652,-0.47999 0.279985,-0.95999 0.28,-1.44 -1.5e-5,-1.51999 -0.546681,-2.67999 -1.64,-3.48 -1.093346,-0.82665 -2.600011,-1.45332 -4.52,-1.88 -1.066675,0.58668 -1.89334,1.32001 -2.48,2.2 -0.586673,0.88001 -0.880006,1.93334 -0.88,3.16 m 8.96,-12.68 c -1.5e-5,-0.34664 -0.08002,-0.73331 -0.24,-1.16 -0.160014,-0.45331 -0.413347,-0.85331 -0.76,-1.2 -0.320013,-0.37331 -0.74668,-0.67997 -1.28,-0.92 -0.533345,-0.26664 -1.173344,-0.39997 -1.92,-0.4 -0.773343,3e-5 -1.426676,0.12003 -1.96,0.36 -0.506675,0.24003 -0.933341,0.54669 -1.28,0.92 -0.346673,0.34669 -0.600007,0.74669 -0.76,1.2 -0.13334,0.42669 -0.200006,0.85336 -0.2,1.28 -6e-6,1.09335 0.38666,2.12002 1.16,3.08 0.799992,0.93335 2.106657,1.61335 3.92,2.04 1.013321,-0.58665 1.81332,-1.27998 2.4,-2.08 0.613319,-0.79998 0.919985,-1.83998 0.92,-3.12"
           id="path3076"
           style="fill:#cccccc" />
      </g>
      <g
         style="font-style:normal;font-variant:normal;font-weight:normal;font-stretch:normal;font-size:36.18341446px;line-height:125%;font-family:'Ubuntu Mono';-inkscape-font-specification:'Ubuntu Mono';letter-spacing:0px;word-spacing:0px;fill:#cccccc;fill-opacity:1;stroke:none"
         id="text3078"
         transform="matrix(1.0263163,0,0,1.0263163,-14.772733,-26.9005)">
        <path
           d="m 236.11691,1006.1877 c 1.0651,-0.2603 2.11836,-0.4615 3.1598,-0.6036 1.06509,-0.142 2.05919,-0.213 2.98228,-0.213 2.2012,0 3.85802,0.5681 4.97047,1.7042 1.13609,1.1361 1.70414,2.9586 1.70416,5.4675 l 0,9.6569 -2.91128,0 0,-9.1244 c -1e-5,-1.065 -0.0947,-1.929 -0.28402,-2.5917 -0.18937,-0.6627 -0.46156,-1.1716 -0.81658,-1.5266 -0.33137,-0.3787 -0.74558,-0.6391 -1.24262,-0.7811 -0.47338,-0.142 -0.9941,-0.213 -1.56214,-0.213 -0.47339,0 -0.98227,0.035 -1.52665,0.1065 -0.52072,0.047 -1.0296,0.1183 -1.52664,0.213 l 0,13.9173 -2.94678,0 0,-16.012"
           style="font-size:35.50333786px;fill:#cccccc"
           id="path3084" />
        <path
           d="m 252.981,1014.9925 14.52086,0 0,2.5208 -14.52086,0 0,-2.5208 m 0,-6.7456 14.52086,0 0,2.5207 -14.52086,0 0,-2.5207"
           style="font-size:35.50333786px;fill:#cccccc"
           id="path3086" />
        <path
           d="m 271.76226,1004.7676 c 1.20711,-0.4734 2.37872,-1.0651 3.51483,-1.7752 1.1361,-0.7337 2.18937,-1.6568 3.1598,-2.7693 l 2.0592,0 0,19.4914 4.15389,0 0,2.4852 -11.82262,0 0,-2.4852 4.75745,0 0,-15.4085 c -0.26036,0.2367 -0.57989,0.4853 -0.95859,0.7456 -0.35504,0.2367 -0.75741,0.4734 -1.20711,0.7101 -0.42605,0.2367 -0.87576,0.4615 -1.34913,0.6745 -0.47338,0.2131 -0.93492,0.3906 -1.38463,0.5326 l -0.92309,-2.2012"
           style="font-size:35.50333786px;fill:#cccccc"
           id="path3088" />
      </g>
      <g
         style="font-style:normal;font-variant:normal;font-weight:normal;font-stretch:normal;font-size:40px;line-height:125%;font-family:'Ubuntu Mono';-inkscape-font-specification:'Ubuntu Mono';letter-spacing:0px;word-spacing:0px;fill:#cccccc;fill-opacity:1;stroke:none"
         id="text3082"
         transform="matrix(1.0263163,0,0,1.0263163,-16.772733,-26.9005)">
        <path
           d="m 341.2769,962.72 c 1.05,-0.25665 2.08833,-0.45498 3.115,-0.595 1.04999,-0.13998 2.02999,-0.20998 2.94,-0.21 2.16999,2e-5 3.80332,0.56002 4.9,1.68 1.11999,1.12002 1.67999,2.91668 1.68,5.39 l 0,9.52 -2.87,0 0,-8.995 c -10e-6,-1.04999 -0.0933,-1.90165 -0.28,-2.555 -0.18668,-0.65332 -0.45501,-1.15498 -0.805,-1.505 -0.32668,-0.37332 -0.73501,-0.62998 -1.225,-0.77 -0.46668,-0.13998 -0.98001,-0.20998 -1.54,-0.21 -0.46667,2e-5 -0.96834,0.035 -1.505,0.105 -0.51334,0.0467 -1.01501,0.11669 -1.505,0.21 l 0,13.72 -2.905,0 0,-15.785"
           style="font-size:35px;fill:#cccccc"
           id="path3081" />
      </g>
      <g
         style="font-style:normal;font-variant:normal;font-weight:normal;font-stretch:normal;font-size:40px;line-height:125%;font-family:'Ubuntu Mono';-inkscape-font-specification:'Ubuntu Mono';letter-spacing:0px;word-spacing:0px;fill:#cccccc;fill-opacity:1;stroke:none"
         id="text3082-3"
         transform="matrix(1.0263163,0,0,1.0263163,-20.772733,-29.043357)">
        <path
           d="m 418.43501,965.3389 c 1.05,-0.25665 2.08833,-0.45498 3.115,-0.595 1.05,-0.13998 2.02999,-0.20998 2.94,-0.21 2.16999,2e-5 3.80332,0.56002 4.9,1.68 1.11999,1.12002 1.67999,2.91668 1.68,5.39 l 0,9.52 -2.87,0 0,-8.995 c -1e-5,-1.04999 -0.0933,-1.90165 -0.28,-2.555 -0.18668,-0.65332 -0.45501,-1.15499 -0.805,-1.505 -0.32668,-0.37332 -0.73501,-0.62998 -1.225,-0.77 -0.46667,-0.13998 -0.98001,-0.20998 -1.54,-0.21 -0.46667,2e-5 -0.96834,0.035 -1.505,0.105 -0.51334,0.0467 -1.015,0.11668 -1.505,0.21 l 0,13.72 -2.905,0 0,-15.785"
           style="font-size:35px;fill:#cccccc"
           id="path3078" />
      </g>
    </g>
    <text
       id="text3184"
       y="-308.77417"
       x="177.08426"
       style="font-style:normal;font-variant:normal;font-weight:normal;font-stretch:normal;font-size:430.07559204px;line-height:125%;font-family:'Ubuntu Mono';-inkscape-font-specification:'Ubuntu Mono';letter-spacing:0px;word-spacing:0px;fill:#ccff00;fill-opacity:1;stroke:none"
       xml:space="preserve"><tspan
         y="-308.77417"
         x="177.08426"
         id="tspan3186">у рады</tspan></text>
    <text
       id="text3188"
       y="109.56103"
       x="169.23697"
       style="font-style:normal;font-variant:normal;font-weight:normal;font-stretch:normal;font-size:460.00427246px;line-height:125%;font-family:'Ubuntu Mono';-inkscape-font-specification:'Ubuntu Mono';letter-spacing:0px;word-spacing:0px;fill:#ccff00;fill-opacity:1;stroke:none"
       xml:space="preserve"><tspan
         y="109.56103"
         x="169.23697"
         id="tspan3190">Фур'е!</tspan></text>
    <g
       style="fill:#666666"
       transform="matrix(0.7624388,0,0,0.7624388,1577.3294,839.48419)"
       id="g4451">
      <path
         style="fill:#666666;stroke:none"
         d="m -708.87791,172.5442 c 8.951,0 16.572,3.125 22.857,9.372 3.008,3.009 5.295,6.448 6.857,10.314 1.561,3.867 2.344,7.971 2.344,12.314 0,4.381 -0.773,8.486 -2.314,12.313 -1.543,3.828 -3.82,7.21 -6.828,10.143 -3.123,3.085 -6.666,5.448 -10.629,7.086 -3.961,1.638 -8.057,2.457 -12.285,2.457 -4.228,0 -8.276,-0.808 -12.143,-2.429 -3.866,-1.618 -7.333,-3.961 -10.4,-7.027 -3.067,-3.066 -5.4,-6.524 -7,-10.372 -1.6,-3.848 -2.4,-7.904 -2.4,-12.171 0,-4.229 0.809,-8.295 2.428,-12.2 1.619,-3.905 3.972,-7.4 7.057,-10.486 6.095,-6.208 13.58,-9.314 22.456,-9.314 z m 0.116,5.772 c -7.314,0 -13.467,2.553 -18.458,7.657 -2.515,2.553 -4.448,5.419 -5.8,8.6 -1.354,3.181 -2.029,6.505 -2.029,9.972 0,3.429 0.675,6.734 2.029,9.913 1.353,3.183 3.285,6.021 5.8,8.516 2.514,2.496 5.351,4.399 8.515,5.715 3.161,1.314 6.476,1.971 9.943,1.971 3.428,0 6.75,-0.665 9.973,-1.999 3.219,-1.335 6.121,-3.257 8.713,-5.771 4.99,-4.876 7.484,-10.99 7.484,-18.344 0,-3.543 -0.648,-6.895 -1.943,-10.057 -1.293,-3.162 -3.18,-5.98 -5.654,-8.458 -5.146,-5.143 -11.335,-7.715 -18.573,-7.715 z m -0.401,20.915 -4.287,2.229 c -0.458,-0.951 -1.019,-1.619 -1.685,-2 -0.667,-0.38 -1.286,-0.571 -1.858,-0.571 -2.856,0 -4.286,1.885 -4.286,5.657 0,1.714 0.362,3.084 1.085,4.113 0.724,1.029 1.791,1.544 3.201,1.544 1.867,0 3.181,-0.915 3.944,-2.743 l 3.942,2 c -0.838,1.563 -2,2.791 -3.486,3.686 -1.484,0.896 -3.123,1.343 -4.914,1.343 -2.857,0 -5.163,-0.875 -6.915,-2.629 -1.752,-1.752 -2.628,-4.19 -2.628,-7.313 0,-3.048 0.886,-5.466 2.657,-7.257 1.771,-1.79 4.009,-2.686 6.715,-2.686 3.963,-0.002 6.8,1.541 8.515,4.627 z m 18.457,0 -4.229,2.229 c -0.457,-0.951 -1.02,-1.619 -1.686,-2 -0.668,-0.38 -1.307,-0.571 -1.914,-0.571 -2.857,0 -4.287,1.885 -4.287,5.657 0,1.714 0.363,3.084 1.086,4.113 0.723,1.029 1.789,1.544 3.201,1.544 1.865,0 3.18,-0.915 3.941,-2.743 l 4,2 c -0.875,1.563 -2.057,2.791 -3.541,3.686 -1.486,0.896 -3.105,1.343 -4.857,1.343 -2.896,0 -5.209,-0.875 -6.941,-2.629 -1.736,-1.752 -2.602,-4.19 -2.602,-7.313 0,-3.048 0.885,-5.466 2.658,-7.257 1.77,-1.79 4.008,-2.686 6.713,-2.686 3.962,-0.002 6.783,1.541 8.458,4.627 z"
         id="path4394" />
      <g
         style="fill:#666666;stroke:none"
         id="g4410"
         transform="translate(-673.74791,176.0432)">
        <path
           style="fill:#666666;stroke:none"
           d="m 37.443,-3.5 c 8.988,0 16.57,3.085 22.742,9.257 6.208,6.21 9.315,13.791 9.315,22.743 0,8.991 -3.049,16.476 -9.145,22.456 C 53.879,57.319 46.242,60.5 37.443,60.5 28.794,60.5 21.29,57.356 14.929,51.07 8.644,44.784 5.5,37.262 5.5,28.5 5.5,19.739 8.644,12.158 14.929,5.758 21.101,-0.415 28.604,-3.5 37.443,-3.5 Z m 0.114,5.772 c -7.276,0 -13.428,2.553 -18.457,7.657 -5.22,5.334 -7.829,11.525 -7.829,18.572 0,7.086 2.59,13.22 7.77,18.398 5.181,5.182 11.352,7.771 18.514,7.771 7.123,0 13.334,-2.607 18.629,-7.828 5.029,-4.838 7.543,-10.952 7.543,-18.343 0,-7.276 -2.553,-13.465 -7.656,-18.571 C 50.967,4.824 44.795,2.272 37.557,2.272 Z m 8.572,18.285 0,13.085 -3.656,0 0,15.542 -9.944,0 0,-15.541 -3.656,0 0,-13.086 c 0,-0.572 0.2,-1.057 0.599,-1.457 0.401,-0.399 0.887,-0.6 1.457,-0.6 l 13.144,0 c 0.533,0 1.01,0.2 1.428,0.6 0.417,0.4 0.628,0.886 0.628,1.457 z M 33.042,12.329 c 0,-3.008 1.485,-4.514 4.458,-4.514 2.973,0 4.457,1.504 4.457,4.514 0,2.971 -1.486,4.457 -4.457,4.457 -2.971,0 -4.458,-1.486 -4.458,-4.457 z"
           id="path4412" />
      </g>
      <g
         style="fill:#666666;stroke:none"
         id="g4429"
         transform="translate(-602.46177,176.0432)">
        <path
           style="fill:#666666;stroke:none"
           d="m 37.443,-3.5 c 8.951,0 16.531,3.105 22.742,9.315 6.208,6.172 9.315,13.733 9.315,22.685 0,8.954 -3.049,16.457 -9.145,22.514 C 53.918,57.338 46.279,60.5 37.443,60.5 28.794,60.5 21.29,57.357 14.929,51.071 8.644,44.786 5.5,37.264 5.5,28.501 5.5,19.778 8.644,12.216 14.929,5.816 21.138,-0.395 28.643,-3.5 37.443,-3.5 Z m 0.114,5.772 c -7.276,0 -13.428,2.572 -18.457,7.715 -5.22,5.296 -7.829,11.467 -7.829,18.513 0,7.125 2.59,13.257 7.77,18.4 5.181,5.182 11.352,7.771 18.514,7.771 7.123,0 13.334,-2.609 18.629,-7.828 5.029,-4.876 7.543,-10.99 7.543,-18.343 0,-7.313 -2.553,-13.485 -7.656,-18.513 C 51.004,4.842 44.832,2.272 37.557,2.272 Z M 23.271,23.985 c 0.609,-3.924 2.189,-6.962 4.742,-9.114 2.552,-2.152 5.656,-3.228 9.314,-3.228 5.027,0 9.029,1.62 12,4.856 2.971,3.238 4.457,7.391 4.457,12.457 0,4.915 -1.543,9 -4.627,12.256 -3.088,3.256 -7.086,4.886 -12.002,4.886 -3.619,0 -6.743,-1.085 -9.371,-3.257 -2.629,-2.172 -4.209,-5.257 -4.743,-9.257 l 8.059,0 c 0.19,3.886 2.533,5.829 7.029,5.829 2.246,0 4.057,-0.972 5.428,-2.914 1.373,-1.942 2.059,-4.534 2.059,-7.771 0,-3.391 -0.629,-5.971 -1.885,-7.743 -1.258,-1.771 -3.066,-2.657 -5.43,-2.657 -4.268,0 -6.667,1.885 -7.2,5.656 l 2.343,0 -6.342,6.343 -6.343,-6.343 2.512,10e-4 0,0 z"
           id="path4431" />
      </g>
    </g>
  </g>
</svg>
