<?xml version="1.0" encoding="UTF-8" standalone="no"?>
<svg
   xmlns:dc="http://purl.org/dc/elements/1.1/"
   xmlns:cc="http://creativecommons.org/ns#"
   xmlns:rdf="http://www.w3.org/1999/02/22-rdf-syntax-ns#"
   xmlns:svg="http://www.w3.org/2000/svg"
   xmlns="http://www.w3.org/2000/svg"
   version="1.1"
   id="svg2"
   height="1488.189"
   width="2104.7244">
  <defs
     id="defs4" />
  <metadata
     id="metadata7">
    <rdf:RDF>
      <cc:Work
         rdf:about="">
        <dc:format>image/svg+xml</dc:format>
        <dc:type
           rdf:resource="http://purl.org/dc/dcmitype/StillImage" />
        <dc:title></dc:title>
      </cc:Work>
    </rdf:RDF>
  </metadata>
  <g
     transform="translate(6,427.82688)"
     id="layer1">
    <path
       id="rect2985"
       d="m -6,-427.82688 2104.7244,0 0,1488.18898 -2104.7244,0 z"
       style="fill:#1a1a1a;fill-opacity:1;fill-rule:nonzero;stroke:none" />
    <g
       transform="matrix(3.8532111,0,0,3.8532111,27.119266,-3033.4369)"
       id="text2988"
       style="font-style:normal;font-variant:normal;font-weight:normal;font-stretch:normal;font-size:274.24459839px;line-height:125%;font-family:'Ubuntu Mono';-inkscape-font-specification:'Ubuntu Mono';letter-spacing:0px;word-spacing:0px;fill:#ffff00;fill-opacity:1;stroke:none">
      <path
         id="path3030"
         d="m 171.13683,814.79254 c -1.1e-4,5.85067 -1.1885,11.51839 -3.56518,17.00316 -2.19406,5.485 -5.21075,10.87847 -9.05007,16.18044 -3.65669,5.30215 -7.86177,10.51279 -12.61525,15.63194 -4.75366,5.1193 -9.59864,10.14712 -14.53496,15.08345 -2.74252,2.74251 -5.94204,6.03344 -9.59856,9.87281 -3.65666,3.83947 -7.13042,7.7703 -10.4213,11.79251 -3.29099,4.0223 -6.03343,7.95313 -8.22734,11.79252 -2.194,3.83945 -3.290977,7.13038 -3.290933,9.87281 l 78.159713,0 0,19.19712 -102.841727,0 c -0.182848,-0.91415 -0.274263,-1.8283 -0.274244,-2.74245 -1.9e-5,-1.09697 -1.9e-5,-2.10253 0,-3.01669 -1.9e-5,-7.67883 1.279788,-14.80918 3.839424,-21.39108 2.559591,-6.58183 5.850523,-12.79804 9.872806,-18.64863 4.022217,-5.8505 8.501541,-11.33538 13.437981,-16.45467 5.11919,-5.302 10.147,-10.42123 15.08346,-15.3577 4.02219,-4.02217 7.86161,-7.95301 11.51827,-11.79252 3.83935,-3.83933 7.13028,-7.67875 9.87281,-11.51827 2.92519,-3.83932 5.21056,-7.77016 6.85611,-11.79252 1.82821,-4.20497 2.74235,-8.50146 2.74245,-12.8895 -1e-4,-4.93627 -0.82283,-9.14135 -2.4682,-12.61525 -1.46273,-3.47362 -3.56527,-6.30748 -6.30763,-8.50158 -2.5597,-2.37664 -5.57639,-4.11352 -9.05007,-5.21065 -3.47384,-1.09682 -7.22184,-1.64531 -11.24403,-1.64547 -4.75363,1.6e-4 -9.14154,0.64006 -13.16374,1.91972 -3.83947,1.27995 -7.313233,2.83401 -10.421296,4.66215 -2.925313,1.82845 -5.484926,3.65674 -7.678849,5.4849 -2.193986,1.6456 -3.839452,3.01683 -4.936403,4.11367 L 71.586044,787.91657 c 1.46262,-1.64531 3.656575,-3.65644 6.58187,-6.03338 2.925251,-2.37663 6.399012,-4.57058 10.421295,-6.58187 4.205047,-2.19379 8.8672,-4.02209 13.986471,-5.48489 5.11918,-1.46247 10.60407,-2.19379 16.45468,-2.19396 17.7344,1.7e-4 30.80672,4.11384 39.21698,12.34101 8.59288,8.04466 12.88938,19.65433 12.88949,34.82906" />
      <path
         id="path3032"
         d="m 205.69165,885.54765 112.16604,0 0,19.47136 -112.16604,0 0,-19.47136 m 0,-52.10648 112.16604,0 0,19.47137 -112.16604,0 0,-19.47137" />
      <path
         id="path3034"
         d="m 445.38143,814.79254 c -1.1e-4,5.85067 -1.18851,11.51839 -3.56518,17.00316 -2.19406,5.485 -5.21075,10.87847 -9.05007,16.18044 -3.65669,5.30215 -7.86177,10.51279 -12.61525,15.63194 -4.75366,5.1193 -9.59864,10.14712 -14.53497,15.08345 -2.74251,2.74251 -5.94203,6.03344 -9.59856,9.87281 -3.65665,3.83947 -7.13041,7.7703 -10.42129,11.79251 -3.29099,4.0223 -6.03343,7.95313 -8.22734,11.79252 -2.194,3.83945 -3.29098,7.13038 -3.29093,9.87281 l 78.15971,0 0,19.19712 -102.84173,0 c -0.18285,-0.91415 -0.27426,-1.8283 -0.27424,-2.74245 -2e-5,-1.09697 -2e-5,-2.10253 0,-3.01669 -2e-5,-7.67883 1.27979,-14.80918 3.83942,-21.39108 2.55959,-6.58183 5.85052,-12.79804 9.87281,-18.64863 4.02221,-5.8505 8.50154,-11.33538 13.43798,-16.45467 5.11918,-5.302 10.147,-10.42123 15.08346,-15.3577 4.02218,-4.02217 7.8616,-7.95301 11.51827,-11.79252 3.83935,-3.83933 7.13028,-7.67875 9.8728,-11.51827 2.92519,-3.83932 5.21056,-7.77016 6.85612,-11.79252 1.82821,-4.20497 2.74235,-8.50146 2.74245,-12.8895 -1e-4,-4.93627 -0.82283,-9.14135 -2.46821,-12.61525 -1.46272,-3.47362 -3.56526,-6.30748 -6.30762,-8.50158 -2.5597,-2.37664 -5.57639,-4.11352 -9.05007,-5.21065 -3.47384,-1.09682 -7.22185,-1.64531 -11.24403,-1.64547 -4.75363,1.6e-4 -9.14154,0.64006 -13.16374,1.91972 -3.83947,1.27995 -7.31324,2.83401 -10.4213,4.66215 -2.92531,1.82845 -5.48492,3.65674 -7.67885,5.4849 -2.19398,1.6456 -3.83945,3.01683 -4.9364,4.11367 l -11.24403,-15.90619 c 1.46262,-1.64531 3.65658,-3.65644 6.58187,-6.03338 2.92525,-2.37663 6.39901,-4.57058 10.4213,-6.58187 4.20504,-2.19379 8.8672,-4.02209 13.98647,-5.48489 5.11918,-1.46247 10.60407,-2.19379 16.45468,-2.19396 17.7344,1.7e-4 30.80671,4.11384 39.21698,12.34101 8.59288,8.04466 12.88938,19.65433 12.88949,34.82906" />
    </g>
    <g
       transform="matrix(2.4940539,0,0,2.4940539,705.03051,-1622.9461)"
       id="text2995-3"
       style="font-style:normal;font-variant:normal;font-weight:normal;font-stretch:normal;font-size:19.86440849px;line-height:125%;font-family:Ubuntu;-inkscape-font-specification:Ubuntu;letter-spacing:0px;word-spacing:0px;fill:#666666;fill-opacity:1;stroke:none">
      <path
         id="path3037"
         style="font-size:24px;fill:#666666"
         d="m 378.19425,1017.5757 c 0.65599,0 1.21599,0.048 1.68,0.144 0.47999,0.096 0.81599,0.184 1.008,0.264 l -0.408,1.92 c -0.19201,-0.096 -0.46401,-0.184 -0.816,-0.264 -0.35201,-0.096 -0.78401,-0.144 -1.296,-0.144 -1.04,0 -1.768,0.288 -2.184,0.864 -0.416,0.56 -0.624,1.32 -0.624,2.28 l 0,1.08 4.8,0 0,1.872 -4.8,0 0,10.608 -2.232,0 0,-13.608 c 0,-1.6 0.392,-2.832 1.176,-3.696 0.784,-0.88 2.016,-1.32 3.696,-1.32" />
      <path
         id="path3039"
         style="font-size:24px;fill:#666666"
         d="m 386.8275,1034.5917 c 0.528,0 0.992,-0.01 1.392,-0.024 0.41599,-0.032 0.75999,-0.08 1.032,-0.144 l 0,-3.72 c -0.16001,-0.08 -0.42401,-0.144 -0.792,-0.192 -0.35201,-0.064 -0.784,-0.096 -1.296,-0.096 -0.336,0 -0.696,0.024 -1.08,0.072 -0.368,0.048 -0.712,0.152 -1.032,0.312 -0.304,0.144 -0.56,0.352 -0.768,0.624 -0.208,0.256 -0.312,0.6 -0.312,1.032 0,0.8 0.256,1.36 0.768,1.68 0.512,0.304 1.208,0.456 2.088,0.456 m -0.192,-11.184 c 0.896,0 1.64799,0.12 2.256,0.36 0.62399,0.224 1.11999,0.552 1.488,0.984 0.38399,0.416 0.65599,0.92 0.816,1.512 0.15999,0.576 0.23999,1.216 0.24,1.92 l 0,7.8 c -0.19201,0.032 -0.46401,0.08 -0.816,0.144 -0.33601,0.048 -0.72001,0.096 -1.152,0.144 -0.43201,0.048 -0.90401,0.088 -1.416,0.12 -0.496,0.048 -0.992,0.072 -1.488,0.072 -0.704,0 -1.352,-0.072 -1.944,-0.216 -0.592,-0.144 -1.104,-0.368 -1.536,-0.672 -0.432,-0.32 -0.768,-0.736 -1.008,-1.248 -0.24,-0.512 -0.36,-1.128 -0.36,-1.848 0,-0.688 0.136,-1.28 0.408,-1.776 0.288,-0.496 0.672,-0.896 1.152,-1.2 0.48,-0.304 1.04,-0.528 1.68,-0.672 0.64,-0.144 1.312,-0.216 2.016,-0.216 0.224,0 0.456,0.016 0.696,0.048 0.23999,0.016 0.46399,0.048 0.672,0.096 0.22399,0.032 0.41599,0.064 0.576,0.096 0.15999,0.032 0.27199,0.056 0.336,0.072 l 0,-0.624 c -1e-5,-0.368 -0.04,-0.728 -0.12,-1.08 -0.08,-0.368 -0.22401,-0.688 -0.432,-0.96 -0.20801,-0.288 -0.49601,-0.512 -0.864,-0.672 -0.352,-0.176 -0.816,-0.264 -1.392,-0.264 -0.736,0 -1.384,0.056 -1.944,0.168 -0.544,0.096 -0.952,0.2 -1.224,0.312 l -0.264,-1.848 c 0.288,-0.128 0.768,-0.248 1.44,-0.36 0.672,-0.128 1.4,-0.192 2.184,-0.192" />
      <path
         id="path3041"
         style="font-size:24px;fill:#666666"
         d="m 398.86313,1036.4397 c -1.37601,-0.032 -2.35201,-0.328 -2.928,-0.888 -0.576,-0.56 -0.864,-1.432 -0.864,-2.616 l 0,-14.976 2.232,-0.384 0,15 c -1e-5,0.368 0.032,0.672 0.096,0.912 0.064,0.24 0.16799,0.432 0.312,0.576 0.14399,0.144 0.33599,0.256 0.576,0.336 0.23999,0.064 0.53599,0.12 0.888,0.168 l -0.312,1.872" />
      <path
         id="path3043"
         style="font-size:24px;fill:#666666"
         d="m 405.90563,1034.5917 c 0.52799,0 0.99199,-0.01 1.392,-0.024 0.41599,-0.032 0.75999,-0.08 1.032,-0.144 l 0,-3.72 c -0.16001,-0.08 -0.42401,-0.144 -0.792,-0.192 -0.35201,-0.064 -0.78401,-0.096 -1.296,-0.096 -0.33601,0 -0.69601,0.024 -1.08,0.072 -0.36801,0.048 -0.71201,0.152 -1.032,0.312 -0.30401,0.144 -0.56001,0.352 -0.768,0.624 -0.20801,0.256 -0.31201,0.6 -0.312,1.032 -10e-6,0.8 0.25599,1.36 0.768,1.68 0.51199,0.304 1.20799,0.456 2.088,0.456 m -0.192,-11.184 c 0.89599,0 1.64799,0.12 2.256,0.36 0.62399,0.224 1.11999,0.552 1.488,0.984 0.38399,0.416 0.65599,0.92 0.816,1.512 0.15999,0.576 0.23999,1.216 0.24,1.92 l 0,7.8 c -0.19201,0.032 -0.46401,0.08 -0.816,0.144 -0.33601,0.048 -0.72001,0.096 -1.152,0.144 -0.43201,0.048 -0.90401,0.088 -1.416,0.12 -0.49601,0.048 -0.99201,0.072 -1.488,0.072 -0.70401,0 -1.35201,-0.072 -1.944,-0.216 -0.59201,-0.144 -1.10401,-0.368 -1.536,-0.672 -0.432,-0.32 -0.768,-0.736 -1.008,-1.248 -0.24,-0.512 -0.36,-1.128 -0.36,-1.848 0,-0.688 0.136,-1.28 0.408,-1.776 0.288,-0.496 0.672,-0.896 1.152,-1.2 0.47999,-0.304 1.03999,-0.528 1.68,-0.672 0.63999,-0.144 1.31199,-0.216 2.016,-0.216 0.22399,0 0.45599,0.016 0.696,0.048 0.23999,0.016 0.46399,0.048 0.672,0.096 0.22399,0.032 0.41599,0.064 0.576,0.096 0.15999,0.032 0.27199,0.056 0.336,0.072 l 0,-0.624 c -1e-5,-0.368 -0.04,-0.728 -0.12,-1.08 -0.08,-0.368 -0.22401,-0.688 -0.432,-0.96 -0.20801,-0.288 -0.49601,-0.512 -0.864,-0.672 -0.35201,-0.176 -0.81601,-0.264 -1.392,-0.264 -0.73601,0 -1.38401,0.056 -1.944,0.168 -0.54401,0.096 -0.95201,0.2 -1.224,0.312 l -0.264,-1.848 c 0.28799,-0.128 0.76799,-0.248 1.44,-0.36 0.67199,-0.128 1.39999,-0.192 2.184,-0.192" />
      <path
         id="path3045"
         style="font-size:24px;fill:#666666"
         d="m 414.19725,1024.0797 c 0.512,-0.128 1.192,-0.264 2.04,-0.408 0.848,-0.144 1.824,-0.216 2.928,-0.216 0.99199,0 1.81599,0.144 2.472,0.432 0.65599,0.272 1.17599,0.664 1.56,1.176 0.39999,0.496 0.67999,1.096 0.84,1.8 0.15999,0.704 0.23999,1.48 0.24,2.328 l 0,7.008 -2.232,0 0,-6.528 c -1e-5,-0.768 -0.056,-1.424 -0.168,-1.968 -0.096,-0.544 -0.26401,-0.984 -0.504,-1.32 -0.24001,-0.336 -0.56001,-0.576 -0.96,-0.72 -0.40001,-0.16 -0.89601,-0.24 -1.488,-0.24 -0.24,0 -0.488,0.01 -0.744,0.024 -0.256,0.016 -0.504,0.04 -0.744,0.072 -0.224,0.016 -0.432,0.04 -0.624,0.072 -0.176,0.032 -0.304,0.056 -0.384,0.072 l 0,10.536 -2.232,0 0,-12.12" />
      <path
         id="path3047"
         style="font-size:24px;fill:#666666"
         d="m 430.8825,1034.5917 c 0.912,0 1.584,-0.12 2.016,-0.36 0.44799,-0.24 0.67199,-0.624 0.672,-1.152 -10e-6,-0.544 -0.21601,-0.976 -0.648,-1.296 -0.432,-0.32 -1.144,-0.68 -2.136,-1.08 -0.48,-0.192 -0.944,-0.384 -1.392,-0.576 -0.432,-0.208 -0.808,-0.448 -1.128,-0.72 -0.32,-0.272 -0.576,-0.6 -0.768,-0.984 -0.192,-0.384 -0.288,-0.856 -0.288,-1.416 0,-1.104 0.408,-1.976 1.224,-2.616 0.816,-0.656 1.928,-0.984 3.336,-0.984 0.352,0 0.704,0.024 1.056,0.072 0.352,0.032 0.67999,0.08 0.984,0.144 0.30399,0.048 0.56799,0.104 0.792,0.168 0.23999,0.064 0.42399,0.12 0.552,0.168 l -0.408,1.92 c -0.24001,-0.128 -0.61601,-0.256 -1.128,-0.384 -0.512,-0.144 -1.128,-0.216 -1.848,-0.216 -0.624,0 -1.168,0.128 -1.632,0.384 -0.464,0.24 -0.696,0.624 -0.696,1.152 0,0.272 0.048,0.512 0.144,0.72 0.112,0.208 0.272,0.4 0.48,0.576 0.224,0.16 0.496,0.312 0.816,0.456 0.32,0.144 0.704,0.296 1.152,0.456 0.592,0.224 1.12,0.448 1.584,0.672 0.46399,0.208 0.85599,0.456 1.176,0.744 0.33599,0.288 0.59199,0.64 0.768,1.056 0.17599,0.4 0.26399,0.896 0.264,1.488 -1e-5,1.152 -0.43201,2.024 -1.296,2.616 -0.84801,0.592 -2.064,0.888 -3.648,0.888 -1.104,0 -1.968,-0.096 -2.592,-0.288 -0.624,-0.176 -1.048,-0.312 -1.272,-0.408 l 0.408,-1.92 c 0.256,0.096 0.664,0.24 1.224,0.432 0.56,0.192 1.304,0.288 2.232,0.288" />
      <path
         id="path3049"
         style="font-size:24px;fill:#666666"
         d="m 440.754,1023.7197 4.728,0 0,1.872 -4.728,0 0,5.76 c 0,0.624 0.048,1.144 0.144,1.56 0.096,0.4 0.24,0.72 0.432,0.96 0.192,0.224 0.432,0.384 0.72,0.48 0.288,0.096 0.624,0.144 1.008,0.144 0.672,0 1.20799,-0.072 1.608,-0.216 0.41599,-0.16 0.70399,-0.272 0.864,-0.336 l 0.432,1.848 c -0.22401,0.112 -0.61601,0.248 -1.176,0.408 -0.56001,0.176 -1.2,0.264 -1.92,0.264 -0.848,0 -1.552,-0.104 -2.112,-0.312 -0.544,-0.224 -0.984,-0.552 -1.32,-0.984 -0.336,-0.432 -0.576,-0.96 -0.72,-1.584 -0.128,-0.64 -0.192,-1.376 -0.192,-2.208 l 0,-11.136 2.232,-0.384 0,3.864" />
      <path
         id="path3051"
         style="font-size:24px;fill:#666666"
         d="m 447.39188,1029.9837 c 0,-1.104 0.16,-2.064 0.48,-2.88 0.32,-0.832 0.74399,-1.52 1.272,-2.064 0.52799,-0.544 1.13599,-0.952 1.824,-1.224 0.68799,-0.272 1.39199,-0.408 2.112,-0.408 1.67999,0 2.96799,0.528 3.864,1.584 0.89599,1.04 1.34399,2.632 1.344,4.776 -10e-6,0.096 -10e-6,0.224 0,0.384 -10e-6,0.144 -0.008,0.28 -0.024,0.408 l -8.544,0 c 0.096,1.296 0.47199,2.28 1.128,2.952 0.65599,0.672 1.67999,1.008 3.072,1.008 0.78399,0 1.43999,-0.064 1.968,-0.192 0.54399,-0.144 0.95199,-0.28 1.224,-0.408 l 0.312,1.872 c -0.27201,0.144 -0.75201,0.296 -1.44,0.456 -0.67201,0.16 -1.44001,0.24 -2.304,0.24 -1.08801,0 -2.03201,-0.16 -2.832,-0.48 -0.78401,-0.336 -1.43201,-0.792 -1.944,-1.368 -0.51201,-0.576 -0.896,-1.256 -1.152,-2.04 -0.24,-0.8 -0.36,-1.672 -0.36,-2.616 m 8.568,-1.224 c 0.016,-1.008 -0.24001,-1.832 -0.768,-2.472 -0.51201,-0.656 -1.22401,-0.984 -2.136,-0.984 -0.51201,0 -0.96801,0.104 -1.368,0.312 -0.38401,0.192 -0.71201,0.448 -0.984,0.768 -0.27201,0.32 -0.48801,0.688 -0.648,1.104 -0.14401,0.416 -0.24001,0.84 -0.288,1.272 l 6.192,0" />
      <path
         id="path3053"
         style="font-size:24px;fill:#666666"
         d="m 466.10213,1023.4557 c 0.19199,0 0.40799,0.016 0.648,0.048 0.25599,0.016 0.50399,0.048 0.744,0.096 0.23999,0.032 0.45599,0.072 0.648,0.12 0.20799,0.032 0.35999,0.064 0.456,0.096 l -0.384,1.944 c -0.17601,-0.064 -0.47201,-0.136 -0.888,-0.216 -0.40001,-0.096 -0.92001,-0.144 -1.56,-0.144 -0.41601,0 -0.83201,0.048 -1.248,0.144 -0.40001,0.08 -0.66401,0.136 -0.792,0.168 l 0,10.488 -2.232,0 0,-11.952 c 0.52799,-0.192 1.18399,-0.368 1.968,-0.528 0.78399,-0.176 1.66399,-0.264 2.64,-0.264" />
      <path
         id="path3055"
         style="font-size:24px;fill:#666666"
         d="m 472.10288,1034.9037 c -1e-5,0.432 -0.14401,0.808 -0.432,1.128 -0.28801,0.32 -0.68001,0.48 -1.176,0.48 -0.49601,0 -0.888,-0.16 -1.176,-0.48 -0.288,-0.32 -0.432,-0.696 -0.432,-1.128 0,-0.432 0.144,-0.808 0.432,-1.128 0.288,-0.32 0.67999,-0.48 1.176,-0.48 0.49599,0 0.88799,0.16 1.176,0.48 0.28799,0.32 0.43199,0.696 0.432,1.128" />
      <path
         id="path3057"
         style="font-size:24px;fill:#666666"
         d="m 477.60113,1024.2717 c 0.27199,-0.176 0.67999,-0.36 1.224,-0.552 0.55999,-0.192 1.19999,-0.288 1.92,-0.288 0.89599,0 1.68799,0.16 2.376,0.48 0.70399,0.32 1.29599,0.768 1.776,1.344 0.47999,0.576 0.83998,1.264 1.08,2.064 0.25598,0.8 0.38398,1.68 0.384,2.64 -2e-5,1.008 -0.15202,1.92 -0.456,2.736 -0.28801,0.8 -0.70401,1.48 -1.248,2.04 -0.54401,0.56 -1.20001,0.992 -1.968,1.296 -0.76801,0.304 -1.63201,0.456 -2.592,0.456 -1.04001,0 -1.96001,-0.072 -2.76,-0.216 -0.80001,-0.144 -1.45601,-0.288 -1.968,-0.432 l 0,-17.88 2.232,-0.384 0,6.696 m 0,9.984 c 0.22399,0.064 0.53599,0.128 0.936,0.192 0.41599,0.048 0.92799,0.072 1.536,0.072 1.19999,0 2.15999,-0.392 2.88,-1.176 0.71999,-0.8 1.07999,-1.928 1.08,-3.384 -1e-5,-0.64 -0.064,-1.24 -0.192,-1.8 -0.12801,-0.56 -0.33601,-1.04 -0.624,-1.44 -0.28801,-0.416 -0.66401,-0.736 -1.128,-0.96 -0.44801,-0.24 -0.99201,-0.36 -1.632,-0.36 -0.60801,0 -1.16801,0.104 -1.68,0.312 -0.51201,0.208 -0.90401,0.424 -1.176,0.648 l 0,7.896" />
      <path
         id="path3059"
         style="font-size:24px;fill:#666666"
         d="m 487.73325,1038.5277 c 0.176,0.08 0.4,0.152 0.672,0.216 0.288,0.08 0.568,0.12 0.84,0.12 0.88,0 1.568,-0.2 2.064,-0.6 0.496,-0.384 0.944,-1.016 1.344,-1.896 -1.008,-1.92 -1.952,-3.952 -2.832,-6.096 -0.864,-2.16 -1.584,-4.344 -2.16,-6.552 l 2.4,0 c 0.176,0.72 0.384,1.496 0.624,2.328 0.256,0.832 0.536,1.688 0.84,2.568 0.304,0.88 0.632,1.76 0.984,2.64 0.352,0.88 0.72,1.728 1.104,2.544 0.608,-1.68 1.13599,-3.344 1.584,-4.992 0.44799,-1.648 0.87199,-3.344 1.272,-5.088 l 2.304,0 c -0.57601,2.352 -1.21601,4.616 -1.92,6.792 -0.70401,2.16 -1.46401,4.184 -2.28,6.072 -0.32,0.72 -0.656,1.336 -1.008,1.848 -0.336,0.528 -0.712,0.96 -1.128,1.296 -0.416,0.336 -0.888,0.584 -1.416,0.744 -0.512,0.16 -1.096,0.24 -1.752,0.24 -0.176,0 -0.36,-0.016 -0.552,-0.048 -0.192,-0.016 -0.384,-0.048 -0.576,-0.096 -0.176,-0.032 -0.344,-0.072 -0.504,-0.12 -0.144,-0.048 -0.248,-0.088 -0.312,-0.12 l 0.408,-1.8" />
    </g>
    <g
       transform="matrix(3.8532111,0,0,3.8532111,27.119266,-3033.4369)"
       id="text3044"
       style="font-style:normal;font-variant:normal;font-weight:normal;font-stretch:normal;font-size:40px;line-height:125%;font-family:'Ubuntu Mono';-inkscape-font-specification:'Ubuntu Mono';letter-spacing:0px;word-spacing:0px;fill:#e6e6e6;fill-opacity:1;stroke:none">
      <path
         id="path3062"
         style="font-size:28px;fill:#e6e6e6"
         d="m 38.275966,1036.1997 -2.324,0 0,-11.06 -5.376,0 0,11.06 -2.324,0 0,-12.992 10.024,0 0,12.992" />
      <path
         id="path3064"
         style="font-size:28px;fill:#e6e6e6"
         d="m 47.403966,1034.5477 c 0.578659,0 1.091991,-0.019 1.54,-0.056 0.466657,-0.037 0.849323,-0.084 1.148,-0.14 l 0,-3.864 c -0.298677,-0.093 -0.662676,-0.168 -1.092,-0.224 -0.410675,-0.056 -0.849342,-0.084 -1.316,-0.084 -0.429341,0 -0.84934,0.037 -1.26,0.112 -0.410673,0.056 -0.774672,0.168 -1.092,0.336 -0.317338,0.168 -0.578672,0.392 -0.784,0.672 -0.205338,0.2613 -0.308004,0.5973 -0.308,1.008 -4e-6,0.84 0.279995,1.428 0.84,1.764 0.578661,0.3173 1.353327,0.476 2.324,0.476 m -0.224,-11.648 c 0.970658,0 1.782658,0.1214 2.436,0.364 0.67199,0.2427 1.213322,0.5787 1.624,1.008 0.410655,0.4294 0.699988,0.952 0.868,1.568 0.167988,0.616 0.251988,1.288 0.252,2.016 l 0,8.12 c -0.541345,0.093 -1.260011,0.2053 -2.156,0.336 -0.877343,0.1307 -1.782675,0.196 -2.716,0.196 -0.70934,0 -1.400006,-0.065 -2.072,-0.196 -0.672005,-0.112 -1.269338,-0.3173 -1.792,-0.616 -0.52267,-0.3173 -0.942669,-0.7467 -1.26,-1.288 -0.317336,-0.5413 -0.476002,-1.232 -0.476,-2.072 -2e-6,-0.7467 0.158664,-1.372 0.476,-1.876 0.335997,-0.5227 0.755997,-0.9427 1.26,-1.26 0.522662,-0.3173 1.110662,-0.5413 1.764,-0.672 0.671994,-0.1493 1.343993,-0.224 2.016,-0.224 0.914658,0 1.810657,0.1027 2.688,0.308 l 0,-0.644 c -10e-6,-0.392 -0.04668,-0.7653 -0.14,-1.12 -0.07468,-0.3733 -0.233343,-0.7093 -0.476,-1.008 -0.224009,-0.2986 -0.541342,-0.532 -0.952,-0.7 -0.392008,-0.1866 -0.905341,-0.28 -1.54,-0.28 -0.802673,0 -1.502672,0.056 -2.1,0.168 -0.597338,0.112 -1.054671,0.224 -1.372,0.336 l -0.28,-1.904 c 0.31733,-0.1493 0.839996,-0.28 1.568,-0.392 0.746661,-0.112 1.539994,-0.168 2.38,-0.168" />
      <path
         id="path3066"
         style="font-size:28px;fill:#e6e6e6"
         d="m 55.635966,1029.7317 c -2e-6,-1.176 0.186665,-2.1933 0.56,-3.052 0.373331,-0.8586 0.886663,-1.568 1.54,-2.128 0.653329,-0.56 1.409328,-0.9706 2.268,-1.232 0.877326,-0.28 1.810659,-0.42 2.8,-0.42 0.634657,0 1.25999,0.047 1.876,0.14 0.634655,0.075 1.306655,0.224 2.016,0.448 l -0.532,1.988 c -0.616012,-0.224 -1.185344,-0.364 -1.708,-0.42 -0.50401,-0.075 -1.017343,-0.112 -1.54,-0.112 -0.672008,0 -1.306674,0.093 -1.904,0.28 -0.59734,0.168 -1.120006,0.448 -1.568,0.84 -0.429338,0.3734 -0.774671,0.868 -1.036,1.484 -0.261338,0.5973 -0.392004,1.3253 -0.392,2.184 -4e-6,0.8213 0.121329,1.5307 0.364,2.128 0.242662,0.5787 0.578662,1.064 1.008,1.456 0.447994,0.3733 0.979994,0.6533 1.596,0.84 0.615992,0.1867 1.297325,0.28 2.044,0.28 0.597324,0 1.166656,-0.028 1.708,-0.084 0.559989,-0.075 1.166655,-0.224 1.82,-0.448 l 0.336,1.932 c -0.653346,0.2427 -1.316012,0.4107 -1.988,0.504 -0.67201,0.112 -1.40001,0.168 -2.184,0.168 -1.045341,0 -2.006674,-0.14 -2.884,-0.42 -0.858672,-0.2987 -1.605338,-0.728 -2.24,-1.288 -0.616003,-0.56 -1.101336,-1.26 -1.456,-2.1 -0.336002,-0.8587 -0.504002,-1.848 -0.504,-2.968" />
      <path
         id="path3068"
         style="font-size:28px;fill:#e6e6e6"
         d="m 80.639966,1023.2077 0,1.932 -4.228,0 0,11.06 -2.296,0 0,-11.06 -4.228,0 0,-1.932 10.752,0" />
      <path
         id="path3070"
         style="font-size:28px;fill:#e6e6e6"
         d="m 89.403966,1034.5477 c 0.578659,0 1.091991,-0.019 1.54,-0.056 0.466657,-0.037 0.849323,-0.084 1.148,-0.14 l 0,-3.864 c -0.298677,-0.093 -0.662676,-0.168 -1.092,-0.224 -0.410675,-0.056 -0.849342,-0.084 -1.316,-0.084 -0.429341,0 -0.84934,0.037 -1.26,0.112 -0.410673,0.056 -0.774672,0.168 -1.092,0.336 -0.317338,0.168 -0.578672,0.392 -0.784,0.672 -0.205338,0.2613 -0.308004,0.5973 -0.308,1.008 -4e-6,0.84 0.279995,1.428 0.84,1.764 0.578661,0.3173 1.353327,0.476 2.324,0.476 m -0.224,-11.648 c 0.970658,0 1.782658,0.1214 2.436,0.364 0.67199,0.2427 1.213322,0.5787 1.624,1.008 0.410655,0.4294 0.699988,0.952 0.868,1.568 0.167988,0.616 0.251988,1.288 0.252,2.016 l 0,8.12 c -0.541345,0.093 -1.260011,0.2053 -2.156,0.336 -0.877343,0.1307 -1.782675,0.196 -2.716,0.196 -0.70934,0 -1.400006,-0.065 -2.072,-0.196 -0.672005,-0.112 -1.269338,-0.3173 -1.792,-0.616 -0.52267,-0.3173 -0.942669,-0.7467 -1.26,-1.288 -0.317336,-0.5413 -0.476002,-1.232 -0.476,-2.072 -2e-6,-0.7467 0.158664,-1.372 0.476,-1.876 0.335997,-0.5227 0.755997,-0.9427 1.26,-1.26 0.522662,-0.3173 1.110662,-0.5413 1.764,-0.672 0.671994,-0.1493 1.343993,-0.224 2.016,-0.224 0.914658,0 1.810657,0.1027 2.688,0.308 l 0,-0.644 c -1e-5,-0.392 -0.04668,-0.7653 -0.14,-1.12 -0.07468,-0.3733 -0.233343,-0.7093 -0.476,-1.008 -0.224009,-0.2986 -0.541342,-0.532 -0.952,-0.7 -0.392008,-0.1866 -0.905341,-0.28 -1.54,-0.28 -0.802673,0 -1.502672,0.056 -2.1,0.168 -0.597338,0.112 -1.054671,0.224 -1.372,0.336 l -0.28,-1.904 c 0.31733,-0.1493 0.839996,-0.28 1.568,-0.392 0.746661,-0.112 1.539994,-0.168 2.38,-0.168" />
      <path
         id="path3072"
         style="font-size:28px;fill:#e6e6e6"
         d="m 103.99197,1031.1597 c -0.26135,0 -0.51334,0 -0.756,0 -0.22401,-0.019 -0.43868,-0.037 -0.644,-0.056 -0.54134,0.8027 -1.05468,1.6613 -1.54,2.576 -0.48534,0.896 -0.92401,1.736 -1.316004,2.52 l -2.352,0 c 0.205332,-0.4853 0.438665,-0.98 0.7,-1.484 0.261331,-0.5227 0.531997,-1.0173 0.812,-1.484 0.279997,-0.4853 0.559996,-0.9427 0.84,-1.372 0.279994,-0.448 0.550664,-0.84 0.812004,-1.176 -0.933341,-0.336 -1.568007,-0.812 -1.904004,-1.428 -0.317336,-0.6347 -0.476002,-1.3067 -0.476,-2.016 -2e-6,-0.728 0.130664,-1.3626 0.392,-1.904 0.279997,-0.5413 0.662663,-0.9893 1.148,-1.344 0.485334,-0.3733 1.054664,-0.6533 1.708004,-0.84 0.67199,-0.1866 1.39999,-0.28 2.184,-0.28 1.10132,0 2.02532,0.047 2.772,0.14 0.74665,0.093 1.38132,0.2147 1.904,0.364 l 0,12.824 -2.324,0 0,-5.04 -1.96,0 m 1.96,-6.244 c -0.18668,-0.037 -0.48535,-0.065 -0.896,-0.084 -0.39201,-0.037 -0.86801,-0.056 -1.428,-0.056 -0.95201,0 -1.71734,0.196 -2.296,0.588 -0.57868,0.392 -0.86801,1.008 -0.868,1.848 -1e-5,0.84 0.29866,1.4187 0.896,1.736 0.59732,0.3173 1.37199,0.476 2.324,0.476 l 2.268,0 0,-4.508" />
      <path
         id="path3074"
         style="font-size:28px;fill:#e6e6e6"
         d="m 122.27597,1036.1997 -2.324,0 0,-5.74 -5.376,0 0,5.74 -2.324,0 0,-12.992 2.324,0 0,5.292 5.376,0 0,-5.292 2.324,0 0,12.992" />
      <path
         id="path3076"
         style="font-size:28px;fill:#e6e6e6"
         d="m 125.63597,1029.7317 c -1e-5,-1.176 0.18666,-2.1933 0.56,-3.052 0.37333,-0.8586 0.88666,-1.568 1.54,-2.128 0.65332,-0.56 1.40932,-0.9706 2.268,-1.232 0.87732,-0.28 1.81065,-0.42 2.8,-0.42 0.63465,0 1.25999,0.047 1.876,0.14 0.63465,0.075 1.30665,0.224 2.016,0.448 l -0.532,1.988 c -0.61602,-0.224 -1.18535,-0.364 -1.708,-0.42 -0.50401,-0.075 -1.01735,-0.112 -1.54,-0.112 -0.67201,0 -1.30668,0.093 -1.904,0.28 -0.59734,0.168 -1.12001,0.448 -1.568,0.84 -0.42934,0.3734 -0.77468,0.868 -1.036,1.484 -0.26134,0.5973 -0.39201,1.3253 -0.392,2.184 -1e-5,0.8213 0.12133,1.5307 0.364,2.128 0.24266,0.5787 0.57866,1.064 1.008,1.456 0.44799,0.3733 0.97999,0.6533 1.596,0.84 0.61599,0.1867 1.29732,0.28 2.044,0.28 0.59732,0 1.16665,-0.028 1.708,-0.084 0.55998,-0.075 1.16665,-0.224 1.82,-0.448 l 0.336,1.932 c -0.65335,0.2427 -1.31602,0.4107 -1.988,0.504 -0.67201,0.112 -1.40001,0.168 -2.184,0.168 -1.04535,0 -2.00668,-0.14 -2.884,-0.42 -0.85868,-0.2987 -1.60534,-0.728 -2.24,-1.288 -0.61601,-0.56 -1.10134,-1.26 -1.456,-2.1 -0.33601,-0.8587 -0.50401,-1.848 -0.504,-2.968" />
      <path
         id="path3078"
         style="font-size:28px;fill:#e6e6e6"
         d="m 150.63997,1023.2077 0,1.932 -4.228,0 0,11.06 -2.296,0 0,-11.06 -4.228,0 0,-1.932 10.752,0" />
      <path
         id="path3080"
         style="font-size:28px;fill:#e6e6e6"
         d="m 156.51997,1034.4357 c 0.18666,0.037 0.52266,0.075 1.008,0.112 0.48532,0.019 0.97066,0.028 1.456,0.028 0.48532,0 0.94265,-0.028 1.372,-0.084 0.44799,-0.075 0.83065,-0.196 1.148,-0.364 0.33599,-0.168 0.59732,-0.392 0.784,-0.672 0.20532,-0.28 0.30799,-0.6347 0.308,-1.064 -1e-5,-0.4107 -0.0933,-0.756 -0.28,-1.036 -0.16801,-0.28 -0.40135,-0.504 -0.7,-0.672 -0.29868,-0.168 -0.65335,-0.28 -1.064,-0.336 -0.41068,-0.075 -0.84935,-0.112 -1.316,-0.112 l -2.716,0 0,4.2 m 2.408,-5.908 c 0.89599,0 1.63332,-0.1307 2.212,-0.392 0.59732,-0.28 0.89599,-0.8027 0.896,-1.568 -1e-5,-0.392 -0.10268,-0.7 -0.308,-0.924 -0.18668,-0.2426 -0.44801,-0.4293 -0.784,-0.56 -0.31735,-0.1306 -0.68135,-0.2146 -1.092,-0.252 -0.41068,-0.037 -0.82134,-0.056 -1.232,-0.056 -0.39201,0 -0.77468,0.01 -1.148,0.028 -0.37334,0.019 -0.69068,0.037 -0.952,0.056 l 0,3.668 2.408,0 m -0.028,7.896 c -1.00801,0 -1.91334,-0.047 -2.716,-0.14 -0.80267,-0.093 -1.44667,-0.196 -1.932,-0.308 l 0,-12.656 c 0.48533,-0.112 1.12933,-0.2146 1.932,-0.308 0.80266,-0.093 1.70799,-0.14 2.716,-0.14 0.67199,0 1.33465,0.056 1.988,0.168 0.65332,0.112 1.23199,0.308 1.736,0.588 0.50398,0.28 0.90532,0.6534 1.204,1.12 0.31732,0.4667 0.47598,1.0547 0.476,1.764 -2e-5,0.6533 -0.15868,1.204 -0.476,1.652 -0.31735,0.4293 -0.74668,0.7747 -1.288,1.036 0.70932,0.2613 1.27865,0.6347 1.708,1.12 0.42932,0.4667 0.64398,1.148 0.644,2.044 -2e-5,0.784 -0.15868,1.4373 -0.476,1.96 -0.29868,0.5227 -0.71868,0.9427 -1.26,1.26 -0.54135,0.2987 -1.17601,0.5133 -1.904,0.644 -0.72801,0.1307 -1.51201,0.196 -2.352,0.196" />
      <path
         id="path3082"
         style="font-size:28px;fill:#e6e6e6"
         d="m 173.40397,1034.5477 c 0.57865,0 1.09199,-0.019 1.54,-0.056 0.46665,-0.037 0.84932,-0.084 1.148,-0.14 l 0,-3.864 c -0.29868,-0.093 -0.66268,-0.168 -1.092,-0.224 -0.41068,-0.056 -0.84935,-0.084 -1.316,-0.084 -0.42934,0 -0.84934,0.037 -1.26,0.112 -0.41068,0.056 -0.77468,0.168 -1.092,0.336 -0.31734,0.168 -0.57868,0.392 -0.784,0.672 -0.20534,0.2613 -0.30801,0.5973 -0.308,1.008 -1e-5,0.84 0.27999,1.428 0.84,1.764 0.57866,0.3173 1.35332,0.476 2.324,0.476 m -0.224,-11.648 c 0.97065,0 1.78265,0.1214 2.436,0.364 0.67199,0.2427 1.21332,0.5787 1.624,1.008 0.41065,0.4294 0.69998,0.952 0.868,1.568 0.16798,0.616 0.25198,1.288 0.252,2.016 l 0,8.12 c -0.54135,0.093 -1.26002,0.2053 -2.156,0.336 -0.87735,0.1307 -1.78268,0.196 -2.716,0.196 -0.70934,0 -1.40001,-0.065 -2.072,-0.196 -0.67201,-0.112 -1.26934,-0.3173 -1.792,-0.616 -0.52267,-0.3173 -0.94267,-0.7467 -1.26,-1.288 -0.31734,-0.5413 -0.47601,-1.232 -0.476,-2.072 -1e-5,-0.7467 0.15866,-1.372 0.476,-1.876 0.33599,-0.5227 0.75599,-0.9427 1.26,-1.26 0.52266,-0.3173 1.11066,-0.5413 1.764,-0.672 0.67199,-0.1493 1.34399,-0.224 2.016,-0.224 0.91465,0 1.81065,0.1027 2.688,0.308 l 0,-0.644 c -1e-5,-0.392 -0.0467,-0.7653 -0.14,-1.12 -0.0747,-0.3733 -0.23335,-0.7093 -0.476,-1.008 -0.22401,-0.2986 -0.54135,-0.532 -0.952,-0.7 -0.39201,-0.1866 -0.90535,-0.28 -1.54,-0.28 -0.80268,0 -1.50268,0.056 -2.1,0.168 -0.59734,0.112 -1.05467,0.224 -1.372,0.336 l -0.28,-1.904 c 0.31733,-0.1493 0.83999,-0.28 1.568,-0.392 0.74666,-0.112 1.53999,-0.168 2.38,-0.168" />
      <path
         id="path3084"
         style="font-size:28px;fill:#e6e6e6"
         d="m 197.28797,1029.7037 c -1e-5,1.456 0.27999,2.5853 0.84,3.388 0.57866,0.784 1.27866,1.1947 2.1,1.232 l 0,-9.24 c -0.82134,0.037 -1.52134,0.4574 -2.1,1.26 -0.56001,0.784 -0.84001,1.904 -0.84,3.36 m 4.984,4.62 c 0.82132,-0.037 1.52132,-0.448 2.1,-1.232 0.57865,-0.8027 0.86798,-1.932 0.868,-3.388 -2e-5,-1.456 -0.28935,-2.576 -0.868,-3.36 -0.57868,-0.8026 -1.27868,-1.2226 -2.1,-1.26 l 0,9.24 m 0,6.496 -2.044,0 0,-4.536 c -0.70934,-0.019 -1.38134,-0.1773 -2.016,-0.476 -0.61601,-0.2987 -1.16667,-0.728 -1.652,-1.288 -0.48534,-0.56 -0.86801,-1.2413 -1.148,-2.044 -0.28001,-0.8213 -0.42001,-1.7453 -0.42,-2.772 -1e-5,-1.0267 0.13999,-1.9413 0.42,-2.744 0.27999,-0.8213 0.66266,-1.512 1.148,-2.072 0.48533,-0.56 1.03599,-0.9893 1.652,-1.288 0.63466,-0.2986 1.30666,-0.4573 2.016,-0.476 l 0,-5.936 2.044,-0.392 0,6.328 c 0.70932,0.019 1.38132,0.1774 2.016,0.476 0.63465,0.2987 1.19465,0.728 1.68,1.288 0.48532,0.56 0.86798,1.2507 1.148,2.072 0.27998,0.8027 0.41998,1.7173 0.42,2.744 -2e-5,1.0267 -0.14002,1.9507 -0.42,2.772 -0.28002,0.8027 -0.66268,1.484 -1.148,2.044 -0.48535,0.56 -1.04535,0.9893 -1.68,1.288 -0.63468,0.2987 -1.30668,0.4573 -2.016,0.476 l 0,4.536" />
      <path
         id="path3086"
         style="font-size:28px;fill:#e6e6e6"
         d="m 215.40397,1034.5477 c 0.57865,0 1.09199,-0.019 1.54,-0.056 0.46665,-0.037 0.84932,-0.084 1.148,-0.14 l 0,-3.864 c -0.29868,-0.093 -0.66268,-0.168 -1.092,-0.224 -0.41068,-0.056 -0.84935,-0.084 -1.316,-0.084 -0.42934,0 -0.84934,0.037 -1.26,0.112 -0.41068,0.056 -0.77468,0.168 -1.092,0.336 -0.31734,0.168 -0.57868,0.392 -0.784,0.672 -0.20534,0.2613 -0.30801,0.5973 -0.308,1.008 -1e-5,0.84 0.27999,1.428 0.84,1.764 0.57866,0.3173 1.35332,0.476 2.324,0.476 m -0.224,-11.648 c 0.97065,0 1.78265,0.1214 2.436,0.364 0.67199,0.2427 1.21332,0.5787 1.624,1.008 0.41065,0.4294 0.69998,0.952 0.868,1.568 0.16798,0.616 0.25198,1.288 0.252,2.016 l 0,8.12 c -0.54135,0.093 -1.26002,0.2053 -2.156,0.336 -0.87735,0.1307 -1.78268,0.196 -2.716,0.196 -0.70934,0 -1.40001,-0.065 -2.072,-0.196 -0.67201,-0.112 -1.26934,-0.3173 -1.792,-0.616 -0.52267,-0.3173 -0.94267,-0.7467 -1.26,-1.288 -0.31734,-0.5413 -0.47601,-1.232 -0.476,-2.072 -1e-5,-0.7467 0.15866,-1.372 0.476,-1.876 0.33599,-0.5227 0.75599,-0.9427 1.26,-1.26 0.52266,-0.3173 1.11066,-0.5413 1.764,-0.672 0.67199,-0.1493 1.34399,-0.224 2.016,-0.224 0.91465,0 1.81065,0.1027 2.688,0.308 l 0,-0.644 c -1e-5,-0.392 -0.0467,-0.7653 -0.14,-1.12 -0.0747,-0.3733 -0.23335,-0.7093 -0.476,-1.008 -0.22401,-0.2986 -0.54135,-0.532 -0.952,-0.7 -0.39201,-0.1866 -0.90535,-0.28 -1.54,-0.28 -0.80268,0 -1.50268,0.056 -2.1,0.168 -0.59734,0.112 -1.05467,0.224 -1.372,0.336 l -0.28,-1.904 c 0.31733,-0.1493 0.83999,-0.28 1.568,-0.392 0.74666,-0.112 1.53999,-0.168 2.38,-0.168" />
      <path
         id="path3088"
         style="font-size:28px;fill:#e6e6e6"
         d="m 228.84397,1025.1397 c -1e-5,0.56 -0.0187,1.1574 -0.056,1.792 -0.0187,0.616 -0.0653,1.2413 -0.14,1.876 -0.056,0.616 -0.14001,1.232 -0.252,1.848 -0.11201,0.5973 -0.26134,1.1573 -0.448,1.68 -0.37334,1.064 -0.94268,1.9787 -1.708,2.744 -0.76534,0.7653 -1.85734,1.2227 -3.276,1.372 l -0.336,-1.96 c 0.82133,-0.1493 1.46533,-0.448 1.932,-0.896 0.48533,-0.4667 0.86799,-1.0267 1.148,-1.68 0.24266,-0.56 0.41999,-1.1947 0.532,-1.904 0.13066,-0.7093 0.22399,-1.456 0.28,-2.24 0.056,-0.784 0.084,-1.568 0.084,-2.352 -1e-5,-0.784 -1e-5,-1.5213 0,-2.212 l 7.672,0 0,12.992 -2.324,0 0,-11.06 -3.108,0" />
      <path
         id="path3090"
         style="font-size:28px;fill:#e6e6e6"
         d="m 243.40397,1034.5477 c 0.57865,0 1.09199,-0.019 1.54,-0.056 0.46665,-0.037 0.84932,-0.084 1.148,-0.14 l 0,-3.864 c -0.29868,-0.093 -0.66268,-0.168 -1.092,-0.224 -0.41068,-0.056 -0.84935,-0.084 -1.316,-0.084 -0.42934,0 -0.84934,0.037 -1.26,0.112 -0.41068,0.056 -0.77468,0.168 -1.092,0.336 -0.31734,0.168 -0.57868,0.392 -0.784,0.672 -0.20534,0.2613 -0.30801,0.5973 -0.308,1.008 -1e-5,0.84 0.27999,1.428 0.84,1.764 0.57866,0.3173 1.35332,0.476 2.324,0.476 m -0.224,-11.648 c 0.97065,0 1.78265,0.1214 2.436,0.364 0.67199,0.2427 1.21332,0.5787 1.624,1.008 0.41065,0.4294 0.69998,0.952 0.868,1.568 0.16798,0.616 0.25198,1.288 0.252,2.016 l 0,8.12 c -0.54135,0.093 -1.26002,0.2053 -2.156,0.336 -0.87735,0.1307 -1.78268,0.196 -2.716,0.196 -0.70934,0 -1.40001,-0.065 -2.072,-0.196 -0.67201,-0.112 -1.26934,-0.3173 -1.792,-0.616 -0.52267,-0.3173 -0.94267,-0.7467 -1.26,-1.288 -0.31734,-0.5413 -0.47601,-1.232 -0.476,-2.072 -1e-5,-0.7467 0.15866,-1.372 0.476,-1.876 0.33599,-0.5227 0.75599,-0.9427 1.26,-1.26 0.52266,-0.3173 1.11066,-0.5413 1.764,-0.672 0.67199,-0.1493 1.34399,-0.224 2.016,-0.224 0.91465,0 1.81065,0.1027 2.688,0.308 l 0,-0.644 c -1e-5,-0.392 -0.0467,-0.7653 -0.14,-1.12 -0.0747,-0.3733 -0.23335,-0.7093 -0.476,-1.008 -0.22401,-0.2986 -0.54135,-0.532 -0.952,-0.7 -0.39201,-0.1866 -0.90535,-0.28 -1.54,-0.28 -0.80268,0 -1.50268,0.056 -2.1,0.168 -0.59734,0.112 -1.05467,0.224 -1.372,0.336 l -0.28,-1.904 c 0.31733,-0.1493 0.83999,-0.28 1.568,-0.392 0.74666,-0.112 1.53999,-0.168 2.38,-0.168" />
      <path
         id="path3092"
         style="font-size:28px;fill:#e6e6e6"
         d="m 262.27597,1036.1997 -2.324,0 0,-5.74 -5.376,0 0,5.74 -2.324,0 0,-12.992 2.324,0 0,5.292 5.376,0 0,-5.292 2.324,0 0,12.992" />
      <path
         id="path3094"
         style="font-size:28px;fill:#e6e6e6"
         d="m 265.63597,1029.7317 c -10e-6,-1.176 0.18666,-2.1933 0.56,-3.052 0.37333,-0.8586 0.88666,-1.568 1.54,-2.128 0.65332,-0.56 1.40932,-0.9706 2.268,-1.232 0.87732,-0.28 1.81065,-0.42 2.8,-0.42 0.63465,0 1.25999,0.047 1.876,0.14 0.63465,0.075 1.30665,0.224 2.016,0.448 l -0.532,1.988 c -0.61602,-0.224 -1.18535,-0.364 -1.708,-0.42 -0.50401,-0.075 -1.01735,-0.112 -1.54,-0.112 -0.67201,0 -1.30668,0.093 -1.904,0.28 -0.59734,0.168 -1.12001,0.448 -1.568,0.84 -0.42934,0.3734 -0.77468,0.868 -1.036,1.484 -0.26134,0.5973 -0.39201,1.3253 -0.392,2.184 -10e-6,0.8213 0.12133,1.5307 0.364,2.128 0.24266,0.5787 0.57866,1.064 1.008,1.456 0.44799,0.3733 0.97999,0.6533 1.596,0.84 0.61599,0.1867 1.29732,0.28 2.044,0.28 0.59732,0 1.16665,-0.028 1.708,-0.084 0.55998,-0.075 1.16665,-0.224 1.82,-0.448 l 0.336,1.932 c -0.65335,0.2427 -1.31602,0.4107 -1.988,0.504 -0.67201,0.112 -1.40001,0.168 -2.184,0.168 -1.04535,0 -2.00668,-0.14 -2.884,-0.42 -0.85868,-0.2987 -1.60534,-0.728 -2.24,-1.288 -0.61601,-0.56 -1.10134,-1.26 -1.456,-2.1 -0.33601,-0.8587 -0.50401,-1.848 -0.504,-2.968" />
      <path
         id="path3096"
         style="font-size:28px;fill:#e6e6e6"
         d="m 290.63997,1023.2077 0,1.932 -4.228,0 0,11.06 -2.296,0 0,-11.06 -4.228,0 0,-1.932 10.752,0" />
      <path
         id="path3098"
         style="font-size:28px;fill:#e6e6e6"
         d="m 305.14397,1029.6477 c -2e-5,1.0827 -0.16802,2.0533 -0.504,2.912 -0.31735,0.84 -0.78402,1.5587 -1.4,2.156 -0.59735,0.5787 -1.33468,1.0267 -2.212,1.344 -0.85868,0.2987 -1.82001,0.448 -2.884,0.448 -0.95201,0 -1.81068,-0.075 -2.576,-0.224 -0.74667,-0.1307 -1.29734,-0.28 -1.652,-0.448 l 0.336,-1.932 c 0.37333,0.168 0.89599,0.308 1.568,0.42 0.69066,0.112 1.39066,0.168 2.1,0.168 0.67199,0 1.28799,-0.093 1.848,-0.28 0.57865,-0.1867 1.08265,-0.448 1.512,-0.784 0.42932,-0.3547 0.77465,-0.784 1.036,-1.288 0.26132,-0.504 0.41999,-1.064 0.476,-1.68 l -5.964,0 0,-1.876 5.908,0 c -0.0747,-0.56 -0.24268,-1.064 -0.504,-1.512 -0.26135,-0.4667 -0.59735,-0.8586 -1.008,-1.176 -0.41068,-0.3173 -0.88668,-0.56 -1.428,-0.728 -0.54134,-0.1866 -1.12934,-0.28 -1.764,-0.28 -0.72801,0 -1.34401,0.047 -1.848,0.14 -0.48534,0.093 -0.99867,0.2427 -1.54,0.448 l -0.532,-1.988 c 0.44799,-0.1493 0.99866,-0.28 1.652,-0.392 0.65332,-0.1306 1.44666,-0.196 2.38,-0.196 1.04532,0 1.99732,0.1587 2.856,0.476 0.85865,0.3174 1.59599,0.7654 2.212,1.344 0.61598,0.5787 1.09198,1.288 1.428,2.128 0.33598,0.84 0.50398,1.7733 0.504,2.8" />
      <path
         id="path3100"
         style="font-size:28px;fill:#e6e6e6"
         d="m 316.76397,1029.7317 c -10e-6,-1.512 -0.35468,-2.6787 -1.064,-3.5 -0.70935,-0.84 -1.63335,-1.26 -2.772,-1.26 -0.63468,0 -1.13868,0.028 -1.512,0.084 -0.35468,0.056 -0.63468,0.1214 -0.84,0.196 l 0,8.204 c 0.26132,0.2427 0.64399,0.4667 1.148,0.672 0.50399,0.2053 1.02666,0.308 1.568,0.308 0.61599,0 1.13865,-0.1213 1.568,-0.364 0.44799,-0.2427 0.81199,-0.5693 1.092,-0.98 0.27999,-0.4293 0.48532,-0.924 0.616,-1.484 0.13065,-0.5787 0.19599,-1.204 0.196,-1.876 m 2.38,0 c -2e-5,0.9893 -0.13068,1.904 -0.392,2.744 -0.24268,0.8213 -0.60668,1.5307 -1.092,2.128 -0.46668,0.5973 -1.04535,1.064 -1.736,1.4 -0.69068,0.336 -1.47468,0.504 -2.352,0.504 -0.69068,0 -1.29734,-0.084 -1.82,-0.252 -0.52268,-0.168 -0.91468,-0.3547 -1.176,-0.56 l 0,5.124 -2.324,0 0,-17.22 c 0.50399,-0.1493 1.14799,-0.2986 1.932,-0.448 0.80266,-0.1493 1.71732,-0.224 2.744,-0.224 0.93332,0 1.78265,0.1587 2.548,0.476 0.76532,0.3174 1.41865,0.7747 1.96,1.372 0.54132,0.5787 0.96132,1.288 1.26,2.128 0.29865,0.84 0.44798,1.7827 0.448,2.828" />
      <path
         id="path3102"
         style="font-size:28px;fill:#e6e6e6"
         d="m 327.40397,1034.5477 c 0.57865,0 1.09199,-0.019 1.54,-0.056 0.46665,-0.037 0.84932,-0.084 1.148,-0.14 l 0,-3.864 c -0.29868,-0.093 -0.66268,-0.168 -1.092,-0.224 -0.41068,-0.056 -0.84935,-0.084 -1.316,-0.084 -0.42934,0 -0.84934,0.037 -1.26,0.112 -0.41068,0.056 -0.77468,0.168 -1.092,0.336 -0.31734,0.168 -0.57868,0.392 -0.784,0.672 -0.20534,0.2613 -0.30801,0.5973 -0.308,1.008 -1e-5,0.84 0.27999,1.428 0.84,1.764 0.57866,0.3173 1.35332,0.476 2.324,0.476 m -0.224,-11.648 c 0.97065,0 1.78265,0.1214 2.436,0.364 0.67199,0.2427 1.21332,0.5787 1.624,1.008 0.41065,0.4294 0.69998,0.952 0.868,1.568 0.16798,0.616 0.25198,1.288 0.252,2.016 l 0,8.12 c -0.54135,0.093 -1.26002,0.2053 -2.156,0.336 -0.87735,0.1307 -1.78268,0.196 -2.716,0.196 -0.70934,0 -1.40001,-0.065 -2.072,-0.196 -0.67201,-0.112 -1.26934,-0.3173 -1.792,-0.616 -0.52267,-0.3173 -0.94267,-0.7467 -1.26,-1.288 -0.31734,-0.5413 -0.47601,-1.232 -0.476,-2.072 -10e-6,-0.7467 0.15866,-1.372 0.476,-1.876 0.33599,-0.5227 0.75599,-0.9427 1.26,-1.26 0.52266,-0.3173 1.11066,-0.5413 1.764,-0.672 0.67199,-0.1493 1.34399,-0.224 2.016,-0.224 0.91465,0 1.81065,0.1027 2.688,0.308 l 0,-0.644 c -1e-5,-0.392 -0.0467,-0.7653 -0.14,-1.12 -0.0747,-0.3733 -0.23335,-0.7093 -0.476,-1.008 -0.22401,-0.2986 -0.54135,-0.532 -0.952,-0.7 -0.39201,-0.1866 -0.90535,-0.28 -1.54,-0.28 -0.80268,0 -1.50268,0.056 -2.1,0.168 -0.59734,0.112 -1.05467,0.224 -1.372,0.336 l -0.28,-1.904 c 0.31733,-0.1493 0.83999,-0.28 1.568,-0.392 0.74666,-0.112 1.53999,-0.168 2.38,-0.168" />
    </g>
    <g
       style="fill:#666666"
       transform="matrix(0.7624388,0,0,0.7624388,2015.4642,781.23849)"
       id="g4451">
      <path
         style="fill:#666666;stroke:none"
         d="m -708.87791,172.5442 c 8.951,0 16.572,3.125 22.857,9.372 3.008,3.009 5.295,6.448 6.857,10.314 1.561,3.867 2.344,7.971 2.344,12.314 0,4.381 -0.773,8.486 -2.314,12.313 -1.543,3.828 -3.82,7.21 -6.828,10.143 -3.123,3.085 -6.666,5.448 -10.629,7.086 -3.961,1.638 -8.057,2.457 -12.285,2.457 -4.228,0 -8.276,-0.808 -12.143,-2.429 -3.866,-1.618 -7.333,-3.961 -10.4,-7.027 -3.067,-3.066 -5.4,-6.524 -7,-10.372 -1.6,-3.848 -2.4,-7.904 -2.4,-12.171 0,-4.229 0.809,-8.295 2.428,-12.2 1.619,-3.905 3.972,-7.4 7.057,-10.486 6.095,-6.208 13.58,-9.314 22.456,-9.314 z m 0.116,5.772 c -7.314,0 -13.467,2.553 -18.458,7.657 -2.515,2.553 -4.448,5.419 -5.8,8.6 -1.354,3.181 -2.029,6.505 -2.029,9.972 0,3.429 0.675,6.734 2.029,9.913 1.353,3.183 3.285,6.021 5.8,8.516 2.514,2.496 5.351,4.399 8.515,5.715 3.161,1.314 6.476,1.971 9.943,1.971 3.428,0 6.75,-0.665 9.973,-1.999 3.219,-1.335 6.121,-3.257 8.713,-5.771 4.99,-4.876 7.484,-10.99 7.484,-18.344 0,-3.543 -0.648,-6.895 -1.943,-10.057 -1.293,-3.162 -3.18,-5.98 -5.654,-8.458 -5.146,-5.143 -11.335,-7.715 -18.573,-7.715 z m -0.401,20.915 -4.287,2.229 c -0.458,-0.951 -1.019,-1.619 -1.685,-2 -0.667,-0.38 -1.286,-0.571 -1.858,-0.571 -2.856,0 -4.286,1.885 -4.286,5.657 0,1.714 0.362,3.084 1.085,4.113 0.724,1.029 1.791,1.544 3.201,1.544 1.867,0 3.181,-0.915 3.944,-2.743 l 3.942,2 c -0.838,1.563 -2,2.791 -3.486,3.686 -1.484,0.896 -3.123,1.343 -4.914,1.343 -2.857,0 -5.163,-0.875 -6.915,-2.629 -1.752,-1.752 -2.628,-4.19 -2.628,-7.313 0,-3.048 0.886,-5.466 2.657,-7.257 1.771,-1.79 4.009,-2.686 6.715,-2.686 3.963,-0.002 6.8,1.541 8.515,4.627 z m 18.457,0 -4.229,2.229 c -0.457,-0.951 -1.02,-1.619 -1.686,-2 -0.668,-0.38 -1.307,-0.571 -1.914,-0.571 -2.857,0 -4.287,1.885 -4.287,5.657 0,1.714 0.363,3.084 1.086,4.113 0.723,1.029 1.789,1.544 3.201,1.544 1.865,0 3.18,-0.915 3.941,-2.743 l 4,2 c -0.875,1.563 -2.057,2.791 -3.541,3.686 -1.486,0.896 -3.105,1.343 -4.857,1.343 -2.896,0 -5.209,-0.875 -6.941,-2.629 -1.736,-1.752 -2.602,-4.19 -2.602,-7.313 0,-3.048 0.885,-5.466 2.658,-7.257 1.77,-1.79 4.008,-2.686 6.713,-2.686 3.962,-0.002 6.783,1.541 8.458,4.627 z"
         id="path4394" />
      <g
         style="fill:#666666;stroke:none"
         id="g4410"
         transform="translate(-673.74791,176.0432)">
        <path
           style="fill:#666666;stroke:none"
           d="m 37.443,-3.5 c 8.988,0 16.57,3.085 22.742,9.257 6.208,6.21 9.315,13.791 9.315,22.743 0,8.991 -3.049,16.476 -9.145,22.456 C 53.879,57.319 46.242,60.5 37.443,60.5 28.794,60.5 21.29,57.356 14.929,51.07 8.644,44.784 5.5,37.262 5.5,28.5 5.5,19.739 8.644,12.158 14.929,5.758 21.101,-0.415 28.604,-3.5 37.443,-3.5 Z m 0.114,5.772 c -7.276,0 -13.428,2.553 -18.457,7.657 -5.22,5.334 -7.829,11.525 -7.829,18.572 0,7.086 2.59,13.22 7.77,18.398 5.181,5.182 11.352,7.771 18.514,7.771 7.123,0 13.334,-2.607 18.629,-7.828 5.029,-4.838 7.543,-10.952 7.543,-18.343 0,-7.276 -2.553,-13.465 -7.656,-18.571 C 50.967,4.824 44.795,2.272 37.557,2.272 Z m 8.572,18.285 0,13.085 -3.656,0 0,15.542 -9.944,0 0,-15.541 -3.656,0 0,-13.086 c 0,-0.572 0.2,-1.057 0.599,-1.457 0.401,-0.399 0.887,-0.6 1.457,-0.6 l 13.144,0 c 0.533,0 1.01,0.2 1.428,0.6 0.417,0.4 0.628,0.886 0.628,1.457 z M 33.042,12.329 c 0,-3.008 1.485,-4.514 4.458,-4.514 2.973,0 4.457,1.504 4.457,4.514 0,2.971 -1.486,4.457 -4.457,4.457 -2.971,0 -4.458,-1.486 -4.458,-4.457 z"
           id="path4412" />
      </g>
      <g
         style="fill:#666666;stroke:none"
         id="g4429"
         transform="translate(-602.46177,176.0432)">
        <path
           style="fill:#666666;stroke:none"
           d="m 37.443,-3.5 c 8.951,0 16.531,3.105 22.742,9.315 6.208,6.172 9.315,13.733 9.315,22.685 0,8.954 -3.049,16.457 -9.145,22.514 C 53.918,57.338 46.279,60.5 37.443,60.5 28.794,60.5 21.29,57.357 14.929,51.071 8.644,44.786 5.5,37.264 5.5,28.501 5.5,19.778 8.644,12.216 14.929,5.816 21.138,-0.395 28.643,-3.5 37.443,-3.5 Z m 0.114,5.772 c -7.276,0 -13.428,2.572 -18.457,7.715 -5.22,5.296 -7.829,11.467 -7.829,18.513 0,7.125 2.59,13.257 7.77,18.4 5.181,5.182 11.352,7.771 18.514,7.771 7.123,0 13.334,-2.609 18.629,-7.828 5.029,-4.876 7.543,-10.99 7.543,-18.343 0,-7.313 -2.553,-13.485 -7.656,-18.513 C 51.004,4.842 44.832,2.272 37.557,2.272 Z M 23.271,23.985 c 0.609,-3.924 2.189,-6.962 4.742,-9.114 2.552,-2.152 5.656,-3.228 9.314,-3.228 5.027,0 9.029,1.62 12,4.856 2.971,3.238 4.457,7.391 4.457,12.457 0,4.915 -1.543,9 -4.627,12.256 -3.088,3.256 -7.086,4.886 -12.002,4.886 -3.619,0 -6.743,-1.085 -9.371,-3.257 -2.629,-2.172 -4.209,-5.257 -4.743,-9.257 l 8.059,0 c 0.19,3.886 2.533,5.829 7.029,5.829 2.246,0 4.057,-0.972 5.428,-2.914 1.373,-1.942 2.059,-4.534 2.059,-7.771 0,-3.391 -0.629,-5.971 -1.885,-7.743 -1.258,-1.771 -3.066,-2.657 -5.43,-2.657 -4.268,0 -6.667,1.885 -7.2,5.656 l 2.343,0 -6.342,6.343 -6.343,-6.343 2.512,10e-4 0,0 z"
           id="path4431" />
      </g>
    </g>
  </g>
</svg>
